{"glyphs":{"0":{"ha":764,"x_min":41,"x_max":762,"o":"m 311 -16 q 201 3 251 -16 q 116 60 152 22 q 61 156 81 98 q 41 293 41 214 q 51 415 41 348 q 81 549 60 481 q 136 680 102 616 q 220 792 170 743 q 338 871 271 842 q 493 901 406 901 q 603 883 553 901 q 688 826 652 864 q 743 729 723 787 q 762 593 762 671 q 753 471 762 538 q 723 337 744 405 q 668 206 702 269 q 584 93 634 142 q 466 14 534 44 q 311 -16 399 -16 m 468 766 q 373 734 415 766 q 299 651 330 703 q 248 535 268 600 q 218 406 227 471 l 591 642 q 552 735 583 705 q 468 766 521 766 m 336 119 q 402 134 372 119 q 458 174 433 149 q 504 235 484 200 q 541 309 525 269 q 568 393 557 349 q 586 481 579 437 l 212 244 q 252 150 221 180 q 336 119 283 119 z "},"1":{"ha":764,"x_min":33,"x_max":653,"o":"m 33 0 l 62 147 l 289 147 l 403 717 l 183 608 l 149 743 l 460 892 l 607 892 l 458 147 l 653 147 l 624 0 l 33 0 z "},"2":{"ha":764,"x_min":18,"x_max":720,"o":"m 18 0 l 43 129 l 294 339 q 416 447 369 401 q 490 530 463 493 q 527 597 517 566 q 536 660 536 628 q 513 727 536 701 q 439 754 489 754 q 339 731 387 754 q 243 671 292 709 l 160 783 q 304 869 228 837 q 467 901 380 901 q 570 887 524 901 q 650 845 616 873 q 701 778 683 818 q 720 686 720 738 q 706 591 720 637 q 660 496 692 545 q 572 394 627 448 q 435 275 517 340 l 282 153 l 650 153 l 619 0 l 18 0 z "},"3":{"ha":764,"x_min":25,"x_max":713,"o":"m 677 302 q 671 240 677 274 q 646 170 664 205 q 596 102 628 135 q 513 43 564 69 q 391 2 463 18 q 222 -14 319 -14 q 173 -13 199 -14 q 119 -10 146 -12 q 68 -6 92 -8 q 25 0 43 -3 l 53 143 q 144 130 94 135 q 253 125 195 125 q 363 138 317 125 q 441 172 410 150 q 486 225 471 195 q 501 293 501 256 q 493 331 501 313 q 463 363 484 349 q 405 386 441 378 q 313 395 369 395 l 210 395 l 236 521 l 310 521 q 405 532 363 521 q 476 563 446 543 q 521 614 505 584 q 536 682 536 644 q 531 713 536 699 q 512 738 526 727 q 475 756 498 749 q 415 762 452 762 q 313 753 362 762 q 207 728 264 745 l 207 864 q 329 892 271 884 q 447 901 386 901 q 561 887 511 901 q 645 847 611 873 q 695 787 678 822 q 713 710 713 752 q 701 633 713 670 q 667 563 690 595 q 609 506 644 531 q 528 465 574 480 q 638 410 599 454 q 677 302 677 366 z "},"4":{"ha":764,"x_min":-7,"x_max":730,"o":"m 567 180 l 530 0 l 370 0 l 406 180 l -7 180 l 21 326 l 472 886 l 708 886 l 596 326 l 730 326 l 701 180 l 567 180 m 518 726 l 191 326 l 439 326 l 518 726 z "},"5":{"ha":764,"x_min":36,"x_max":742,"o":"m 672 338 q 644 198 672 262 q 561 87 616 134 q 421 13 505 40 q 227 -14 338 -14 q 180 -12 205 -14 q 129 -9 155 -11 q 79 -4 103 -7 q 36 3 55 -1 l 65 147 q 150 132 102 138 q 250 126 197 126 q 360 141 314 126 q 436 182 407 157 q 480 240 466 208 q 494 307 494 273 q 486 350 494 330 q 457 385 478 370 q 401 407 437 399 q 310 415 365 415 l 136 415 l 231 886 l 742 886 l 710 730 l 353 730 l 317 550 l 366 550 q 491 538 435 550 q 588 499 548 526 q 650 433 628 473 q 672 338 672 393 z "},"6":{"ha":764,"x_min":61,"x_max":746,"o":"m 701 338 q 676 202 701 267 q 603 90 651 138 q 485 13 555 41 q 323 -16 414 -16 q 128 54 195 -16 q 61 260 61 123 q 65 329 61 290 q 78 411 69 368 q 100 501 86 454 q 134 592 114 547 q 180 679 154 637 q 240 754 206 720 q 310 809 271 785 q 399 851 349 833 q 509 877 449 868 q 642 886 570 886 l 746 886 l 717 746 l 599 746 q 470 730 524 746 q 380 685 417 713 q 321 616 344 656 q 285 530 299 577 l 281 514 q 361 542 319 531 q 452 553 402 553 q 560 537 513 553 q 638 493 607 522 q 685 426 669 465 q 701 338 701 386 m 350 123 q 428 141 395 123 q 484 186 461 159 q 517 248 506 214 q 528 314 528 281 q 521 356 528 337 q 500 388 515 374 q 464 408 486 401 q 411 415 442 415 q 367 411 389 415 q 323 401 345 408 q 282 388 302 395 q 248 372 263 380 q 237 309 241 338 q 233 257 233 281 q 263 154 233 185 q 350 123 292 123 z "},"7":{"ha":764,"x_min":72,"x_max":796,"o":"m 269 0 l 72 0 l 570 726 l 147 726 l 180 886 l 796 886 l 764 726 l 269 0 z "},"8":{"ha":764,"x_min":40,"x_max":746,"o":"m 549 461 q 596 426 574 446 q 636 383 619 407 q 664 330 654 359 q 675 267 675 301 q 653 163 675 214 q 587 72 631 112 q 474 8 542 33 q 314 -16 406 -16 q 197 -2 248 -16 q 112 36 146 11 q 58 97 77 61 q 40 176 40 132 q 58 269 40 227 q 105 346 75 311 q 175 409 136 380 q 258 458 214 437 q 216 491 236 473 q 180 530 195 508 q 156 579 165 552 q 147 640 147 606 q 155 695 147 666 q 179 754 162 725 q 222 809 195 783 q 286 857 248 836 q 373 889 323 877 q 486 901 423 901 q 596 888 547 901 q 677 852 644 876 q 728 794 711 828 q 746 717 746 760 q 730 635 746 673 q 687 566 714 597 q 625 508 661 534 q 549 461 589 482 m 421 533 q 489 571 458 552 q 540 610 519 589 q 572 653 561 630 q 583 703 583 675 q 577 730 583 718 q 557 753 571 743 q 521 768 543 762 q 467 774 499 774 q 395 764 425 774 q 347 737 366 753 q 321 699 329 720 q 313 657 313 678 q 338 593 313 623 q 421 533 363 563 m 386 383 q 252 296 298 339 q 207 200 207 253 q 215 167 207 182 q 238 140 222 151 q 278 122 254 128 q 335 115 302 115 q 407 125 376 115 q 460 152 439 135 q 493 194 481 170 q 504 245 504 218 q 497 285 504 267 q 475 319 490 303 q 438 351 460 336 q 386 383 416 367 z "},"9":{"ha":764,"x_min":32,"x_max":736,"o":"m 736 627 q 726 499 736 566 q 695 366 716 431 q 642 240 675 300 q 562 134 609 180 q 389 34 496 68 q 131 0 282 0 l 32 0 l 60 142 l 180 142 q 316 156 260 142 q 411 196 372 170 q 473 263 449 223 q 513 355 497 303 l 517 372 q 435 345 478 355 q 346 334 393 334 q 240 348 286 334 q 161 390 193 363 q 112 457 129 418 q 96 547 96 497 q 123 688 96 623 q 199 800 150 753 q 318 874 248 848 q 473 901 388 901 q 579 886 531 901 q 663 838 628 871 q 716 752 697 804 q 736 627 736 701 m 447 762 q 371 746 404 762 q 316 703 338 730 q 281 641 293 675 q 269 568 269 606 q 275 531 269 549 q 294 500 281 513 q 330 479 308 487 q 386 471 353 471 q 426 474 404 471 q 470 484 448 477 q 513 497 492 490 q 550 514 534 505 q 560 576 556 547 q 564 629 564 604 q 537 729 564 695 q 447 762 510 762 z "},"\u0000":{"ha":764,"x_min":0,"x_max":0,"o":""},"\r":{"ha":0,"x_min":0,"x_max":0,"o":""}," ":{"ha":764,"x_min":0,"x_max":0,"o":""},"A":{"ha":764,"x_min":-66,"x_max":692,"o":"m 515 0 l 501 175 l 192 175 l 107 0 l -66 0 l 374 886 l 607 886 l 692 0 l 515 0 m 458 724 l 258 311 l 490 311 l 458 724 z "},"B":{"ha":764,"x_min":18,"x_max":745,"o":"m 18 0 l 196 886 l 473 886 q 600 873 549 886 q 684 836 652 859 q 730 780 716 812 q 745 711 745 748 q 731 629 745 668 q 695 557 718 589 q 640 500 671 524 q 570 464 608 476 q 624 444 600 458 q 665 409 648 430 q 690 362 682 388 q 699 309 699 336 q 693 250 699 283 q 672 183 688 217 q 628 116 656 149 q 555 57 600 83 q 446 16 510 31 q 293 0 381 0 l 18 0 m 566 672 q 561 702 566 687 q 542 728 556 717 q 504 747 528 740 q 439 754 479 754 l 334 754 l 288 519 l 380 519 q 461 533 427 519 q 519 568 496 546 q 554 617 543 589 q 566 672 566 644 m 318 136 q 411 151 373 136 q 473 188 449 165 q 507 239 496 210 q 518 297 518 268 q 511 333 518 316 q 488 363 505 350 q 443 384 471 376 q 370 392 414 392 l 261 392 l 210 136 l 318 136 z "},"C":{"ha":764,"x_min":61,"x_max":785,"o":"m 633 36 q 511 0 570 12 q 393 -12 453 -12 q 234 15 298 -12 q 132 87 170 42 q 77 190 94 132 q 61 309 61 248 q 64 370 61 332 q 78 454 68 408 q 104 551 87 500 q 147 651 121 602 q 211 745 174 701 q 299 824 249 790 q 415 879 350 859 q 564 899 481 899 q 681 890 625 899 q 785 867 736 882 l 753 713 q 661 740 711 728 q 558 751 611 751 q 445 727 493 751 q 361 664 396 703 q 303 578 326 626 q 267 482 280 530 q 248 392 254 435 q 243 323 243 350 q 248 261 243 294 q 272 201 253 229 q 328 156 291 174 q 427 138 364 138 q 475 141 449 138 q 528 152 501 145 q 582 167 555 158 q 633 186 609 176 l 633 36 z "},"D":{"ha":764,"x_min":-11,"x_max":761,"o":"m 761 583 q 758 515 761 555 q 746 429 755 475 q 720 333 736 382 q 675 235 703 283 q 608 145 648 188 q 513 70 568 102 q 386 19 458 38 q 221 0 313 0 l -11 0 l 167 886 l 421 886 q 675 811 589 886 q 761 583 761 735 m 582 569 q 572 645 582 612 q 539 701 562 678 q 481 735 517 723 q 393 747 445 747 l 304 747 l 183 140 l 253 140 q 376 162 324 140 q 465 222 429 185 q 524 305 501 258 q 560 399 547 352 q 577 492 572 447 q 582 569 582 536 z "},"E":{"ha":764,"x_min":56,"x_max":766,"o":"m 56 0 l 233 886 l 766 886 l 737 745 l 374 745 l 329 525 l 676 525 l 650 387 l 302 387 l 253 141 l 616 141 l 589 0 l 56 0 z "},"F":{"ha":764,"x_min":56,"x_max":757,"o":"m 374 745 l 325 500 l 660 500 l 632 363 l 297 363 l 225 0 l 56 0 l 233 886 l 757 886 l 728 745 l 374 745 z "},"G":{"ha":764,"x_min":37,"x_max":802,"o":"m 392 375 l 419 513 l 734 513 l 639 40 q 508 -2 573 12 q 366 -16 444 -16 q 228 6 288 -16 q 124 70 167 28 q 60 172 82 111 q 37 311 37 233 q 47 428 37 363 q 81 557 57 492 q 144 685 104 623 q 242 795 183 747 q 381 872 300 843 q 567 901 461 901 q 688 890 627 901 q 802 861 748 879 l 770 707 q 668 738 725 724 q 550 752 612 752 q 439 731 488 752 q 352 676 390 711 q 288 598 315 642 q 245 505 262 553 q 220 407 228 456 q 212 315 212 358 q 223 238 212 271 q 256 181 233 204 q 314 145 279 157 q 400 134 350 134 q 453 137 431 134 q 496 149 474 141 l 542 375 l 392 375 z "},"H":{"ha":764,"x_min":-4,"x_max":808,"o":"m 464 0 l 541 386 l 239 386 l 163 0 l -4 0 l 174 886 l 340 886 l 268 530 l 570 530 l 642 886 l 808 886 l 631 0 l 464 0 z "},"I":{"ha":764,"x_min":32,"x_max":771,"o":"m 182 749 l 210 886 l 771 886 l 743 749 l 547 749 l 425 137 l 619 137 l 593 0 l 32 0 l 58 137 l 255 137 l 378 749 l 182 749 z "},"J":{"ha":764,"x_min":28,"x_max":721,"o":"m 595 252 q 555 147 583 195 q 484 63 526 98 q 384 7 441 27 q 254 -14 326 -14 q 188 -7 220 -14 q 126 10 155 -1 q 72 37 97 21 q 28 74 47 54 l 121 192 q 148 167 133 179 q 181 146 163 155 q 220 132 199 137 q 267 126 241 126 q 314 135 289 126 q 363 162 340 143 q 405 214 387 182 q 433 294 423 246 l 525 749 l 204 749 l 232 886 l 721 886 l 595 252 z "},"K":{"ha":764,"x_min":17,"x_max":839,"o":"m 454 0 l 273 429 l 187 0 l 17 0 l 195 886 l 366 886 l 286 490 l 627 886 l 839 886 l 444 457 l 664 0 l 454 0 z "},"L":{"ha":764,"x_min":64,"x_max":636,"o":"m 64 0 l 241 886 l 411 886 l 262 143 l 636 143 l 608 0 l 64 0 z "},"M":{"ha":764,"x_min":-39,"x_max":798,"o":"m 517 0 l 600 501 l 635 701 l 564 566 l 406 264 l 301 264 l 272 566 l 262 701 l 220 505 l 103 0 l -39 0 l 182 886 l 363 886 l 389 635 l 399 493 l 463 627 l 597 886 l 798 886 l 664 0 l 517 0 z "},"N":{"ha":764,"x_min":-1,"x_max":810,"o":"m 436 0 l 304 529 l 278 643 l 204 275 l 150 0 l -1 0 l 176 886 l 372 886 l 507 354 l 529 250 l 607 642 l 657 886 l 810 886 l 632 0 l 436 0 z "},"O":{"ha":764,"x_min":28,"x_max":772,"o":"m 315 -16 q 102 61 176 -16 q 28 283 28 138 q 39 423 28 351 q 75 564 51 495 q 135 694 98 633 q 222 801 172 755 q 339 874 273 847 q 485 901 404 901 q 698 825 624 901 q 772 603 772 749 q 761 463 772 535 q 726 322 749 391 q 665 192 702 253 q 578 85 629 131 q 461 12 527 39 q 315 -16 396 -16 m 339 134 q 417 153 382 134 q 482 205 453 172 q 532 281 511 237 q 569 375 554 325 q 590 480 583 426 q 597 589 597 535 q 565 712 597 673 q 461 751 533 751 q 383 733 418 751 q 318 682 347 714 q 268 605 290 649 q 232 511 246 561 q 210 406 217 460 q 203 297 203 351 q 235 174 203 213 q 339 134 267 134 z "},"P":{"ha":764,"x_min":22,"x_max":762,"o":"m 762 661 q 736 520 762 588 q 659 399 711 452 q 527 316 606 347 q 339 285 447 285 l 245 285 l 189 0 l 22 0 l 200 886 l 452 886 q 597 868 538 886 q 693 818 656 849 q 746 745 730 786 q 762 661 762 705 m 585 635 q 579 677 585 657 q 555 713 572 698 q 509 739 538 729 q 431 748 479 748 l 338 748 l 273 423 l 362 423 q 454 440 413 423 q 525 485 496 456 q 569 553 553 514 q 585 635 585 591 z "},"Q":{"ha":764,"x_min":28,"x_max":772,"o":"m 458 -257 q 347 -240 393 -257 q 272 -191 300 -223 q 231 -111 243 -158 q 224 -4 220 -64 q 77 91 127 18 q 28 283 28 163 q 39 423 28 351 q 75 564 51 495 q 135 694 98 633 q 222 801 172 755 q 339 874 273 847 q 485 901 404 901 q 698 825 624 901 q 772 603 772 749 q 763 473 772 540 q 732 342 753 406 q 681 218 712 277 q 606 112 649 159 q 506 33 562 65 q 382 -9 450 1 q 386 -57 381 -37 q 403 -90 391 -77 q 435 -109 415 -103 q 486 -115 456 -115 q 546 -103 515 -115 q 604 -69 577 -91 l 675 -183 q 571 -238 627 -219 q 458 -257 515 -257 m 339 135 q 417 154 382 135 q 482 205 453 172 q 532 281 511 237 q 569 375 554 325 q 590 480 583 426 q 597 589 597 535 q 565 712 597 673 q 461 751 533 751 q 383 733 418 751 q 318 682 347 714 q 268 605 290 649 q 232 511 246 561 q 210 406 217 460 q 203 297 203 351 q 235 174 203 213 q 339 135 267 135 z "},"R":{"ha":764,"x_min":18,"x_max":729,"o":"m 469 0 l 415 221 q 392 294 405 265 q 364 338 380 322 q 328 361 348 355 q 283 367 309 367 l 258 367 l 185 0 l 18 0 l 196 886 l 450 886 q 565 876 513 886 q 653 842 616 865 q 709 783 690 819 q 729 693 729 746 q 713 593 729 640 q 665 509 696 546 q 590 447 634 472 q 489 412 545 422 q 520 388 506 403 q 547 351 534 374 q 571 296 559 328 q 596 220 583 264 l 657 0 l 469 0 m 343 497 q 430 508 391 497 q 496 538 469 518 q 538 589 524 559 q 553 657 553 618 q 520 726 553 704 q 415 747 487 747 l 334 747 l 284 497 l 343 497 z "},"S":{"ha":764,"x_min":1,"x_max":732,"o":"m 265 -16 q 125 -6 190 -16 q 1 22 61 3 l 33 179 q 94 160 62 169 q 158 145 125 151 q 223 136 191 139 q 286 132 256 132 q 378 142 340 132 q 441 169 416 152 q 477 208 466 186 q 489 254 489 230 q 474 303 489 283 q 433 341 458 324 q 375 373 408 358 q 310 404 343 388 q 244 438 276 420 q 187 483 212 457 q 146 542 161 508 q 131 621 131 575 q 154 725 131 675 q 223 815 176 776 q 343 878 271 854 q 517 901 416 901 q 575 899 546 901 q 633 893 605 897 q 686 884 661 889 q 732 873 711 879 l 703 726 q 658 739 683 733 q 607 749 633 745 q 553 756 580 753 q 501 758 526 758 q 418 750 453 758 q 361 727 384 741 q 329 692 339 712 q 318 650 318 672 q 334 605 318 624 q 375 569 349 585 q 432 538 400 553 q 498 506 465 523 q 565 470 532 490 q 622 424 597 450 q 663 364 648 398 q 679 285 679 330 q 650 161 679 216 q 567 66 621 105 q 436 5 513 26 q 265 -16 359 -16 z "},"T":{"ha":764,"x_min":134,"x_max":819,"o":"m 547 747 l 399 0 l 228 0 l 376 747 l 134 747 l 163 886 l 819 886 l 790 747 l 547 747 z "},"U":{"ha":764,"x_min":41,"x_max":814,"o":"m 698 313 q 648 166 681 228 q 568 63 616 104 q 456 4 519 23 q 314 -16 392 -16 q 190 1 242 -16 q 103 47 137 17 q 55 121 70 78 q 41 216 41 163 q 52 313 41 261 l 167 886 l 334 886 l 218 309 q 210 235 210 267 q 217 186 210 207 q 238 151 224 165 q 277 129 252 136 q 335 122 301 122 q 408 133 376 122 q 464 166 440 143 q 505 226 488 190 q 531 315 521 262 l 646 886 l 814 886 l 698 313 z "},"V":{"ha":764,"x_min":109,"x_max":872,"o":"m 422 0 l 201 0 l 109 886 l 288 886 l 334 353 l 347 178 l 435 363 l 685 886 l 872 886 l 422 0 z "},"W":{"ha":764,"x_min":3,"x_max":850,"o":"m 623 0 l 435 0 l 406 273 l 396 385 l 339 271 l 195 0 l 3 0 l 131 886 l 278 886 l 183 318 l 158 163 l 227 301 l 387 616 l 493 616 l 528 282 l 538 164 l 568 302 l 708 886 l 850 886 l 623 0 z "},"X":{"ha":764,"x_min":-64,"x_max":839,"o":"m 485 0 l 379 326 l 146 0 l -64 0 l 282 454 l 131 886 l 318 886 l 416 578 l 635 886 l 839 886 l 514 454 l 689 0 l 485 0 z "},"Y":{"ha":764,"x_min":115,"x_max":864,"o":"m 457 314 l 395 0 l 226 0 l 289 313 l 115 886 l 290 886 l 367 612 l 400 478 l 489 616 l 676 886 l 864 886 l 457 314 z "},"Z":{"ha":764,"x_min":1,"x_max":796,"o":"m 1 0 l 26 127 l 546 735 l 161 735 l 192 886 l 796 886 l 768 753 l 248 151 l 654 151 l 624 0 l 1 0 z "},"À":{"ha":764,"x_min":-66,"x_max":692,"o":"m 515 0 l 501 175 l 192 175 l 107 0 l -66 0 l 374 886 l 607 886 l 692 0 l 515 0 m 458 724 l 258 311 l 490 311 l 458 724 m 447 1133 l 591 981 l 427 981 l 224 1133 l 447 1133 m 0 886 z "},"Á":{"ha":764,"x_min":-66,"x_max":807,"o":"m 515 0 l 501 175 l 192 175 l 107 0 l -66 0 l 374 886 l 607 886 l 692 0 l 515 0 m 458 724 l 258 311 l 490 311 l 458 724 m 590 981 l 425 981 l 583 1133 l 807 1133 l 590 981 m 0 886 z "},"Â":{"ha":764,"x_min":-66,"x_max":741,"o":"m 515 0 l 501 175 l 192 175 l 107 0 l -66 0 l 374 886 l 607 886 l 692 0 l 515 0 m 458 724 l 258 311 l 490 311 l 458 724 m 741 981 l 599 981 l 528 1044 l 432 981 l 279 981 l 471 1133 l 610 1133 l 741 981 m 0 886 z "},"Ã":{"ha":764,"x_min":-66,"x_max":782,"o":"m 515 0 l 501 175 l 192 175 l 107 0 l -66 0 l 374 886 l 607 886 l 692 0 l 515 0 m 458 724 l 258 311 l 490 311 l 458 724 m 782 1071 q 711 990 751 1017 q 615 964 671 964 q 550 975 576 964 q 503 999 524 985 q 463 1023 481 1012 q 422 1034 444 1034 q 376 1018 397 1034 q 335 972 356 1002 l 264 1043 q 336 1124 296 1098 q 432 1150 376 1150 q 497 1139 471 1150 q 545 1115 524 1128 q 585 1091 566 1102 q 625 1080 604 1080 q 671 1096 650 1080 q 711 1141 692 1112 l 782 1071 m 0 886 z "},"Ä":{"ha":764,"x_min":-66,"x_max":766,"o":"m 515 0 l 501 175 l 192 175 l 107 0 l -66 0 l 374 886 l 607 886 l 692 0 l 515 0 m 458 724 l 258 311 l 490 311 l 458 724 m 467 1059 q 458 1019 467 1037 q 437 988 450 1001 q 406 967 423 975 q 370 960 388 960 q 333 967 350 960 q 305 986 317 974 q 287 1014 294 998 q 281 1047 281 1030 q 289 1086 281 1068 q 309 1118 296 1105 q 339 1139 322 1131 q 376 1146 357 1146 q 412 1139 395 1146 q 441 1120 429 1132 q 460 1092 453 1107 q 467 1059 467 1076 m 766 1059 q 758 1019 766 1037 q 736 988 750 1001 q 706 967 723 975 q 669 960 688 960 q 633 967 650 960 q 605 986 616 974 q 587 1014 593 998 q 581 1047 581 1030 q 588 1086 581 1068 q 609 1118 596 1105 q 640 1139 623 1131 q 676 1146 657 1146 q 712 1139 695 1146 q 741 1120 728 1132 q 760 1092 753 1107 q 766 1059 766 1076 m 0 886 z "},"Ā":{"ha":764,"x_min":-66,"x_max":732,"o":"m 515 0 l 501 175 l 192 175 l 107 0 l -66 0 l 374 886 l 607 886 l 692 0 l 515 0 m 458 724 l 258 311 l 490 311 l 458 724 m 314 991 l 338 1109 l 732 1109 l 708 991 l 314 991 m 0 886 z "},"Ă":{"ha":764,"x_min":-66,"x_max":741,"o":"m 515 0 l 501 175 l 192 175 l 107 0 l -66 0 l 374 886 l 607 886 l 692 0 l 515 0 m 458 724 l 258 311 l 490 311 l 458 724 m 741 1139 q 718 1074 735 1105 q 673 1019 701 1042 q 604 981 644 995 q 513 966 564 966 q 426 981 461 966 q 370 1020 391 996 q 343 1075 350 1044 q 342 1139 336 1106 l 460 1139 q 460 1116 458 1127 q 470 1096 463 1105 q 492 1081 478 1086 q 528 1075 506 1075 q 592 1093 568 1075 q 621 1139 615 1112 l 741 1139 m 0 886 z "},"Å":{"ha":764,"x_min":-66,"x_max":692,"o":"m 515 0 l 501 175 l 192 175 l 107 0 l -66 0 l 374 886 l 607 886 l 692 0 l 515 0 m 458 724 l 258 311 l 490 311 l 458 724 m 672 1054 q 660 992 672 1019 q 626 945 647 964 q 576 917 604 926 q 515 907 547 907 q 456 916 484 907 q 409 942 429 925 q 378 983 389 959 q 367 1035 367 1006 q 380 1098 367 1071 q 415 1143 393 1125 q 466 1171 437 1162 q 526 1181 494 1181 q 586 1172 559 1181 q 632 1146 612 1162 q 662 1106 651 1129 q 672 1054 672 1082 m 578 1048 q 563 1085 578 1071 q 522 1099 548 1099 q 479 1084 496 1099 q 461 1040 461 1069 q 477 1002 461 1017 q 518 988 492 988 q 561 1003 544 988 q 578 1048 578 1019 m 0 886 z "},"Ǻ":{"ha":764,"x_min":-66,"x_max":856,"o":"m 515 0 l 501 175 l 192 175 l 107 0 l -66 0 l 374 886 l 607 886 l 692 0 l 515 0 m 458 724 l 258 311 l 490 311 l 458 724 m 682 1046 q 669 988 682 1014 q 633 946 656 963 q 579 919 610 928 q 516 910 549 910 q 453 919 482 910 q 403 943 425 927 q 370 980 382 958 q 358 1028 358 1002 q 372 1086 358 1061 q 409 1128 386 1112 q 463 1154 433 1145 q 528 1162 494 1162 q 590 1154 562 1162 q 640 1130 618 1145 q 671 1094 661 1115 q 682 1046 682 1072 m 582 1040 q 566 1074 582 1061 q 523 1087 550 1087 q 477 1073 496 1087 q 458 1032 458 1059 q 475 998 458 1011 q 519 985 492 985 q 564 999 546 985 q 582 1040 582 1013 m 650 1187 l 493 1187 l 643 1322 l 856 1322 l 650 1187 m 0 886 z "},"Ą":{"ha":764,"x_min":-66,"x_max":692,"o":"m 644 -261 q 593 -271 621 -267 q 545 -275 566 -275 q 473 -266 501 -275 q 429 -242 446 -257 q 407 -208 413 -227 q 400 -170 400 -189 q 405 -132 400 -151 q 423 -93 410 -113 q 458 -49 436 -72 q 515 0 481 -26 l 501 175 l 192 175 l 107 0 l -66 0 l 374 886 l 607 886 l 692 0 l 652 0 q 602 -53 621 -31 q 572 -92 583 -75 q 558 -120 562 -109 q 554 -142 554 -132 q 563 -160 554 -153 q 596 -167 572 -167 q 620 -165 606 -167 q 644 -161 634 -163 l 644 -261 m 458 724 l 258 311 l 490 311 l 458 724 z "},"Æ":{"ha":764,"x_min":-103,"x_max":838,"o":"m 329 0 l 364 178 l 164 178 l 68 0 l -103 0 l 411 886 l 838 886 l 810 751 l 628 751 l 582 522 l 753 522 l 726 390 l 555 390 l 504 135 l 693 135 l 667 0 l 329 0 m 479 751 l 233 304 l 389 304 l 479 751 z "},"Ǽ":{"ha":764,"x_min":-103,"x_max":838,"o":"m 329 0 l 364 178 l 164 178 l 68 0 l -103 0 l 411 886 l 838 886 l 810 751 l 628 751 l 582 522 l 753 522 l 726 390 l 555 390 l 504 135 l 693 135 l 667 0 l 329 0 m 479 751 l 233 304 l 389 304 l 479 751 m 618 981 l 453 981 l 611 1133 l 835 1133 l 618 981 m 28 886 z "},"Ć":{"ha":764,"x_min":28,"x_max":835,"o":"m 633 36 q 511 0 570 12 q 393 -12 453 -12 q 234 15 298 -12 q 132 87 170 42 q 77 190 94 132 q 61 309 61 248 q 64 370 61 332 q 78 454 68 408 q 104 551 87 500 q 147 651 121 602 q 211 745 174 701 q 299 824 249 790 q 415 879 350 859 q 564 899 481 899 q 681 890 625 899 q 785 867 736 882 l 753 713 q 661 740 711 728 q 558 751 611 751 q 445 727 493 751 q 361 664 396 703 q 303 578 326 626 q 267 482 280 530 q 248 392 254 435 q 243 323 243 350 q 248 261 243 294 q 272 201 253 229 q 328 156 291 174 q 427 138 364 138 q 475 141 449 138 q 528 152 501 145 q 582 167 555 158 q 633 186 609 176 l 633 36 m 618 981 l 453 981 l 611 1133 l 835 1133 l 618 981 m 28 886 z "},"Ĉ":{"ha":764,"x_min":41,"x_max":785,"o":"m 633 36 q 511 0 570 12 q 393 -12 453 -12 q 234 15 298 -12 q 132 87 170 42 q 77 190 94 132 q 61 309 61 248 q 64 370 61 332 q 78 454 68 408 q 104 551 87 500 q 147 651 121 602 q 211 745 174 701 q 299 824 249 790 q 415 879 350 859 q 564 899 481 899 q 681 890 625 899 q 785 867 736 882 l 753 713 q 661 740 711 728 q 558 751 611 751 q 445 727 493 751 q 361 664 396 703 q 303 578 326 626 q 267 482 280 530 q 248 392 254 435 q 243 323 243 350 q 248 261 243 294 q 272 201 253 229 q 328 156 291 174 q 427 138 364 138 q 475 141 449 138 q 528 152 501 145 q 582 167 555 158 q 633 186 609 176 l 633 36 m 782 981 l 640 981 l 569 1044 l 473 981 l 321 981 l 512 1133 l 651 1133 l 782 981 m 41 886 z "},"Č":{"ha":764,"x_min":41,"x_max":811,"o":"m 633 36 q 511 0 570 12 q 393 -12 453 -12 q 234 15 298 -12 q 132 87 170 42 q 77 190 94 132 q 61 309 61 248 q 64 370 61 332 q 78 454 68 408 q 104 551 87 500 q 147 651 121 602 q 211 745 174 701 q 299 824 249 790 q 415 879 350 859 q 564 899 481 899 q 681 890 625 899 q 785 867 736 882 l 753 713 q 661 740 711 728 q 558 751 611 751 q 445 727 493 751 q 361 664 396 703 q 303 578 326 626 q 267 482 280 530 q 248 392 254 435 q 243 323 243 350 q 248 261 243 294 q 272 201 253 229 q 328 156 291 174 q 427 138 364 138 q 475 141 449 138 q 528 152 501 145 q 582 167 555 158 q 633 186 609 176 l 633 36 m 350 1133 l 492 1133 l 562 1069 l 658 1133 l 811 1133 l 619 981 l 480 981 l 350 1133 m 41 886 z "},"Ċ":{"ha":764,"x_min":41,"x_max":785,"o":"m 633 36 q 511 0 570 12 q 393 -12 453 -12 q 234 15 298 -12 q 132 87 170 42 q 77 190 94 132 q 61 309 61 248 q 64 370 61 332 q 78 454 68 408 q 104 551 87 500 q 147 651 121 602 q 211 745 174 701 q 299 824 249 790 q 415 879 350 859 q 564 899 481 899 q 681 890 625 899 q 785 867 736 882 l 753 713 q 661 740 711 728 q 558 751 611 751 q 445 727 493 751 q 361 664 396 703 q 303 578 326 626 q 267 482 280 530 q 248 392 254 435 q 243 323 243 350 q 248 261 243 294 q 272 201 253 229 q 328 156 291 174 q 427 138 364 138 q 475 141 449 138 q 528 152 501 145 q 582 167 555 158 q 633 186 609 176 l 633 36 m 669 1057 q 661 1015 669 1034 q 637 981 652 996 q 603 959 623 967 q 562 951 583 951 q 522 959 540 951 q 490 980 503 967 q 470 1011 477 994 q 463 1048 463 1029 q 471 1091 463 1072 q 494 1125 479 1111 q 528 1146 509 1139 q 569 1154 547 1154 q 608 1147 590 1154 q 640 1126 627 1139 q 662 1096 654 1114 q 669 1057 669 1078 m 41 886 z "},"Ç":{"ha":764,"x_min":61,"x_max":785,"o":"m 633 36 q 530 4 580 16 q 431 -11 481 -7 l 329 -200 l 207 -200 l 282 0 q 177 46 220 15 q 109 118 135 77 q 72 209 83 159 q 61 309 61 258 q 64 370 61 332 q 78 454 68 408 q 104 551 87 500 q 147 651 121 602 q 211 745 174 701 q 299 824 249 790 q 415 879 350 859 q 564 899 481 899 q 681 890 625 899 q 785 867 736 882 l 753 713 q 661 740 711 728 q 558 751 611 751 q 445 727 493 751 q 361 664 396 703 q 303 578 326 626 q 267 482 280 530 q 248 392 254 435 q 243 323 243 350 q 248 261 243 294 q 272 201 253 229 q 328 156 291 174 q 427 138 364 138 q 475 141 449 138 q 528 152 501 145 q 582 167 555 158 q 633 186 609 176 l 633 36 z "},"Ď":{"ha":764,"x_min":-26,"x_max":761,"o":"m 761 583 q 758 515 761 555 q 746 429 755 475 q 720 333 736 382 q 675 235 703 283 q 608 145 648 188 q 513 70 568 102 q 386 19 458 38 q 221 0 313 0 l -11 0 l 167 886 l 421 886 q 675 811 589 886 q 761 583 761 735 m 582 569 q 572 645 582 612 q 539 701 562 678 q 481 735 517 723 q 393 747 445 747 l 304 747 l 183 140 l 253 140 q 376 162 324 140 q 465 222 429 185 q 524 305 501 258 q 560 399 547 352 q 577 492 572 447 q 582 569 582 536 m 282 1133 l 424 1133 l 494 1069 l 590 1133 l 743 1133 l 551 981 l 412 981 l 282 1133 m -26 886 z "},"Ð":{"ha":764,"x_min":3,"x_max":761,"o":"m 35 525 l 109 525 l 180 886 l 421 886 q 675 811 589 886 q 761 583 761 735 q 758 515 761 555 q 746 429 755 475 q 720 333 736 382 q 675 235 703 283 q 608 145 648 188 q 513 70 568 102 q 386 19 458 38 q 221 0 313 0 l 3 0 l 81 387 l 8 387 l 35 525 m 582 570 q 572 645 582 612 q 539 701 562 678 q 481 735 517 723 q 393 747 445 747 l 318 747 l 273 525 l 431 525 l 404 387 l 245 387 l 197 140 l 253 140 q 376 162 324 140 q 465 222 429 185 q 524 306 501 259 q 560 400 547 353 q 577 492 572 448 q 582 570 582 537 z "},"Đ":{"ha":764,"x_min":3,"x_max":761,"o":"m 35 525 l 109 525 l 180 886 l 421 886 q 675 811 589 886 q 761 583 761 735 q 758 515 761 555 q 746 429 755 475 q 720 333 736 382 q 675 235 703 283 q 608 145 648 188 q 513 70 568 102 q 386 19 458 38 q 221 0 313 0 l 3 0 l 81 387 l 8 387 l 35 525 m 582 570 q 572 645 582 612 q 539 701 562 678 q 481 735 517 723 q 393 747 445 747 l 318 747 l 273 525 l 431 525 l 404 387 l 245 387 l 197 140 l 253 140 q 376 162 324 140 q 465 222 429 185 q 524 306 501 259 q 560 400 547 353 q 577 492 572 448 q 582 570 582 537 z "},"È":{"ha":764,"x_min":0,"x_max":766,"o":"m 56 0 l 233 886 l 766 886 l 737 745 l 374 745 l 329 525 l 676 525 l 650 387 l 302 387 l 253 141 l 616 141 l 589 0 l 56 0 m 447 1133 l 591 981 l 427 981 l 224 1133 l 447 1133 m 0 886 z "},"É":{"ha":764,"x_min":0,"x_max":807,"o":"m 56 0 l 233 886 l 766 886 l 737 745 l 374 745 l 329 525 l 676 525 l 650 387 l 302 387 l 253 141 l 616 141 l 589 0 l 56 0 m 590 981 l 425 981 l 583 1133 l 807 1133 l 590 981 m 0 886 z "},"Ê":{"ha":764,"x_min":0,"x_max":766,"o":"m 56 0 l 233 886 l 766 886 l 737 745 l 374 745 l 329 525 l 676 525 l 650 387 l 302 387 l 253 141 l 616 141 l 589 0 l 56 0 m 741 981 l 599 981 l 528 1044 l 432 981 l 279 981 l 471 1133 l 610 1133 l 741 981 m 0 886 z "},"Ě":{"ha":764,"x_min":0,"x_max":770,"o":"m 56 0 l 233 886 l 766 886 l 737 745 l 374 745 l 329 525 l 676 525 l 650 387 l 302 387 l 253 141 l 616 141 l 589 0 l 56 0 m 309 1133 l 450 1133 l 521 1069 l 616 1133 l 770 1133 l 578 981 l 439 981 l 309 1133 m 0 886 z "},"Ë":{"ha":764,"x_min":0,"x_max":766,"o":"m 56 0 l 233 886 l 766 886 l 737 745 l 374 745 l 329 525 l 676 525 l 650 387 l 302 387 l 253 141 l 616 141 l 589 0 l 56 0 m 467 1059 q 458 1019 467 1037 q 437 988 450 1001 q 406 967 423 975 q 370 960 388 960 q 333 967 350 960 q 305 986 317 974 q 287 1014 294 998 q 281 1047 281 1030 q 289 1086 281 1068 q 309 1118 296 1105 q 339 1139 322 1131 q 376 1146 357 1146 q 412 1139 395 1146 q 441 1120 429 1132 q 460 1092 453 1107 q 467 1059 467 1076 m 766 1059 q 758 1019 766 1037 q 736 988 750 1001 q 706 967 723 975 q 669 960 688 960 q 633 967 650 960 q 605 986 616 974 q 587 1014 593 998 q 581 1047 581 1030 q 588 1086 581 1068 q 609 1118 596 1105 q 640 1139 623 1131 q 676 1146 657 1146 q 712 1139 695 1146 q 741 1120 728 1132 q 760 1092 753 1107 q 766 1059 766 1076 m 0 886 z "},"Ē":{"ha":764,"x_min":0,"x_max":766,"o":"m 56 0 l 233 886 l 766 886 l 737 745 l 374 745 l 329 525 l 676 525 l 650 387 l 302 387 l 253 141 l 616 141 l 589 0 l 56 0 m 314 991 l 338 1109 l 732 1109 l 708 991 l 314 991 m 0 886 z "},"Ĕ":{"ha":764,"x_min":0,"x_max":766,"o":"m 56 0 l 233 886 l 766 886 l 737 745 l 374 745 l 329 525 l 676 525 l 650 387 l 302 387 l 253 141 l 616 141 l 589 0 l 56 0 m 741 1139 q 718 1074 735 1105 q 673 1019 701 1042 q 604 981 644 995 q 513 966 564 966 q 426 981 461 966 q 370 1020 391 996 q 343 1075 350 1044 q 342 1139 336 1106 l 460 1139 q 460 1116 458 1127 q 470 1096 463 1105 q 492 1081 478 1086 q 528 1075 506 1075 q 592 1093 568 1075 q 621 1139 615 1112 l 741 1139 m 0 886 z "},"Ė":{"ha":764,"x_min":0,"x_max":766,"o":"m 56 0 l 233 886 l 766 886 l 737 745 l 374 745 l 329 525 l 676 525 l 650 387 l 302 387 l 253 141 l 616 141 l 589 0 l 56 0 m 628 1057 q 619 1015 628 1034 q 596 981 610 996 q 562 959 581 967 q 521 951 542 951 q 480 959 498 951 q 449 980 462 967 q 428 1011 435 994 q 421 1048 421 1029 q 430 1091 421 1072 q 453 1125 438 1111 q 487 1146 467 1139 q 528 1154 506 1154 q 567 1147 549 1154 q 599 1126 585 1139 q 620 1096 612 1114 q 628 1057 628 1078 m 0 886 z "},"Ę":{"ha":764,"x_min":56,"x_max":766,"o":"m 582 -261 q 531 -271 559 -267 q 482 -275 503 -275 q 411 -266 439 -275 q 367 -242 383 -257 q 344 -208 351 -227 q 338 -170 338 -189 q 343 -132 338 -151 q 361 -93 348 -113 q 396 -49 374 -72 q 453 0 418 -26 l 56 0 l 233 886 l 766 886 l 737 745 l 374 745 l 329 525 l 676 525 l 650 387 l 302 387 l 253 141 l 616 141 l 589 0 q 539 -53 559 -31 q 510 -92 520 -75 q 495 -120 499 -109 q 492 -142 492 -132 q 501 -160 492 -153 q 534 -167 510 -167 q 558 -165 544 -167 q 582 -161 572 -163 l 582 -261 z "},"Ĝ":{"ha":764,"x_min":37,"x_max":802,"o":"m 392 375 l 419 513 l 734 513 l 639 40 q 508 -2 573 12 q 366 -16 444 -16 q 228 6 288 -16 q 124 70 167 28 q 60 172 82 111 q 37 311 37 233 q 47 428 37 363 q 81 557 57 492 q 144 685 104 623 q 242 795 183 747 q 381 872 300 843 q 567 901 461 901 q 688 890 627 901 q 802 861 748 879 l 770 707 q 668 738 725 724 q 550 752 612 752 q 439 731 488 752 q 352 676 390 711 q 288 598 315 642 q 245 505 262 553 q 220 407 228 456 q 212 315 212 358 q 223 238 212 271 q 256 181 233 204 q 314 145 279 157 q 400 134 350 134 q 453 137 431 134 q 496 149 474 141 l 542 375 l 392 375 m 782 981 l 640 981 l 569 1044 l 473 981 l 321 981 l 512 1133 l 651 1133 l 782 981 m 41 886 z "},"Ğ":{"ha":764,"x_min":37,"x_max":802,"o":"m 392 375 l 419 513 l 734 513 l 639 40 q 508 -2 573 12 q 366 -16 444 -16 q 228 6 288 -16 q 124 70 167 28 q 60 172 82 111 q 37 311 37 233 q 47 428 37 363 q 81 557 57 492 q 144 685 104 623 q 242 795 183 747 q 381 872 300 843 q 567 901 461 901 q 688 890 627 901 q 802 861 748 879 l 770 707 q 668 738 725 724 q 550 752 612 752 q 439 731 488 752 q 352 676 390 711 q 288 598 315 642 q 245 505 262 553 q 220 407 228 456 q 212 315 212 358 q 223 238 212 271 q 256 181 233 204 q 314 145 279 157 q 400 134 350 134 q 453 137 431 134 q 496 149 474 141 l 542 375 l 392 375 m 782 1139 q 760 1074 777 1105 q 714 1019 743 1042 q 646 981 686 995 q 554 966 606 966 q 467 981 503 966 q 412 1020 432 996 q 385 1075 391 1044 q 383 1139 378 1106 l 501 1139 q 502 1116 499 1127 q 512 1096 504 1105 q 533 1081 519 1086 q 569 1075 547 1075 q 633 1093 610 1075 q 662 1139 656 1112 l 782 1139 m 41 886 z "},"Ġ":{"ha":764,"x_min":37,"x_max":802,"o":"m 392 375 l 419 513 l 734 513 l 639 40 q 508 -2 573 12 q 366 -16 444 -16 q 228 6 288 -16 q 124 70 167 28 q 60 172 82 111 q 37 311 37 233 q 47 428 37 363 q 81 557 57 492 q 144 685 104 623 q 242 795 183 747 q 381 872 300 843 q 567 901 461 901 q 688 890 627 901 q 802 861 748 879 l 770 707 q 668 738 725 724 q 550 752 612 752 q 439 731 488 752 q 352 676 390 711 q 288 598 315 642 q 245 505 262 553 q 220 407 228 456 q 212 315 212 358 q 223 238 212 271 q 256 181 233 204 q 314 145 279 157 q 400 134 350 134 q 453 137 431 134 q 496 149 474 141 l 542 375 l 392 375 m 669 1057 q 661 1015 669 1034 q 637 981 652 996 q 603 959 623 967 q 562 951 583 951 q 522 959 540 951 q 490 980 503 967 q 470 1011 477 994 q 463 1048 463 1029 q 471 1091 463 1072 q 494 1125 479 1111 q 528 1146 509 1139 q 569 1154 547 1154 q 608 1147 590 1154 q 640 1126 627 1139 q 662 1096 654 1114 q 669 1057 669 1078 m 41 886 z "},"Ģ":{"ha":764,"x_min":37,"x_max":802,"o":"m 392 375 l 419 513 l 734 513 l 639 40 q 508 -2 573 12 q 366 -16 444 -16 q 228 6 288 -16 q 124 70 167 28 q 60 172 82 111 q 37 311 37 233 q 47 428 37 363 q 81 557 57 492 q 144 685 104 623 q 242 795 183 747 q 381 872 300 843 q 567 901 461 901 q 688 890 627 901 q 802 861 748 879 l 770 707 q 668 738 725 724 q 550 752 612 752 q 439 731 488 752 q 352 676 390 711 q 288 598 315 642 q 245 505 262 553 q 220 407 228 456 q 212 315 212 358 q 223 238 212 271 q 256 181 233 204 q 314 145 279 157 q 400 134 350 134 q 453 137 431 134 q 496 149 474 141 l 542 375 l 392 375 m 376 -78 l 277 -278 l 143 -278 l 220 -78 l 376 -78 z "},"Ĥ":{"ha":764,"x_min":-4,"x_max":808,"o":"m 464 0 l 541 386 l 239 386 l 163 0 l -4 0 l 174 886 l 340 886 l 268 530 l 570 530 l 642 886 l 808 886 l 631 0 l 464 0 m 741 981 l 599 981 l 528 1044 l 432 981 l 279 981 l 471 1133 l 610 1133 l 741 981 m 0 886 z "},"Ħ":{"ha":764,"x_min":9,"x_max":832,"o":"m 450 0 l 524 370 l 250 370 l 176 0 l 9 0 l 134 621 l 68 621 l 96 758 l 161 758 l 187 886 l 354 886 l 328 758 l 602 758 l 628 886 l 794 886 l 768 758 l 832 758 l 804 621 l 741 621 l 616 0 l 450 0 m 551 507 l 574 621 l 300 621 l 278 507 l 551 507 z "},"Ì":{"ha":764,"x_min":0,"x_max":771,"o":"m 182 749 l 210 886 l 771 886 l 743 749 l 547 749 l 425 137 l 619 137 l 593 0 l 32 0 l 58 137 l 255 137 l 378 749 l 182 749 m 447 1133 l 591 981 l 427 981 l 224 1133 l 447 1133 m 0 886 z "},"Í":{"ha":764,"x_min":0,"x_max":807,"o":"m 182 749 l 210 886 l 771 886 l 743 749 l 547 749 l 425 137 l 619 137 l 593 0 l 32 0 l 58 137 l 255 137 l 378 749 l 182 749 m 590 981 l 425 981 l 583 1133 l 807 1133 l 590 981 m 0 886 z "},"Î":{"ha":764,"x_min":0,"x_max":771,"o":"m 182 749 l 210 886 l 771 886 l 743 749 l 547 749 l 425 137 l 619 137 l 593 0 l 32 0 l 58 137 l 255 137 l 378 749 l 182 749 m 741 981 l 599 981 l 528 1044 l 432 981 l 279 981 l 471 1133 l 610 1133 l 741 981 m 0 886 z "},"Ĩ":{"ha":764,"x_min":0,"x_max":782,"o":"m 182 749 l 210 886 l 771 886 l 743 749 l 547 749 l 425 137 l 619 137 l 593 0 l 32 0 l 58 137 l 255 137 l 378 749 l 182 749 m 782 1071 q 711 990 751 1017 q 615 964 671 964 q 550 975 576 964 q 503 999 524 985 q 463 1023 481 1012 q 422 1034 444 1034 q 376 1018 397 1034 q 335 972 356 1002 l 264 1043 q 336 1124 296 1098 q 432 1150 376 1150 q 497 1139 471 1150 q 545 1115 524 1128 q 585 1091 566 1102 q 625 1080 604 1080 q 671 1096 650 1080 q 711 1141 692 1112 l 782 1071 m 0 886 z "},"Ï":{"ha":764,"x_min":0,"x_max":771,"o":"m 182 749 l 210 886 l 771 886 l 743 749 l 547 749 l 425 137 l 619 137 l 593 0 l 32 0 l 58 137 l 255 137 l 378 749 l 182 749 m 467 1059 q 458 1019 467 1037 q 437 988 450 1001 q 406 967 423 975 q 370 960 388 960 q 333 967 350 960 q 305 986 317 974 q 287 1014 294 998 q 281 1047 281 1030 q 289 1086 281 1068 q 309 1118 296 1105 q 339 1139 322 1131 q 376 1146 357 1146 q 412 1139 395 1146 q 441 1120 429 1132 q 460 1092 453 1107 q 467 1059 467 1076 m 766 1059 q 758 1019 766 1037 q 736 988 750 1001 q 706 967 723 975 q 669 960 688 960 q 633 967 650 960 q 605 986 616 974 q 587 1014 593 998 q 581 1047 581 1030 q 588 1086 581 1068 q 609 1118 596 1105 q 640 1139 623 1131 q 676 1146 657 1146 q 712 1139 695 1146 q 741 1120 728 1132 q 760 1092 753 1107 q 766 1059 766 1076 m 0 886 z "},"Ī":{"ha":764,"x_min":0,"x_max":771,"o":"m 182 749 l 210 886 l 771 886 l 743 749 l 547 749 l 425 137 l 619 137 l 593 0 l 32 0 l 58 137 l 255 137 l 378 749 l 182 749 m 314 991 l 338 1109 l 732 1109 l 708 991 l 314 991 m 0 886 z "},"Ĭ":{"ha":764,"x_min":0,"x_max":771,"o":"m 182 749 l 210 886 l 771 886 l 743 749 l 547 749 l 425 137 l 619 137 l 593 0 l 32 0 l 58 137 l 255 137 l 378 749 l 182 749 m 741 1139 q 718 1074 735 1105 q 673 1019 701 1042 q 604 981 644 995 q 513 966 564 966 q 426 981 461 966 q 370 1020 391 996 q 343 1075 350 1044 q 342 1139 336 1106 l 460 1139 q 460 1116 458 1127 q 470 1096 463 1105 q 492 1081 478 1086 q 528 1075 506 1075 q 592 1093 568 1075 q 621 1139 615 1112 l 741 1139 m 0 886 z "},"İ":{"ha":764,"x_min":0,"x_max":771,"o":"m 182 749 l 210 886 l 771 886 l 743 749 l 547 749 l 425 137 l 619 137 l 593 0 l 32 0 l 58 137 l 255 137 l 378 749 l 182 749 m 628 1057 q 619 1015 628 1034 q 596 981 610 996 q 562 959 581 967 q 521 951 542 951 q 480 959 498 951 q 449 980 462 967 q 428 1011 435 994 q 421 1048 421 1029 q 430 1091 421 1072 q 453 1125 438 1111 q 487 1146 467 1139 q 528 1154 506 1154 q 567 1147 549 1154 q 599 1126 585 1139 q 620 1096 612 1114 q 628 1057 628 1078 m 0 886 z "},"Į":{"ha":764,"x_min":33,"x_max":771,"o":"m 586 -261 q 535 -271 563 -267 q 486 -275 507 -275 q 415 -266 443 -275 q 371 -242 387 -257 q 348 -208 355 -227 q 342 -170 342 -189 q 347 -132 342 -151 q 365 -93 352 -113 q 400 -49 378 -72 q 457 0 422 -26 l 33 0 l 60 138 l 255 138 l 378 750 l 182 750 l 210 886 l 771 886 l 743 750 l 547 750 l 425 138 l 621 138 l 593 0 q 544 -53 563 -31 q 514 -92 524 -75 q 499 -120 503 -109 q 496 -142 496 -132 q 505 -160 496 -153 q 538 -167 514 -167 q 562 -165 548 -167 q 586 -161 576 -163 l 586 -261 z "},"Ĳ":{"ha":764,"x_min":-4,"x_max":808,"o":"m 163 0 l -4 0 l 174 886 l 340 886 l 163 0 m 671 205 q 581 46 651 103 q 397 -11 510 -11 q 300 4 342 -11 q 227 47 258 19 l 317 170 q 354 141 334 154 q 408 129 375 129 q 438 134 422 129 q 467 150 453 138 q 491 180 480 161 q 509 228 503 199 l 642 886 l 808 886 l 671 205 z "},"Ĵ":{"ha":764,"x_min":0,"x_max":741,"o":"m 595 252 q 555 147 583 195 q 484 63 526 98 q 384 7 441 27 q 254 -14 326 -14 q 188 -7 220 -14 q 126 10 155 -1 q 72 37 97 21 q 28 74 47 54 l 121 192 q 148 167 133 179 q 181 146 163 155 q 220 132 199 137 q 267 126 241 126 q 314 135 289 126 q 363 162 340 143 q 405 214 387 182 q 433 294 423 246 l 525 749 l 204 749 l 232 886 l 721 886 l 595 252 m 741 981 l 599 981 l 528 1044 l 432 981 l 279 981 l 471 1133 l 610 1133 l 741 981 m 0 886 z "},"Ķ":{"ha":764,"x_min":17,"x_max":839,"o":"m 454 0 l 273 429 l 187 0 l 17 0 l 195 886 l 366 886 l 286 490 l 627 886 l 839 886 l 444 457 l 664 0 l 454 0 m 376 -78 l 277 -278 l 143 -278 l 220 -78 l 376 -78 z "},"Ĺ":{"ha":764,"x_min":0,"x_max":807,"o":"m 64 0 l 241 886 l 411 886 l 262 143 l 636 143 l 608 0 l 64 0 m 590 981 l 425 981 l 583 1133 l 807 1133 l 590 981 m 0 886 z "},"Ľ":{"ha":764,"x_min":-165,"x_max":821,"o":"m 64 0 l 241 886 l 411 886 l 262 143 l 636 143 l 608 0 l 64 0 m 701 781 l 568 781 l 660 1010 l 821 1010 l 701 781 m -165 689 z "},"Ļ":{"ha":764,"x_min":64,"x_max":636,"o":"m 64 0 l 241 886 l 411 886 l 262 143 l 636 143 l 608 0 l 64 0 m 404 -78 l 304 -278 l 171 -278 l 248 -78 l 404 -78 z "},"Ł":{"ha":764,"x_min":31,"x_max":650,"o":"m 275 143 l 650 143 l 623 0 l 77 0 l 151 374 l 31 318 l 31 456 l 181 526 l 254 886 l 423 886 l 368 611 l 618 728 l 618 590 l 338 460 l 275 143 z "},"Ŀ":{"ha":764,"x_min":38,"x_max":771,"o":"m 38 0 l 215 886 l 385 886 l 236 143 l 610 143 l 582 0 l 38 0 m 644 555 q 695 545 671 555 q 735 517 718 534 q 762 477 752 500 q 771 429 771 454 q 760 374 771 399 q 730 330 749 349 q 686 301 711 311 q 632 290 661 290 q 582 300 605 290 q 543 328 559 311 q 517 368 526 345 q 507 415 507 391 q 518 471 507 446 q 548 515 530 496 q 592 545 567 534 q 644 555 616 555 z "},"Ń":{"ha":764,"x_min":-1,"x_max":810,"o":"m 436 0 l 304 529 l 278 643 l 204 275 l 150 0 l -1 0 l 176 886 l 372 886 l 507 354 l 529 250 l 607 642 l 657 886 l 810 886 l 632 0 l 436 0 m 590 981 l 425 981 l 583 1133 l 807 1133 l 590 981 m 0 886 z "},"Ň":{"ha":764,"x_min":-1,"x_max":810,"o":"m 436 0 l 304 529 l 278 643 l 204 275 l 150 0 l -1 0 l 176 886 l 372 886 l 507 354 l 529 250 l 607 642 l 657 886 l 810 886 l 632 0 l 436 0 m 309 1133 l 450 1133 l 521 1069 l 616 1133 l 770 1133 l 578 981 l 439 981 l 309 1133 m 0 886 z "},"Ñ":{"ha":764,"x_min":-1,"x_max":810,"o":"m 436 0 l 304 529 l 278 643 l 204 275 l 150 0 l -1 0 l 176 886 l 372 886 l 507 354 l 529 250 l 607 642 l 657 886 l 810 886 l 632 0 l 436 0 m 782 1071 q 711 990 751 1017 q 615 964 671 964 q 550 975 576 964 q 503 999 524 985 q 463 1023 481 1012 q 422 1034 444 1034 q 376 1018 397 1034 q 335 972 356 1002 l 264 1043 q 336 1124 296 1098 q 432 1150 376 1150 q 497 1139 471 1150 q 545 1115 524 1128 q 585 1091 566 1102 q 625 1080 604 1080 q 671 1096 650 1080 q 711 1141 692 1112 l 782 1071 m 0 886 z "},"Ņ":{"ha":764,"x_min":-1,"x_max":810,"o":"m 436 0 l 304 529 l 278 643 l 204 275 l 150 0 l -1 0 l 176 886 l 372 886 l 507 354 l 529 250 l 607 642 l 657 886 l 810 886 l 632 0 l 436 0 m 376 -78 l 277 -278 l 143 -278 l 220 -78 l 376 -78 z "},"Ŋ":{"ha":764,"x_min":-1,"x_max":814,"o":"m 636 1 q 588 -141 618 -85 q 511 -228 557 -196 q 402 -273 465 -260 q 261 -285 340 -285 l 288 -153 q 408 -118 362 -153 q 472 0 454 -83 l 278 643 l 260 553 l 150 0 l -1 0 l 176 886 l 361 886 l 525 368 l 545 297 l 558 378 l 661 886 l 814 886 l 636 1 z "},"Ò":{"ha":764,"x_min":0,"x_max":772,"o":"m 315 -16 q 102 61 176 -16 q 28 283 28 138 q 39 423 28 351 q 75 564 51 495 q 135 694 98 633 q 222 801 172 755 q 339 874 273 847 q 485 901 404 901 q 698 825 624 901 q 772 603 772 749 q 761 463 772 535 q 726 322 749 391 q 665 192 702 253 q 578 85 629 131 q 461 12 527 39 q 315 -16 396 -16 m 339 134 q 417 153 382 134 q 482 205 453 172 q 532 281 511 237 q 569 375 554 325 q 590 480 583 426 q 597 589 597 535 q 565 712 597 673 q 461 751 533 751 q 383 733 418 751 q 318 682 347 714 q 268 605 290 649 q 232 511 246 561 q 210 406 217 460 q 203 297 203 351 q 235 174 203 213 q 339 134 267 134 m 447 1133 l 591 981 l 427 981 l 224 1133 l 447 1133 m 0 886 z "},"Ó":{"ha":764,"x_min":0,"x_max":807,"o":"m 315 -16 q 102 61 176 -16 q 28 283 28 138 q 39 423 28 351 q 75 564 51 495 q 135 694 98 633 q 222 801 172 755 q 339 874 273 847 q 485 901 404 901 q 698 825 624 901 q 772 603 772 749 q 761 463 772 535 q 726 322 749 391 q 665 192 702 253 q 578 85 629 131 q 461 12 527 39 q 315 -16 396 -16 m 339 134 q 417 153 382 134 q 482 205 453 172 q 532 281 511 237 q 569 375 554 325 q 590 480 583 426 q 597 589 597 535 q 565 712 597 673 q 461 751 533 751 q 383 733 418 751 q 318 682 347 714 q 268 605 290 649 q 232 511 246 561 q 210 406 217 460 q 203 297 203 351 q 235 174 203 213 q 339 134 267 134 m 590 981 l 425 981 l 583 1133 l 807 1133 l 590 981 m 0 886 z "},"Ô":{"ha":764,"x_min":0,"x_max":772,"o":"m 315 -16 q 102 61 176 -16 q 28 283 28 138 q 39 423 28 351 q 75 564 51 495 q 135 694 98 633 q 222 801 172 755 q 339 874 273 847 q 485 901 404 901 q 698 825 624 901 q 772 603 772 749 q 761 463 772 535 q 726 322 749 391 q 665 192 702 253 q 578 85 629 131 q 461 12 527 39 q 315 -16 396 -16 m 339 134 q 417 153 382 134 q 482 205 453 172 q 532 281 511 237 q 569 375 554 325 q 590 480 583 426 q 597 589 597 535 q 565 712 597 673 q 461 751 533 751 q 383 733 418 751 q 318 682 347 714 q 268 605 290 649 q 232 511 246 561 q 210 406 217 460 q 203 297 203 351 q 235 174 203 213 q 339 134 267 134 m 741 981 l 599 981 l 528 1044 l 432 981 l 279 981 l 471 1133 l 610 1133 l 741 981 m 0 886 z "},"Õ":{"ha":764,"x_min":0,"x_max":782,"o":"m 315 -16 q 102 61 176 -16 q 28 283 28 138 q 39 423 28 351 q 75 564 51 495 q 135 694 98 633 q 222 801 172 755 q 339 874 273 847 q 485 901 404 901 q 698 825 624 901 q 772 603 772 749 q 761 463 772 535 q 726 322 749 391 q 665 192 702 253 q 578 85 629 131 q 461 12 527 39 q 315 -16 396 -16 m 339 134 q 417 153 382 134 q 482 205 453 172 q 532 281 511 237 q 569 375 554 325 q 590 480 583 426 q 597 589 597 535 q 565 712 597 673 q 461 751 533 751 q 383 733 418 751 q 318 682 347 714 q 268 605 290 649 q 232 511 246 561 q 210 406 217 460 q 203 297 203 351 q 235 174 203 213 q 339 134 267 134 m 782 1071 q 711 990 751 1017 q 615 964 671 964 q 550 975 576 964 q 503 999 524 985 q 463 1023 481 1012 q 422 1034 444 1034 q 376 1018 397 1034 q 335 972 356 1002 l 264 1043 q 336 1124 296 1098 q 432 1150 376 1150 q 497 1139 471 1150 q 545 1115 524 1128 q 585 1091 566 1102 q 625 1080 604 1080 q 671 1096 650 1080 q 711 1141 692 1112 l 782 1071 m 0 886 z "},"Ö":{"ha":764,"x_min":0,"x_max":772,"o":"m 315 -16 q 102 61 176 -16 q 28 283 28 138 q 39 423 28 351 q 75 564 51 495 q 135 694 98 633 q 222 801 172 755 q 339 874 273 847 q 485 901 404 901 q 698 825 624 901 q 772 603 772 749 q 761 463 772 535 q 726 322 749 391 q 665 192 702 253 q 578 85 629 131 q 461 12 527 39 q 315 -16 396 -16 m 339 134 q 417 153 382 134 q 482 205 453 172 q 532 281 511 237 q 569 375 554 325 q 590 480 583 426 q 597 589 597 535 q 565 712 597 673 q 461 751 533 751 q 383 733 418 751 q 318 682 347 714 q 268 605 290 649 q 232 511 246 561 q 210 406 217 460 q 203 297 203 351 q 235 174 203 213 q 339 134 267 134 m 467 1059 q 458 1019 467 1037 q 437 988 450 1001 q 406 967 423 975 q 370 960 388 960 q 333 967 350 960 q 305 986 317 974 q 287 1014 294 998 q 281 1047 281 1030 q 289 1086 281 1068 q 309 1118 296 1105 q 339 1139 322 1131 q 376 1146 357 1146 q 412 1139 395 1146 q 441 1120 429 1132 q 460 1092 453 1107 q 467 1059 467 1076 m 766 1059 q 758 1019 766 1037 q 736 988 750 1001 q 706 967 723 975 q 669 960 688 960 q 633 967 650 960 q 605 986 616 974 q 587 1014 593 998 q 581 1047 581 1030 q 588 1086 581 1068 q 609 1118 596 1105 q 640 1139 623 1131 q 676 1146 657 1146 q 712 1139 695 1146 q 741 1120 728 1132 q 760 1092 753 1107 q 766 1059 766 1076 m 0 886 z "},"Ō":{"ha":764,"x_min":0,"x_max":772,"o":"m 315 -16 q 102 61 176 -16 q 28 283 28 138 q 39 423 28 351 q 75 564 51 495 q 135 694 98 633 q 222 801 172 755 q 339 874 273 847 q 485 901 404 901 q 698 825 624 901 q 772 603 772 749 q 761 463 772 535 q 726 322 749 391 q 665 192 702 253 q 578 85 629 131 q 461 12 527 39 q 315 -16 396 -16 m 339 134 q 417 153 382 134 q 482 205 453 172 q 532 281 511 237 q 569 375 554 325 q 590 480 583 426 q 597 589 597 535 q 565 712 597 673 q 461 751 533 751 q 383 733 418 751 q 318 682 347 714 q 268 605 290 649 q 232 511 246 561 q 210 406 217 460 q 203 297 203 351 q 235 174 203 213 q 339 134 267 134 m 314 991 l 338 1109 l 732 1109 l 708 991 l 314 991 m 0 886 z "},"Ŏ":{"ha":764,"x_min":0,"x_max":772,"o":"m 315 -16 q 102 61 176 -16 q 28 283 28 138 q 39 423 28 351 q 75 564 51 495 q 135 694 98 633 q 222 801 172 755 q 339 874 273 847 q 485 901 404 901 q 698 825 624 901 q 772 603 772 749 q 761 463 772 535 q 726 322 749 391 q 665 192 702 253 q 578 85 629 131 q 461 12 527 39 q 315 -16 396 -16 m 339 134 q 417 153 382 134 q 482 205 453 172 q 532 281 511 237 q 569 375 554 325 q 590 480 583 426 q 597 589 597 535 q 565 712 597 673 q 461 751 533 751 q 383 733 418 751 q 318 682 347 714 q 268 605 290 649 q 232 511 246 561 q 210 406 217 460 q 203 297 203 351 q 235 174 203 213 q 339 134 267 134 m 741 1139 q 718 1074 735 1105 q 673 1019 701 1042 q 604 981 644 995 q 513 966 564 966 q 426 981 461 966 q 370 1020 391 996 q 343 1075 350 1044 q 342 1139 336 1106 l 460 1139 q 460 1116 458 1127 q 470 1096 463 1105 q 492 1081 478 1086 q 528 1075 506 1075 q 592 1093 568 1075 q 621 1139 615 1112 l 741 1139 m 0 886 z "},"Ő":{"ha":764,"x_min":0,"x_max":935,"o":"m 315 -16 q 102 61 176 -16 q 28 283 28 138 q 39 423 28 351 q 75 564 51 495 q 135 694 98 633 q 222 801 172 755 q 339 874 273 847 q 485 901 404 901 q 698 825 624 901 q 772 603 772 749 q 761 463 772 535 q 726 322 749 391 q 665 192 702 253 q 578 85 629 131 q 461 12 527 39 q 315 -16 396 -16 m 339 134 q 417 153 382 134 q 482 205 453 172 q 532 281 511 237 q 569 375 554 325 q 590 480 583 426 q 597 589 597 535 q 565 712 597 673 q 461 751 533 751 q 383 733 418 751 q 318 682 347 714 q 268 605 290 649 q 232 511 246 561 q 210 406 217 460 q 203 297 203 351 q 235 174 203 213 q 339 134 267 134 m 647 1133 l 444 981 l 297 981 l 450 1133 l 647 1133 m 935 1133 l 711 981 l 559 981 l 725 1133 l 935 1133 m 0 886 z "},"Ø":{"ha":764,"x_min":25,"x_max":777,"o":"m 319 -16 q 277 -13 298 -16 q 237 -7 256 -11 l 167 -146 l 25 -146 l 123 45 q 52 142 77 82 q 28 283 28 201 q 39 423 28 351 q 73 564 50 495 q 133 694 96 633 q 219 801 169 755 q 335 874 270 847 q 481 901 399 901 q 562 893 526 901 l 635 1032 l 777 1032 l 677 840 q 748 743 724 802 q 772 603 772 684 q 761 463 772 535 q 727 322 750 391 q 667 192 703 253 q 581 85 631 131 q 465 12 530 39 q 319 -16 400 -16 m 199 297 q 201 249 199 271 q 210 210 203 227 l 490 753 q 475 755 483 755 q 457 756 467 756 q 379 737 414 756 q 314 685 343 718 q 264 607 286 652 q 228 512 242 563 q 206 406 213 460 q 199 297 199 351 m 343 130 q 421 149 386 130 q 486 202 457 169 q 536 279 515 235 q 573 374 558 323 q 594 480 587 425 q 602 589 602 535 q 599 636 602 614 q 590 675 597 657 l 310 131 q 326 130 318 130 q 343 130 334 130 z "},"Ǿ":{"ha":764,"x_min":-138,"x_max":777,"o":"m 319 -16 q 277 -13 298 -16 q 237 -7 256 -11 l 167 -146 l 25 -146 l 123 45 q 52 142 77 82 q 28 283 28 201 q 39 423 28 351 q 73 564 50 495 q 133 694 96 633 q 219 801 169 755 q 335 874 270 847 q 481 901 399 901 q 562 893 526 901 l 635 1032 l 777 1032 l 677 840 q 748 743 724 802 q 772 603 772 684 q 761 463 772 535 q 727 322 750 391 q 667 192 703 253 q 581 85 631 131 q 465 12 530 39 q 319 -16 400 -16 m 199 297 q 201 249 199 271 q 210 210 203 227 l 490 753 q 475 755 483 755 q 457 756 467 756 q 379 737 414 756 q 314 685 343 718 q 264 607 286 652 q 228 512 242 563 q 206 406 213 460 q 199 297 199 351 m 343 130 q 421 149 386 130 q 486 202 457 169 q 536 279 515 235 q 573 374 558 323 q 594 480 587 425 q 602 589 602 535 q 599 636 602 614 q 590 675 597 657 l 310 131 q 326 130 318 130 q 343 130 334 130 m 452 981 l 288 981 l 446 1133 l 669 1133 l 452 981 m -138 886 z "},"Œ":{"ha":764,"x_min":20,"x_max":854,"o":"m 436 0 q 391 -2 410 0 q 355 -6 372 -4 q 319 -10 337 -8 q 277 -12 300 -12 q 159 8 208 -12 q 79 65 111 28 q 34 157 48 103 q 20 281 20 212 q 23 354 20 311 q 36 446 27 397 q 60 548 45 496 q 98 651 75 601 q 154 746 121 701 q 229 825 186 791 q 327 879 272 859 q 449 899 381 899 q 497 897 476 899 q 537 892 519 895 q 572 888 555 890 q 608 886 589 886 l 854 886 l 827 753 l 631 753 l 585 522 l 765 522 l 739 393 l 558 393 l 507 134 l 703 134 l 676 0 l 436 0 m 475 751 q 456 756 466 755 q 427 757 447 757 q 346 729 382 757 q 283 658 310 701 q 238 562 256 615 q 208 456 219 509 q 191 356 196 403 q 186 281 186 310 q 215 166 186 203 q 304 130 243 130 q 333 132 322 130 q 351 137 344 134 l 475 751 z "},"Þ":{"ha":764,"x_min":22,"x_max":737,"o":"m 737 539 q 711 398 737 466 q 633 277 686 330 q 502 194 581 225 q 314 163 422 163 l 223 163 l 191 0 l 22 0 l 199 886 l 368 886 l 343 764 l 427 764 q 572 745 513 764 q 668 695 631 726 q 721 623 705 664 q 737 539 737 583 m 560 513 q 554 555 560 535 q 530 591 547 576 q 484 616 513 607 q 406 626 454 626 l 315 626 l 250 301 l 337 301 q 429 318 388 301 q 499 363 471 334 q 544 431 528 392 q 560 513 560 469 z "},"Ŕ":{"ha":764,"x_min":-26,"x_max":781,"o":"m 469 0 l 415 221 q 392 294 405 265 q 364 338 380 322 q 328 361 348 355 q 283 367 309 367 l 258 367 l 185 0 l 18 0 l 196 886 l 450 886 q 565 876 513 886 q 653 842 616 865 q 709 783 690 819 q 729 693 729 746 q 713 593 729 640 q 665 509 696 546 q 590 447 634 472 q 489 412 545 422 q 520 388 506 403 q 547 351 534 374 q 571 296 559 328 q 596 220 583 264 l 657 0 l 469 0 m 343 497 q 430 508 391 497 q 496 538 469 518 q 538 589 524 559 q 553 657 553 618 q 520 726 553 704 q 415 747 487 747 l 334 747 l 284 497 l 343 497 m 564 981 l 399 981 l 557 1133 l 781 1133 l 564 981 m -26 886 z "},"Ř":{"ha":764,"x_min":-26,"x_max":743,"o":"m 469 0 l 415 221 q 392 294 405 265 q 364 338 380 322 q 328 361 348 355 q 283 367 309 367 l 258 367 l 185 0 l 18 0 l 196 886 l 450 886 q 565 876 513 886 q 653 842 616 865 q 709 783 690 819 q 729 693 729 746 q 713 593 729 640 q 665 509 696 546 q 590 447 634 472 q 489 412 545 422 q 520 388 506 403 q 547 351 534 374 q 571 296 559 328 q 596 220 583 264 l 657 0 l 469 0 m 343 497 q 430 508 391 497 q 496 538 469 518 q 538 589 524 559 q 553 657 553 618 q 520 726 553 704 q 415 747 487 747 l 334 747 l 284 497 l 343 497 m 282 1133 l 424 1133 l 494 1069 l 590 1133 l 743 1133 l 551 981 l 412 981 l 282 1133 m -26 886 z "},"Ŗ":{"ha":764,"x_min":18,"x_max":729,"o":"m 469 0 l 415 221 q 392 294 405 265 q 364 338 380 322 q 328 361 348 355 q 283 367 309 367 l 258 367 l 185 0 l 18 0 l 196 886 l 450 886 q 565 876 513 886 q 653 842 616 865 q 709 783 690 819 q 729 693 729 746 q 713 593 729 640 q 665 509 696 546 q 590 447 634 472 q 489 412 545 422 q 520 388 506 403 q 547 351 534 374 q 571 296 559 328 q 596 220 583 264 l 657 0 l 469 0 m 343 497 q 430 508 391 497 q 496 538 469 518 q 538 589 524 559 q 553 657 553 618 q 520 726 553 704 q 415 747 487 747 l 334 747 l 284 497 l 343 497 m 376 -78 l 277 -278 l 143 -278 l 220 -78 l 376 -78 z "},"Ś":{"ha":764,"x_min":0,"x_max":807,"o":"m 265 -16 q 125 -6 190 -16 q 1 22 61 3 l 33 179 q 94 160 62 169 q 158 145 125 151 q 223 136 191 139 q 286 132 256 132 q 378 142 340 132 q 441 169 416 152 q 477 208 466 186 q 489 254 489 230 q 474 303 489 283 q 433 341 458 324 q 375 373 408 358 q 310 404 343 388 q 244 438 276 420 q 187 483 212 457 q 146 542 161 508 q 131 621 131 575 q 154 725 131 675 q 223 815 176 776 q 343 878 271 854 q 517 901 416 901 q 575 899 546 901 q 633 893 605 897 q 686 884 661 889 q 732 873 711 879 l 703 726 q 658 739 683 733 q 607 749 633 745 q 553 756 580 753 q 501 758 526 758 q 418 750 453 758 q 361 727 384 741 q 329 692 339 712 q 318 650 318 672 q 334 605 318 624 q 375 569 349 585 q 432 538 400 553 q 498 506 465 523 q 565 470 532 490 q 622 424 597 450 q 663 364 648 398 q 679 285 679 330 q 650 161 679 216 q 567 66 621 105 q 436 5 513 26 q 265 -16 359 -16 m 590 981 l 425 981 l 583 1133 l 807 1133 l 590 981 m 0 886 z "},"Ŝ":{"ha":764,"x_min":0,"x_max":741,"o":"m 265 -16 q 125 -6 190 -16 q 1 22 61 3 l 33 179 q 94 160 62 169 q 158 145 125 151 q 223 136 191 139 q 286 132 256 132 q 378 142 340 132 q 441 169 416 152 q 477 208 466 186 q 489 254 489 230 q 474 303 489 283 q 433 341 458 324 q 375 373 408 358 q 310 404 343 388 q 244 438 276 420 q 187 483 212 457 q 146 542 161 508 q 131 621 131 575 q 154 725 131 675 q 223 815 176 776 q 343 878 271 854 q 517 901 416 901 q 575 899 546 901 q 633 893 605 897 q 686 884 661 889 q 732 873 711 879 l 703 726 q 658 739 683 733 q 607 749 633 745 q 553 756 580 753 q 501 758 526 758 q 418 750 453 758 q 361 727 384 741 q 329 692 339 712 q 318 650 318 672 q 334 605 318 624 q 375 569 349 585 q 432 538 400 553 q 498 506 465 523 q 565 470 532 490 q 622 424 597 450 q 663 364 648 398 q 679 285 679 330 q 650 161 679 216 q 567 66 621 105 q 436 5 513 26 q 265 -16 359 -16 m 741 981 l 599 981 l 528 1044 l 432 981 l 279 981 l 471 1133 l 610 1133 l 741 981 m 0 886 z "},"Š":{"ha":764,"x_min":0,"x_max":770,"o":"m 265 -16 q 125 -6 190 -16 q 1 22 61 3 l 33 179 q 94 160 62 169 q 158 145 125 151 q 223 136 191 139 q 286 132 256 132 q 378 142 340 132 q 441 169 416 152 q 477 208 466 186 q 489 254 489 230 q 474 303 489 283 q 433 341 458 324 q 375 373 408 358 q 310 404 343 388 q 244 438 276 420 q 187 483 212 457 q 146 542 161 508 q 131 621 131 575 q 154 725 131 675 q 223 815 176 776 q 343 878 271 854 q 517 901 416 901 q 575 899 546 901 q 633 893 605 897 q 686 884 661 889 q 732 873 711 879 l 703 726 q 658 739 683 733 q 607 749 633 745 q 553 756 580 753 q 501 758 526 758 q 418 750 453 758 q 361 727 384 741 q 329 692 339 712 q 318 650 318 672 q 334 605 318 624 q 375 569 349 585 q 432 538 400 553 q 498 506 465 523 q 565 470 532 490 q 622 424 597 450 q 663 364 648 398 q 679 285 679 330 q 650 161 679 216 q 567 66 621 105 q 436 5 513 26 q 265 -16 359 -16 m 309 1133 l 450 1133 l 521 1069 l 616 1133 l 770 1133 l 578 981 l 439 981 l 309 1133 m 0 886 z "},"Ş":{"ha":764,"x_min":1,"x_max":732,"o":"m 679 285 q 658 178 679 227 q 598 92 637 130 q 503 29 559 54 q 376 -7 446 4 l 272 -200 l 150 -200 l 220 -14 q 105 -2 159 -12 q 1 22 52 7 l 33 179 q 94 160 62 169 q 158 145 125 151 q 223 136 191 139 q 286 132 256 132 q 378 142 340 132 q 441 169 416 152 q 477 208 466 186 q 489 254 489 230 q 474 303 489 283 q 433 341 458 324 q 375 373 408 358 q 310 404 343 388 q 244 438 276 420 q 187 483 212 457 q 146 542 161 508 q 131 621 131 575 q 154 725 131 675 q 223 815 176 776 q 343 878 271 854 q 517 901 416 901 q 575 899 546 901 q 633 893 605 897 q 686 884 661 889 q 732 873 711 879 l 703 726 q 658 739 683 733 q 607 749 633 745 q 553 756 580 753 q 501 758 526 758 q 418 750 453 758 q 361 727 384 741 q 329 692 339 712 q 318 650 318 672 q 334 605 318 624 q 375 569 349 585 q 432 538 400 553 q 498 506 465 523 q 565 470 532 490 q 622 424 597 450 q 663 364 648 398 q 679 285 679 330 z "},"Ș":{"ha":764,"x_min":1,"x_max":732,"o":"m 265 -16 q 125 -6 190 -16 q 1 22 61 3 l 33 179 q 94 160 62 169 q 158 145 125 151 q 223 136 191 139 q 286 132 256 132 q 378 142 340 132 q 441 169 416 152 q 477 208 466 186 q 489 254 489 230 q 474 303 489 283 q 433 341 458 324 q 375 373 408 358 q 310 404 343 388 q 244 438 276 420 q 187 483 212 457 q 146 542 161 508 q 131 621 131 575 q 154 725 131 675 q 223 815 176 776 q 343 878 271 854 q 517 901 416 901 q 575 899 546 901 q 633 893 605 897 q 686 884 661 889 q 732 873 711 879 l 703 726 q 658 739 683 733 q 607 749 633 745 q 553 756 580 753 q 501 758 526 758 q 418 750 453 758 q 361 727 384 741 q 329 692 339 712 q 318 650 318 672 q 334 605 318 624 q 375 569 349 585 q 432 538 400 553 q 498 506 465 523 q 565 470 532 490 q 622 424 597 450 q 663 364 648 398 q 679 285 679 330 q 650 161 679 216 q 567 66 621 105 q 436 5 513 26 q 265 -16 359 -16 m 376 -78 l 277 -278 l 143 -278 l 220 -78 l 376 -78 z "},"Ť":{"ha":764,"x_min":0,"x_max":819,"o":"m 547 747 l 399 0 l 228 0 l 376 747 l 134 747 l 163 886 l 819 886 l 790 747 l 547 747 m 309 1133 l 450 1133 l 521 1069 l 616 1133 l 770 1133 l 578 981 l 439 981 l 309 1133 m 0 886 z "},"Ț":{"ha":764,"x_min":134,"x_max":819,"o":"m 547 747 l 399 0 l 228 0 l 376 747 l 134 747 l 163 886 l 819 886 l 790 747 l 547 747 m 376 -78 l 277 -278 l 143 -278 l 220 -78 l 376 -78 z "},"Ŧ":{"ha":764,"x_min":134,"x_max":819,"o":"m 547 747 l 498 500 l 660 500 l 632 363 l 471 363 l 399 0 l 228 0 l 300 363 l 139 363 l 167 500 l 328 500 l 376 747 l 134 747 l 163 886 l 819 886 l 790 747 l 547 747 z "},"Ù":{"ha":764,"x_min":0,"x_max":814,"o":"m 698 313 q 648 166 681 228 q 568 63 616 104 q 456 4 519 23 q 314 -16 392 -16 q 190 1 242 -16 q 103 47 137 17 q 55 121 70 78 q 41 216 41 163 q 52 313 41 261 l 167 886 l 334 886 l 218 309 q 210 235 210 267 q 217 186 210 207 q 238 151 224 165 q 277 129 252 136 q 335 122 301 122 q 408 133 376 122 q 464 166 440 143 q 505 226 488 190 q 531 315 521 262 l 646 886 l 814 886 l 698 313 m 447 1133 l 591 981 l 427 981 l 224 1133 l 447 1133 m 0 886 z "},"Ú":{"ha":764,"x_min":0,"x_max":814,"o":"m 698 313 q 648 166 681 228 q 568 63 616 104 q 456 4 519 23 q 314 -16 392 -16 q 190 1 242 -16 q 103 47 137 17 q 55 121 70 78 q 41 216 41 163 q 52 313 41 261 l 167 886 l 334 886 l 218 309 q 210 235 210 267 q 217 186 210 207 q 238 151 224 165 q 277 129 252 136 q 335 122 301 122 q 408 133 376 122 q 464 166 440 143 q 505 226 488 190 q 531 315 521 262 l 646 886 l 814 886 l 698 313 m 590 981 l 425 981 l 583 1133 l 807 1133 l 590 981 m 0 886 z "},"Û":{"ha":764,"x_min":0,"x_max":814,"o":"m 698 313 q 648 166 681 228 q 568 63 616 104 q 456 4 519 23 q 314 -16 392 -16 q 190 1 242 -16 q 103 47 137 17 q 55 121 70 78 q 41 216 41 163 q 52 313 41 261 l 167 886 l 334 886 l 218 309 q 210 235 210 267 q 217 186 210 207 q 238 151 224 165 q 277 129 252 136 q 335 122 301 122 q 408 133 376 122 q 464 166 440 143 q 505 226 488 190 q 531 315 521 262 l 646 886 l 814 886 l 698 313 m 741 981 l 599 981 l 528 1044 l 432 981 l 279 981 l 471 1133 l 610 1133 l 741 981 m 0 886 z "},"Ũ":{"ha":764,"x_min":0,"x_max":814,"o":"m 698 313 q 648 166 681 228 q 568 63 616 104 q 456 4 519 23 q 314 -16 392 -16 q 190 1 242 -16 q 103 47 137 17 q 55 121 70 78 q 41 216 41 163 q 52 313 41 261 l 167 886 l 334 886 l 218 309 q 210 235 210 267 q 217 186 210 207 q 238 151 224 165 q 277 129 252 136 q 335 122 301 122 q 408 133 376 122 q 464 166 440 143 q 505 226 488 190 q 531 315 521 262 l 646 886 l 814 886 l 698 313 m 782 1071 q 711 990 751 1017 q 615 964 671 964 q 550 975 576 964 q 503 999 524 985 q 463 1023 481 1012 q 422 1034 444 1034 q 376 1018 397 1034 q 335 972 356 1002 l 264 1043 q 336 1124 296 1098 q 432 1150 376 1150 q 497 1139 471 1150 q 545 1115 524 1128 q 585 1091 566 1102 q 625 1080 604 1080 q 671 1096 650 1080 q 711 1141 692 1112 l 782 1071 m 0 886 z "},"Ü":{"ha":764,"x_min":0,"x_max":814,"o":"m 698 313 q 648 166 681 228 q 568 63 616 104 q 456 4 519 23 q 314 -16 392 -16 q 190 1 242 -16 q 103 47 137 17 q 55 121 70 78 q 41 216 41 163 q 52 313 41 261 l 167 886 l 334 886 l 218 309 q 210 235 210 267 q 217 186 210 207 q 238 151 224 165 q 277 129 252 136 q 335 122 301 122 q 408 133 376 122 q 464 166 440 143 q 505 226 488 190 q 531 315 521 262 l 646 886 l 814 886 l 698 313 m 467 1059 q 458 1019 467 1037 q 437 988 450 1001 q 406 967 423 975 q 370 960 388 960 q 333 967 350 960 q 305 986 317 974 q 287 1014 294 998 q 281 1047 281 1030 q 289 1086 281 1068 q 309 1118 296 1105 q 339 1139 322 1131 q 376 1146 357 1146 q 412 1139 395 1146 q 441 1120 429 1132 q 460 1092 453 1107 q 467 1059 467 1076 m 766 1059 q 758 1019 766 1037 q 736 988 750 1001 q 706 967 723 975 q 669 960 688 960 q 633 967 650 960 q 605 986 616 974 q 587 1014 593 998 q 581 1047 581 1030 q 588 1086 581 1068 q 609 1118 596 1105 q 640 1139 623 1131 q 676 1146 657 1146 q 712 1139 695 1146 q 741 1120 728 1132 q 760 1092 753 1107 q 766 1059 766 1076 m 0 886 z "},"Ū":{"ha":764,"x_min":0,"x_max":814,"o":"m 698 313 q 648 166 681 228 q 568 63 616 104 q 456 4 519 23 q 314 -16 392 -16 q 190 1 242 -16 q 103 47 137 17 q 55 121 70 78 q 41 216 41 163 q 52 313 41 261 l 167 886 l 334 886 l 218 309 q 210 235 210 267 q 217 186 210 207 q 238 151 224 165 q 277 129 252 136 q 335 122 301 122 q 408 133 376 122 q 464 166 440 143 q 505 226 488 190 q 531 315 521 262 l 646 886 l 814 886 l 698 313 m 314 991 l 338 1109 l 732 1109 l 708 991 l 314 991 m 0 886 z "},"Ŭ":{"ha":764,"x_min":0,"x_max":814,"o":"m 698 313 q 648 166 681 228 q 568 63 616 104 q 456 4 519 23 q 314 -16 392 -16 q 190 1 242 -16 q 103 47 137 17 q 55 121 70 78 q 41 216 41 163 q 52 313 41 261 l 167 886 l 334 886 l 218 309 q 210 235 210 267 q 217 186 210 207 q 238 151 224 165 q 277 129 252 136 q 335 122 301 122 q 408 133 376 122 q 464 166 440 143 q 505 226 488 190 q 531 315 521 262 l 646 886 l 814 886 l 698 313 m 741 1139 q 718 1074 735 1105 q 673 1019 701 1042 q 604 981 644 995 q 513 966 564 966 q 426 981 461 966 q 370 1020 391 996 q 343 1075 350 1044 q 342 1139 336 1106 l 460 1139 q 460 1116 458 1127 q 470 1096 463 1105 q 492 1081 478 1086 q 528 1075 506 1075 q 592 1093 568 1075 q 621 1139 615 1112 l 741 1139 m 0 886 z "},"Ů":{"ha":764,"x_min":0,"x_max":814,"o":"m 698 313 q 648 166 681 228 q 568 63 616 104 q 456 4 519 23 q 314 -16 392 -16 q 190 1 242 -16 q 103 47 137 17 q 55 121 70 78 q 41 216 41 163 q 52 313 41 261 l 167 886 l 334 886 l 218 309 q 210 235 210 267 q 217 186 210 207 q 238 151 224 165 q 277 129 252 136 q 335 122 301 122 q 408 133 376 122 q 464 166 440 143 q 505 226 488 190 q 531 315 521 262 l 646 886 l 814 886 l 698 313 m 672 1054 q 660 992 672 1019 q 626 945 647 964 q 576 917 604 926 q 515 907 547 907 q 456 916 484 907 q 409 942 429 925 q 378 983 389 959 q 367 1035 367 1006 q 380 1098 367 1071 q 415 1143 393 1125 q 466 1171 437 1162 q 526 1181 494 1181 q 586 1172 559 1181 q 632 1146 612 1162 q 662 1106 651 1129 q 672 1054 672 1082 m 578 1048 q 563 1085 578 1071 q 522 1099 548 1099 q 479 1084 496 1099 q 461 1040 461 1069 q 477 1002 461 1017 q 518 988 492 988 q 561 1003 544 988 q 578 1048 578 1019 m 0 886 z "},"Ű":{"ha":764,"x_min":0,"x_max":935,"o":"m 698 313 q 648 166 681 228 q 568 63 616 104 q 456 4 519 23 q 314 -16 392 -16 q 190 1 242 -16 q 103 47 137 17 q 55 121 70 78 q 41 216 41 163 q 52 313 41 261 l 167 886 l 334 886 l 218 309 q 210 235 210 267 q 217 186 210 207 q 238 151 224 165 q 277 129 252 136 q 335 122 301 122 q 408 133 376 122 q 464 166 440 143 q 505 226 488 190 q 531 315 521 262 l 646 886 l 814 886 l 698 313 m 647 1133 l 444 981 l 297 981 l 450 1133 l 647 1133 m 935 1133 l 711 981 l 559 981 l 725 1133 l 935 1133 m 0 886 z "},"Ų":{"ha":764,"x_min":41,"x_max":812,"o":"m 438 -261 q 387 -271 415 -267 q 338 -275 359 -275 q 267 -266 295 -275 q 223 -242 239 -257 q 200 -208 207 -227 q 194 -170 194 -189 q 198 -135 194 -153 q 213 -98 202 -117 q 242 -59 223 -79 q 290 -15 260 -38 q 177 5 224 -12 q 99 53 130 23 q 55 124 69 83 q 41 216 41 165 q 52 313 41 261 l 165 886 l 334 886 l 218 309 q 210 235 210 267 q 217 186 210 207 q 239 151 224 165 q 278 129 254 136 q 336 122 301 122 q 408 133 378 122 q 463 166 438 143 q 504 227 488 190 q 532 315 521 263 l 646 886 l 812 886 l 701 326 q 606 113 674 194 q 446 1 538 33 q 395 -53 414 -31 q 366 -92 376 -75 q 352 -120 355 -109 q 348 -142 348 -132 q 357 -160 348 -153 q 389 -167 366 -167 q 414 -165 400 -167 q 438 -161 428 -163 l 438 -261 z "},"Ẁ":{"ha":764,"x_min":0,"x_max":850,"o":"m 623 0 l 435 0 l 406 273 l 396 385 l 339 271 l 195 0 l 3 0 l 131 886 l 278 886 l 183 318 l 158 163 l 227 301 l 387 616 l 493 616 l 528 282 l 538 164 l 568 302 l 708 886 l 850 886 l 623 0 m 447 1133 l 591 981 l 427 981 l 224 1133 l 447 1133 m 0 886 z "},"Ẃ":{"ha":764,"x_min":0,"x_max":850,"o":"m 623 0 l 435 0 l 406 273 l 396 385 l 339 271 l 195 0 l 3 0 l 131 886 l 278 886 l 183 318 l 158 163 l 227 301 l 387 616 l 493 616 l 528 282 l 538 164 l 568 302 l 708 886 l 850 886 l 623 0 m 590 981 l 425 981 l 583 1133 l 807 1133 l 590 981 m 0 886 z "},"Ŵ":{"ha":764,"x_min":0,"x_max":850,"o":"m 623 0 l 435 0 l 406 273 l 396 385 l 339 271 l 195 0 l 3 0 l 131 886 l 278 886 l 183 318 l 158 163 l 227 301 l 387 616 l 493 616 l 528 282 l 538 164 l 568 302 l 708 886 l 850 886 l 623 0 m 741 981 l 599 981 l 528 1044 l 432 981 l 279 981 l 471 1133 l 610 1133 l 741 981 m 0 886 z "},"Ẅ":{"ha":764,"x_min":0,"x_max":850,"o":"m 623 0 l 435 0 l 406 273 l 396 385 l 339 271 l 195 0 l 3 0 l 131 886 l 278 886 l 183 318 l 158 163 l 227 301 l 387 616 l 493 616 l 528 282 l 538 164 l 568 302 l 708 886 l 850 886 l 623 0 m 467 1059 q 458 1019 467 1037 q 437 988 450 1001 q 406 967 423 975 q 370 960 388 960 q 333 967 350 960 q 305 986 317 974 q 287 1014 294 998 q 281 1047 281 1030 q 289 1086 281 1068 q 309 1118 296 1105 q 339 1139 322 1131 q 376 1146 357 1146 q 412 1139 395 1146 q 441 1120 429 1132 q 460 1092 453 1107 q 467 1059 467 1076 m 766 1059 q 758 1019 766 1037 q 736 988 750 1001 q 706 967 723 975 q 669 960 688 960 q 633 967 650 960 q 605 986 616 974 q 587 1014 593 998 q 581 1047 581 1030 q 588 1086 581 1068 q 609 1118 596 1105 q 640 1139 623 1131 q 676 1146 657 1146 q 712 1139 695 1146 q 741 1120 728 1132 q 760 1092 753 1107 q 766 1059 766 1076 m 0 886 z "},"Ỳ":{"ha":764,"x_min":0,"x_max":864,"o":"m 457 314 l 395 0 l 226 0 l 289 313 l 115 886 l 290 886 l 367 612 l 400 478 l 489 616 l 676 886 l 864 886 l 457 314 m 447 1133 l 591 981 l 427 981 l 224 1133 l 447 1133 m 0 886 z "},"Ý":{"ha":764,"x_min":0,"x_max":864,"o":"m 457 314 l 395 0 l 226 0 l 289 313 l 115 886 l 290 886 l 367 612 l 400 478 l 489 616 l 676 886 l 864 886 l 457 314 m 590 981 l 425 981 l 583 1133 l 807 1133 l 590 981 m 0 886 z "},"Ŷ":{"ha":764,"x_min":0,"x_max":864,"o":"m 457 314 l 395 0 l 226 0 l 289 313 l 115 886 l 290 886 l 367 612 l 400 478 l 489 616 l 676 886 l 864 886 l 457 314 m 741 981 l 599 981 l 528 1044 l 432 981 l 279 981 l 471 1133 l 610 1133 l 741 981 m 0 886 z "},"Ÿ":{"ha":764,"x_min":0,"x_max":864,"o":"m 457 314 l 395 0 l 226 0 l 289 313 l 115 886 l 290 886 l 367 612 l 400 478 l 489 616 l 676 886 l 864 886 l 457 314 m 467 1059 q 458 1019 467 1037 q 437 988 450 1001 q 406 967 423 975 q 370 960 388 960 q 333 967 350 960 q 305 986 317 974 q 287 1014 294 998 q 281 1047 281 1030 q 289 1086 281 1068 q 309 1118 296 1105 q 339 1139 322 1131 q 376 1146 357 1146 q 412 1139 395 1146 q 441 1120 429 1132 q 460 1092 453 1107 q 467 1059 467 1076 m 766 1059 q 758 1019 766 1037 q 736 988 750 1001 q 706 967 723 975 q 669 960 688 960 q 633 967 650 960 q 605 986 616 974 q 587 1014 593 998 q 581 1047 581 1030 q 588 1086 581 1068 q 609 1118 596 1105 q 640 1139 623 1131 q 676 1146 657 1146 q 712 1139 695 1146 q 741 1120 728 1132 q 760 1092 753 1107 q 766 1059 766 1076 m 0 886 z "},"Ź":{"ha":764,"x_min":0,"x_max":807,"o":"m 1 0 l 26 127 l 546 735 l 161 735 l 192 886 l 796 886 l 768 753 l 248 151 l 654 151 l 624 0 l 1 0 m 590 981 l 425 981 l 583 1133 l 807 1133 l 590 981 m 0 886 z "},"Ž":{"ha":764,"x_min":0,"x_max":796,"o":"m 1 0 l 26 127 l 546 735 l 161 735 l 192 886 l 796 886 l 768 753 l 248 151 l 654 151 l 624 0 l 1 0 m 309 1133 l 450 1133 l 521 1069 l 616 1133 l 770 1133 l 578 981 l 439 981 l 309 1133 m 0 886 z "},"Ż":{"ha":764,"x_min":0,"x_max":796,"o":"m 1 0 l 26 127 l 546 735 l 161 735 l 192 886 l 796 886 l 768 753 l 248 151 l 654 151 l 624 0 l 1 0 m 628 1057 q 619 1015 628 1034 q 596 981 610 996 q 562 959 581 967 q 521 951 542 951 q 480 959 498 951 q 449 980 462 967 q 428 1011 435 994 q 421 1048 421 1029 q 430 1091 421 1072 q 453 1125 438 1111 q 487 1146 467 1139 q 528 1154 506 1154 q 567 1147 549 1154 q 599 1126 585 1139 q 620 1096 612 1114 q 628 1057 628 1078 m 0 886 z "},"a":{"ha":764,"x_min":41,"x_max":737,"o":"m 245 -16 q 93 47 145 -16 q 41 224 41 109 q 69 415 41 328 q 150 567 97 503 q 280 666 203 630 q 454 701 357 701 q 548 694 507 701 q 619 677 589 687 l 737 703 l 661 321 q 653 274 657 299 q 645 213 649 250 q 635 125 640 177 q 623 0 629 74 l 488 0 l 493 125 q 454 76 477 101 q 398 31 430 52 q 329 -2 367 11 q 245 -16 290 -16 m 543 557 q 499 568 522 564 q 450 572 476 572 q 366 555 402 572 q 303 510 330 538 q 259 446 277 481 q 232 372 242 410 q 218 299 222 335 q 214 235 214 262 q 232 152 214 180 q 289 123 251 123 q 355 149 320 123 q 422 213 391 174 q 478 300 454 252 q 511 395 503 349 l 543 557 z "},"b":{"ha":764,"x_min":31,"x_max":718,"o":"m 718 465 q 690 273 718 361 q 610 122 663 186 q 480 23 557 59 q 306 -12 404 -12 q 224 -9 262 -12 q 154 -1 187 -6 q 90 12 120 5 q 31 29 60 20 l 216 958 l 382 958 l 335 722 l 286 579 q 330 631 304 608 q 385 671 355 654 q 447 695 414 687 q 514 704 480 704 q 666 642 614 704 q 718 465 718 579 m 546 454 q 527 537 546 509 q 471 566 509 566 q 427 554 450 566 q 381 523 404 543 q 337 476 359 503 q 298 419 316 449 q 267 357 280 389 q 249 294 254 325 l 216 132 q 261 121 238 125 q 310 117 284 117 q 394 134 358 117 q 457 179 431 151 q 500 243 483 208 q 528 317 517 279 q 542 390 538 354 q 546 454 546 426 z "},"c":{"ha":764,"x_min":81,"x_max":713,"o":"m 602 31 q 546 12 575 20 q 489 -1 517 4 q 434 -9 460 -7 q 386 -12 408 -12 q 158 55 236 -12 q 81 253 81 122 q 93 361 81 307 q 128 466 104 416 q 187 558 151 515 q 271 632 223 601 q 379 682 319 664 q 511 700 439 700 q 625 691 574 700 q 713 671 676 682 l 682 515 q 597 546 644 534 q 505 558 549 558 q 421 544 458 558 q 358 507 385 530 q 312 454 330 484 q 281 393 293 425 q 265 329 270 361 q 260 272 260 298 q 300 168 260 203 q 415 132 341 132 q 510 143 463 132 q 602 172 557 155 l 602 31 z "},"d":{"ha":764,"x_min":41,"x_max":789,"o":"m 454 701 q 519 698 491 701 q 570 690 547 694 l 624 958 l 789 958 l 661 321 q 653 274 657 299 q 645 213 649 250 q 635 125 640 177 q 623 0 629 74 l 488 0 l 493 125 q 454 76 477 101 q 398 31 430 52 q 329 -2 367 11 q 245 -16 290 -16 q 93 47 145 -16 q 41 224 41 109 q 69 415 41 328 q 150 567 97 503 q 280 666 203 630 q 454 701 357 701 m 214 235 q 232 152 214 180 q 289 123 251 123 q 355 149 320 123 q 422 213 391 174 q 478 300 454 252 q 511 395 503 349 l 543 557 q 504 567 528 562 q 450 572 479 572 q 366 555 402 572 q 303 510 330 538 q 259 446 277 481 q 232 372 242 410 q 218 299 222 335 q 214 235 214 262 z "},"e":{"ha":764,"x_min":60,"x_max":708,"o":"m 225 288 q 223 269 224 279 q 222 245 222 258 q 261 150 222 184 q 376 117 300 117 q 486 124 427 117 q 597 147 544 132 l 597 18 q 475 -6 541 3 q 345 -16 410 -16 q 225 1 278 -16 q 136 49 172 17 q 79 129 99 81 q 60 241 60 177 q 89 419 60 335 q 170 567 117 503 q 296 667 222 630 q 461 704 370 704 q 566 690 520 704 q 643 652 612 677 q 691 594 675 628 q 708 518 708 559 q 687 424 708 466 q 619 351 666 381 q 497 304 572 321 q 315 288 422 288 l 225 288 m 323 406 q 438 414 395 406 q 506 435 481 422 q 538 466 530 448 q 546 503 546 484 q 518 559 546 538 q 444 581 490 581 q 376 567 407 581 q 320 529 345 553 q 279 473 296 505 q 252 406 262 441 l 323 406 z "},"f":{"ha":764,"x_min":-81,"x_max":833,"o":"m -53 -150 q 17 -154 -20 -154 q 73 -146 46 -154 q 121 -122 99 -138 q 159 -79 143 -105 q 182 -16 174 -52 l 277 461 l 77 461 l 103 590 l 302 590 l 322 689 q 436 902 351 833 q 669 971 522 971 q 756 965 712 971 q 833 951 800 960 l 807 822 q 734 836 772 831 q 657 840 696 840 q 543 801 582 840 q 489 689 504 761 l 469 590 l 741 590 l 714 461 l 443 461 l 350 -8 q 304 -138 335 -85 q 229 -224 273 -191 q 129 -271 185 -256 q 7 -285 73 -285 q -42 -284 -22 -285 q -81 -281 -63 -283 l -53 -150 m 0 689 z "},"g":{"ha":764,"x_min":20,"x_max":737,"o":"m 596 -5 q 557 -126 583 -74 q 490 -213 531 -178 q 390 -267 448 -249 q 254 -285 332 -285 q 134 -272 197 -285 q 20 -233 71 -260 l 84 -113 q 168 -145 127 -134 q 257 -155 208 -155 q 374 -120 332 -155 q 432 -14 415 -84 q 451 47 439 17 q 473 110 462 78 q 430 57 455 81 q 375 18 405 34 q 313 -7 346 1 q 245 -16 279 -16 q 93 47 145 -16 q 41 224 41 109 q 69 415 41 328 q 150 567 97 503 q 280 666 203 630 q 454 701 357 701 q 548 694 507 701 q 619 677 589 687 l 737 703 l 596 -5 m 543 557 q 499 568 522 564 q 450 572 476 572 q 366 555 402 572 q 303 510 330 538 q 259 446 277 481 q 232 372 242 410 q 218 299 222 335 q 214 235 214 262 q 232 152 214 180 q 289 123 251 123 q 355 149 320 123 q 422 213 391 174 q 478 300 454 252 q 511 395 503 349 l 543 557 z "},"h":{"ha":764,"x_min":25,"x_max":704,"o":"m 436 0 l 526 449 q 523 535 537 505 q 475 566 509 566 q 429 554 453 566 q 382 523 406 543 q 338 476 359 503 q 298 419 316 449 q 268 357 281 389 q 249 294 254 325 l 191 0 l 25 0 l 216 958 l 382 958 l 335 722 l 286 579 q 330 631 304 608 q 385 671 355 654 q 449 695 415 687 q 518 704 483 704 q 611 686 573 704 q 671 634 650 668 q 699 553 693 601 q 692 446 704 505 l 602 0 l 436 0 z "},"i":{"ha":764,"x_min":111,"x_max":654,"o":"m 444 231 q 445 140 432 166 q 496 114 458 114 q 566 128 528 114 q 654 165 605 142 l 654 39 q 560 0 610 15 q 457 -16 509 -16 q 296 44 341 -16 q 277 236 250 104 l 321 458 q 320 549 334 523 q 269 575 307 575 q 199 561 238 575 q 111 524 160 547 l 111 650 q 205 690 155 675 q 309 705 256 705 q 469 644 424 705 q 489 453 515 584 l 444 231 m 581 884 q 571 838 581 859 q 546 802 562 817 q 509 778 530 787 q 465 770 488 770 q 422 778 441 770 q 388 801 402 787 q 366 833 374 814 q 358 872 358 852 q 368 917 358 897 q 393 953 377 938 q 431 977 410 968 q 475 986 452 986 q 518 978 499 986 q 552 955 538 969 q 573 922 566 941 q 581 884 581 904 z "},"j":{"ha":764,"x_min":-69,"x_max":707,"o":"m 163 649 q 294 690 229 675 q 432 705 360 705 q 600 644 555 705 q 619 453 646 583 l 533 18 q 483 -123 517 -65 q 400 -217 448 -180 q 292 -269 353 -253 q 163 -285 232 -285 q -69 -200 16 -285 l 32 -86 q 59 -112 44 -100 q 92 -133 74 -123 q 133 -147 111 -142 q 180 -153 155 -153 q 302 -109 256 -153 q 364 18 347 -66 l 456 476 q 451 550 465 526 q 392 575 437 575 q 342 571 368 575 q 289 561 317 568 q 230 543 260 553 q 163 519 199 532 l 163 649 m 707 884 q 697 838 707 859 q 672 802 688 817 q 635 778 656 787 q 591 770 614 770 q 548 778 568 770 q 514 801 528 787 q 493 833 500 814 q 485 872 485 852 q 494 917 485 897 q 520 953 504 938 q 557 977 536 968 q 602 986 578 986 q 645 978 625 986 q 678 955 664 969 q 699 922 692 941 q 707 884 707 904 z "},"k":{"ha":764,"x_min":25,"x_max":724,"o":"m 471 0 l 275 347 q 408 372 355 357 q 495 406 462 387 q 543 449 528 425 q 557 501 557 473 q 535 557 557 541 q 476 574 514 574 q 408 550 444 574 q 340 490 372 526 q 286 408 309 453 q 254 322 262 363 l 191 0 l 25 0 l 216 958 l 382 958 l 335 722 l 286 579 q 329 631 304 608 q 384 671 354 654 q 447 695 413 687 q 515 704 480 704 q 599 692 561 704 q 665 657 637 680 q 708 602 693 635 q 724 525 724 568 q 707 433 724 474 q 660 361 690 392 q 588 308 630 330 q 493 273 545 286 l 671 0 l 471 0 z "},"l":{"ha":764,"x_min":128,"x_max":623,"o":"m 317 211 q 324 138 307 162 q 386 114 341 114 q 492 129 435 114 q 623 172 548 144 l 623 43 q 486 -1 554 14 q 346 -16 418 -16 q 175 46 222 -16 q 154 237 128 107 l 298 958 l 465 958 l 317 211 z "},"m":{"ha":764,"x_min":-29,"x_max":773,"o":"m 511 0 l 606 469 q 615 547 615 521 q 596 572 614 572 q 560 552 581 572 q 517 500 538 532 q 478 428 496 468 q 453 350 460 389 l 383 0 l 241 0 l 336 469 q 346 547 346 521 q 326 572 345 572 q 292 552 313 572 q 250 500 271 532 q 210 428 228 468 q 183 350 191 389 l 114 0 l -29 0 l 45 368 q 53 414 49 389 q 61 476 56 439 q 71 564 65 512 q 83 689 76 615 l 205 689 l 201 578 l 215 597 q 293 677 256 652 q 372 703 330 703 q 447 679 422 703 q 472 612 472 655 q 471 596 472 605 q 468 578 470 587 q 510 632 490 608 q 550 671 530 655 q 592 695 570 687 q 637 703 613 703 q 743 648 712 703 q 750 481 773 593 l 654 0 l 511 0 z "},"n":{"ha":764,"x_min":29,"x_max":704,"o":"m 436 0 l 526 449 q 523 535 537 505 q 475 566 509 566 q 431 554 454 566 q 386 523 408 543 q 341 476 363 503 q 302 419 320 449 q 272 357 285 389 q 253 294 259 325 l 195 0 l 29 0 l 103 368 q 111 414 107 389 q 119 476 115 439 q 129 564 123 512 q 142 689 134 615 l 277 689 l 271 564 q 310 612 286 587 q 366 657 334 637 q 436 691 397 677 q 518 704 474 704 q 611 686 573 704 q 671 634 650 668 q 699 553 693 601 q 692 446 704 505 l 602 0 l 436 0 z "},"o":{"ha":764,"x_min":37,"x_max":726,"o":"m 317 -16 q 201 0 252 -16 q 113 48 149 16 q 57 130 77 81 q 37 245 37 179 q 50 360 37 304 q 86 468 62 417 q 145 563 111 519 q 226 637 180 606 q 327 686 272 669 q 447 704 382 704 q 563 688 511 704 q 651 640 614 672 q 707 558 687 608 q 726 443 726 509 q 714 328 726 385 q 677 220 701 271 q 618 126 654 170 q 538 51 583 83 q 437 2 492 20 q 317 -16 381 -16 m 553 427 q 520 527 553 494 q 425 561 487 561 q 359 547 389 561 q 305 510 329 533 q 263 456 281 487 q 234 393 245 426 q 217 326 222 359 q 211 262 211 292 q 244 161 211 195 q 339 127 277 127 q 406 141 376 127 q 459 179 435 155 q 500 232 483 202 q 530 296 518 262 q 547 363 541 329 q 553 427 553 397 z "},"p":{"ha":764,"x_min":-25,"x_max":722,"o":"m 310 -12 q 244 -9 273 -12 q 195 -1 216 -5 l 192 -14 l 140 -269 l -25 -269 l 103 368 q 111 414 107 389 q 119 476 115 439 q 129 564 123 512 q 142 689 134 615 l 277 689 l 271 564 q 310 612 286 587 q 366 657 334 637 q 436 691 397 677 q 518 704 474 704 q 671 642 619 704 q 722 465 722 579 q 694 273 722 361 q 614 122 667 186 q 484 23 561 59 q 310 -12 408 -12 m 550 454 q 531 537 550 509 q 475 566 513 566 q 431 554 454 566 q 386 523 408 543 q 341 476 363 503 q 302 419 320 449 q 272 357 285 389 q 253 294 259 325 l 221 132 q 260 122 235 127 q 314 117 285 117 q 398 134 362 117 q 461 179 435 151 q 505 243 488 208 q 532 317 522 279 q 546 390 542 354 q 550 454 550 426 z "},"q":{"ha":764,"x_min":41,"x_max":737,"o":"m 378 -269 l 425 -33 l 473 110 q 430 57 455 81 q 375 18 405 34 q 313 -7 346 1 q 245 -16 279 -16 q 93 47 145 -16 q 41 224 41 109 q 69 415 41 328 q 150 567 97 503 q 280 666 203 630 q 454 701 357 701 q 548 694 507 701 q 619 677 589 687 l 737 703 l 543 -269 l 378 -269 m 543 557 q 499 568 522 564 q 450 572 476 572 q 366 555 402 572 q 303 510 330 538 q 259 446 277 481 q 232 372 242 410 q 218 299 222 335 q 214 235 214 262 q 232 152 214 180 q 289 123 251 123 q 355 149 320 123 q 422 213 391 174 q 478 300 454 252 q 511 395 503 349 l 543 557 z "},"r":{"ha":764,"x_min":53,"x_max":735,"o":"m 553 421 q 563 490 562 463 q 556 535 564 518 q 533 558 549 551 q 496 566 518 566 q 429 539 463 566 q 364 468 395 512 q 309 368 333 425 q 272 252 284 311 l 222 0 l 53 0 l 126 368 q 134 414 130 389 q 143 476 138 439 q 153 564 147 512 q 165 689 158 615 l 300 689 l 293 554 q 331 608 308 581 q 385 656 355 635 q 454 691 416 677 q 538 704 492 704 q 638 685 597 704 q 703 630 680 666 q 731 542 726 594 q 720 421 735 489 l 553 421 z "},"s":{"ha":764,"x_min":53,"x_max":667,"o":"m 53 160 q 185 123 122 136 q 302 111 248 111 q 418 136 382 111 q 454 200 454 161 q 449 225 454 214 q 429 246 444 236 q 390 267 415 256 q 326 289 366 277 q 184 368 231 318 q 136 493 136 417 q 158 575 136 536 q 221 642 180 613 q 325 687 263 671 q 467 704 387 704 q 583 698 534 704 q 667 685 631 692 l 667 550 q 551 576 601 570 q 460 582 500 582 q 389 575 418 582 q 344 555 361 568 q 320 528 327 542 q 313 501 313 514 q 319 473 313 486 q 340 450 325 461 q 382 429 356 439 q 449 406 409 418 q 587 331 541 376 q 633 218 633 286 q 608 114 633 158 q 537 41 582 71 q 432 -2 492 12 q 302 -16 372 -16 q 163 -8 224 -16 q 53 11 102 -1 l 53 160 z "},"t":{"ha":764,"x_min":83,"x_max":730,"o":"m 608 9 q 515 -9 562 -2 q 428 -16 469 -16 q 312 -1 360 -16 q 235 47 263 14 q 199 132 206 79 q 207 258 192 184 l 268 560 l 83 560 l 109 689 l 293 689 l 329 865 l 507 909 l 463 689 l 730 689 l 705 560 l 437 560 l 376 257 q 370 196 370 222 q 380 154 370 170 q 410 129 390 138 q 461 119 429 119 q 536 126 499 119 q 608 141 574 133 l 608 9 z "},"u":{"ha":764,"x_min":60,"x_max":734,"o":"m 328 689 l 237 240 q 241 154 227 184 q 289 123 254 123 q 355 149 320 123 q 422 213 391 174 q 478 300 454 252 q 511 395 503 349 l 570 689 l 734 689 l 661 321 q 653 274 657 299 q 645 213 649 250 q 635 125 640 177 q 623 0 629 74 l 488 0 l 493 125 q 454 76 477 101 q 398 31 430 52 q 329 -2 367 11 q 245 -16 290 -16 q 152 3 191 -16 q 92 55 114 21 q 65 136 70 88 q 72 243 60 184 l 163 689 l 328 689 z "},"v":{"ha":764,"x_min":83,"x_max":749,"o":"m 749 689 q 707 492 738 589 q 630 306 677 395 q 520 139 583 217 q 383 0 458 61 l 220 0 l 83 689 l 256 689 l 351 165 q 437 268 399 211 q 503 392 475 326 q 549 534 531 459 q 572 689 566 608 l 749 689 z "},"w":{"ha":764,"x_min":33,"x_max":794,"o":"m 794 689 q 769 498 788 596 q 719 309 751 401 q 643 138 688 218 q 539 0 598 58 l 408 0 l 378 218 l 371 294 l 334 216 l 220 0 l 33 0 l 74 689 l 228 689 l 200 300 l 191 193 l 237 289 l 349 498 l 475 498 l 507 290 l 519 192 q 572 300 550 240 q 608 427 593 361 q 630 559 622 492 q 640 689 637 627 l 794 689 z "},"x":{"ha":764,"x_min":-47,"x_max":799,"o":"m 475 0 l 364 232 l 160 0 l -47 0 l 281 347 l 104 689 l 298 689 l 408 463 l 606 689 l 799 689 l 493 349 l 673 0 l 475 0 z "},"y":{"ha":764,"x_min":-78,"x_max":749,"o":"m 749 689 q 735 603 743 645 q 714 518 727 561 q 683 431 701 475 q 637 336 664 386 q 576 230 611 286 q 496 109 541 174 q 388 -37 437 25 q 295 -142 338 -98 q 214 -213 252 -185 q 140 -257 176 -241 q 70 -279 104 -273 q 0 -285 35 -285 q -44 -283 -25 -285 q -78 -279 -63 -281 l -78 -139 q -37 -144 -58 -142 q 5 -146 -16 -146 q 58 -139 34 -146 q 107 -115 82 -132 q 159 -70 132 -98 q 220 0 186 -42 l 83 689 l 256 689 l 353 157 q 425 268 393 217 q 479 363 456 319 q 519 448 503 408 q 546 527 535 488 q 563 606 556 566 q 572 689 569 646 l 749 689 z "},"z":{"ha":764,"x_min":32,"x_max":725,"o":"m 32 0 l 56 117 l 472 547 l 150 547 l 178 689 l 725 689 l 701 571 l 294 146 l 623 146 l 593 0 l 32 0 z "},"à":{"ha":764,"x_min":0,"x_max":737,"o":"m 245 -16 q 93 47 145 -16 q 41 224 41 109 q 69 415 41 328 q 150 567 97 503 q 280 666 203 630 q 454 701 357 701 q 548 694 507 701 q 619 677 589 687 l 737 703 l 661 321 q 653 274 657 299 q 645 213 649 250 q 635 125 640 177 q 623 0 629 74 l 488 0 l 493 125 q 454 76 477 101 q 398 31 430 52 q 329 -2 367 11 q 245 -16 290 -16 m 543 557 q 499 568 522 564 q 450 572 476 572 q 366 555 402 572 q 303 510 330 538 q 259 446 277 481 q 232 372 242 410 q 218 299 222 335 q 214 235 214 262 q 232 152 214 180 q 289 123 251 123 q 355 149 320 123 q 422 213 391 174 q 478 300 454 252 q 511 395 503 349 l 543 557 m 379 958 l 550 781 l 385 781 l 155 958 l 379 958 m 0 689 z "},"á":{"ha":764,"x_min":0,"x_max":793,"o":"m 245 -16 q 93 47 145 -16 q 41 224 41 109 q 69 415 41 328 q 150 567 97 503 q 280 666 203 630 q 454 701 357 701 q 548 694 507 701 q 619 677 589 687 l 737 703 l 661 321 q 653 274 657 299 q 645 213 649 250 q 635 125 640 177 q 623 0 629 74 l 488 0 l 493 125 q 454 76 477 101 q 398 31 430 52 q 329 -2 367 11 q 245 -16 290 -16 m 543 557 q 499 568 522 564 q 450 572 476 572 q 366 555 402 572 q 303 510 330 538 q 259 446 277 481 q 232 372 242 410 q 218 299 222 335 q 214 235 214 262 q 232 152 214 180 q 289 123 251 123 q 355 149 320 123 q 422 213 391 174 q 478 300 454 252 q 511 395 503 349 l 543 557 m 550 781 l 385 781 l 570 958 l 793 958 l 550 781 m 0 689 z "},"â":{"ha":764,"x_min":0,"x_max":737,"o":"m 245 -16 q 93 47 145 -16 q 41 224 41 109 q 69 415 41 328 q 150 567 97 503 q 280 666 203 630 q 454 701 357 701 q 548 694 507 701 q 619 677 589 687 l 737 703 l 661 321 q 653 274 657 299 q 645 213 649 250 q 635 125 640 177 q 623 0 629 74 l 488 0 l 493 125 q 454 76 477 101 q 398 31 430 52 q 329 -2 367 11 q 245 -16 290 -16 m 543 557 q 499 568 522 564 q 450 572 476 572 q 366 555 402 572 q 303 510 330 538 q 259 446 277 481 q 232 372 242 410 q 218 299 222 335 q 214 235 214 262 q 232 152 214 180 q 289 123 251 123 q 355 149 320 123 q 422 213 391 174 q 478 300 454 252 q 511 395 503 349 l 543 557 m 568 958 l 699 781 l 558 781 l 492 864 l 392 781 l 240 781 l 443 958 l 568 958 m 0 689 z "},"ã":{"ha":764,"x_min":0,"x_max":746,"o":"m 245 -16 q 93 47 145 -16 q 41 224 41 109 q 69 415 41 328 q 150 567 97 503 q 280 666 203 630 q 454 701 357 701 q 548 694 507 701 q 619 677 589 687 l 737 703 l 661 321 q 653 274 657 299 q 645 213 649 250 q 635 125 640 177 q 623 0 629 74 l 488 0 l 493 125 q 454 76 477 101 q 398 31 430 52 q 329 -2 367 11 q 245 -16 290 -16 m 543 557 q 499 568 522 564 q 450 572 476 572 q 366 555 402 572 q 303 510 330 538 q 259 446 277 481 q 232 372 242 410 q 218 299 222 335 q 214 235 214 262 q 232 152 214 180 q 289 123 251 123 q 355 149 320 123 q 422 213 391 174 q 478 300 454 252 q 511 395 503 349 l 543 557 m 746 885 q 675 804 716 830 q 579 778 635 778 q 514 789 541 778 q 466 815 487 801 q 426 841 445 829 q 386 852 408 852 q 339 837 361 852 q 297 791 318 821 l 228 865 q 395 972 286 972 q 460 960 433 972 q 507 935 486 949 q 547 909 528 921 q 587 897 566 897 q 634 913 612 897 q 676 958 655 929 l 746 885 m 0 689 z "},"ä":{"ha":764,"x_min":0,"x_max":737,"o":"m 245 -16 q 93 47 145 -16 q 41 224 41 109 q 69 415 41 328 q 150 567 97 503 q 280 666 203 630 q 454 701 357 701 q 548 694 507 701 q 619 677 589 687 l 737 703 l 661 321 q 653 274 657 299 q 645 213 649 250 q 635 125 640 177 q 623 0 629 74 l 488 0 l 493 125 q 454 76 477 101 q 398 31 430 52 q 329 -2 367 11 q 245 -16 290 -16 m 543 557 q 499 568 522 564 q 450 572 476 572 q 366 555 402 572 q 303 510 330 538 q 259 446 277 481 q 232 372 242 410 q 218 299 222 335 q 214 235 214 262 q 232 152 214 180 q 289 123 251 123 q 355 149 320 123 q 422 213 391 174 q 478 300 454 252 q 511 395 503 349 l 543 557 m 439 882 q 431 843 439 861 q 410 811 423 825 q 378 791 396 798 q 342 783 361 783 q 306 790 322 783 q 278 810 290 798 q 260 838 267 822 q 253 871 253 854 q 261 910 253 892 q 282 942 269 928 q 313 962 296 955 q 350 970 330 970 q 386 962 369 970 q 414 943 402 955 q 432 915 425 930 q 439 882 439 899 m 722 882 q 714 843 722 861 q 693 811 706 825 q 662 791 680 798 q 625 783 644 783 q 589 790 606 783 q 562 810 573 798 q 543 838 550 822 q 536 871 536 854 q 544 910 536 892 q 566 942 552 928 q 596 962 579 955 q 633 970 614 970 q 669 962 652 970 q 697 943 686 955 q 715 915 709 930 q 722 882 722 899 m 0 689 z "},"ā":{"ha":764,"x_min":0,"x_max":737,"o":"m 245 -16 q 93 47 145 -16 q 41 224 41 109 q 69 415 41 328 q 150 567 97 503 q 280 666 203 630 q 454 701 357 701 q 548 694 507 701 q 619 677 589 687 l 737 703 l 661 321 q 653 274 657 299 q 645 213 649 250 q 635 125 640 177 q 623 0 629 74 l 488 0 l 493 125 q 454 76 477 101 q 398 31 430 52 q 329 -2 367 11 q 245 -16 290 -16 m 543 557 q 499 568 522 564 q 450 572 476 572 q 366 555 402 572 q 303 510 330 538 q 259 446 277 481 q 232 372 242 410 q 218 299 222 335 q 214 235 214 262 q 232 152 214 180 q 289 123 251 123 q 355 149 320 123 q 422 213 391 174 q 478 300 454 252 q 511 395 503 349 l 543 557 m 288 817 l 311 935 l 689 935 l 665 817 l 288 817 m 0 689 z "},"ă":{"ha":764,"x_min":0,"x_max":737,"o":"m 245 -16 q 93 47 145 -16 q 41 224 41 109 q 69 415 41 328 q 150 567 97 503 q 280 666 203 630 q 454 701 357 701 q 548 694 507 701 q 619 677 589 687 l 737 703 l 661 321 q 653 274 657 299 q 645 213 649 250 q 635 125 640 177 q 623 0 629 74 l 488 0 l 493 125 q 454 76 477 101 q 398 31 430 52 q 329 -2 367 11 q 245 -16 290 -16 m 543 557 q 499 568 522 564 q 450 572 476 572 q 366 555 402 572 q 303 510 330 538 q 259 446 277 481 q 232 372 242 410 q 218 299 222 335 q 214 235 214 262 q 232 152 214 180 q 289 123 251 123 q 355 149 320 123 q 422 213 391 174 q 478 300 454 252 q 511 395 503 349 l 543 557 m 700 958 q 675 885 694 920 q 627 826 656 851 q 559 786 597 800 q 473 771 520 771 q 393 786 427 771 q 339 827 359 801 q 311 886 318 852 q 310 958 304 920 l 432 958 q 431 930 429 943 q 441 907 434 917 q 460 891 448 897 q 489 885 473 885 q 544 904 519 885 q 576 958 569 922 l 700 958 m 0 689 z "},"å":{"ha":764,"x_min":0,"x_max":737,"o":"m 245 -16 q 93 47 145 -16 q 41 224 41 109 q 69 415 41 328 q 150 567 97 503 q 280 666 203 630 q 454 701 357 701 q 548 694 507 701 q 619 677 589 687 l 737 703 l 661 321 q 653 274 657 299 q 645 213 649 250 q 635 125 640 177 q 623 0 629 74 l 488 0 l 493 125 q 454 76 477 101 q 398 31 430 52 q 329 -2 367 11 q 245 -16 290 -16 m 543 557 q 499 568 522 564 q 450 572 476 572 q 366 555 402 572 q 303 510 330 538 q 259 446 277 481 q 232 372 242 410 q 218 299 222 335 q 214 235 214 262 q 232 152 214 180 q 289 123 251 123 q 355 149 320 123 q 422 213 391 174 q 478 300 454 252 q 511 395 503 349 l 543 557 m 653 908 q 639 841 653 871 q 602 789 625 811 q 549 755 579 768 q 485 743 518 743 q 423 755 452 743 q 373 786 394 766 q 340 832 352 806 q 328 889 328 859 q 342 957 328 926 q 380 1008 356 987 q 434 1041 404 1029 q 498 1053 465 1053 q 561 1041 532 1053 q 610 1010 589 1030 q 642 965 630 991 q 653 908 653 939 m 554 898 q 539 943 556 925 q 494 962 522 962 q 448 943 467 962 q 427 898 429 925 q 431 873 426 884 q 444 852 435 861 q 464 839 452 844 q 489 834 475 834 q 534 852 516 834 q 554 898 553 871 m 0 689 z "},"ǻ":{"ha":764,"x_min":0,"x_max":814,"o":"m 245 -16 q 93 47 145 -16 q 41 224 41 109 q 69 415 41 328 q 150 567 97 503 q 280 666 203 630 q 454 701 357 701 q 548 694 507 701 q 619 677 589 687 l 737 703 l 661 321 q 653 274 657 299 q 645 213 649 250 q 635 125 640 177 q 623 0 629 74 l 488 0 l 493 125 q 454 76 477 101 q 398 31 430 52 q 329 -2 367 11 q 245 -16 290 -16 m 543 557 q 499 568 522 564 q 450 572 476 572 q 366 555 402 572 q 303 510 330 538 q 259 446 277 481 q 232 372 242 410 q 218 299 222 335 q 214 235 214 262 q 232 152 214 180 q 289 123 251 123 q 355 149 320 123 q 422 213 391 174 q 478 300 454 252 q 511 395 503 349 l 543 557 m 653 908 q 639 841 653 871 q 602 789 625 811 q 549 755 579 768 q 485 743 518 743 q 423 755 452 743 q 373 786 394 766 q 340 832 352 806 q 328 889 328 859 q 342 957 328 926 q 380 1008 356 987 q 434 1041 404 1029 q 498 1053 465 1053 q 561 1041 532 1053 q 610 1010 589 1030 q 642 965 630 991 q 653 908 653 939 m 554 898 q 539 943 556 925 q 494 962 522 962 q 448 943 467 962 q 427 898 429 925 q 431 873 426 884 q 444 852 435 861 q 464 839 452 844 q 489 834 475 834 q 534 852 516 834 q 554 898 553 871 m 0 689 m 597 1089 l 432 1089 l 590 1242 l 814 1242 l 597 1089 m 7 995 z "},"ą":{"ha":764,"x_min":41,"x_max":737,"o":"m 615 -261 q 564 -271 592 -267 q 515 -275 536 -275 q 444 -266 472 -275 q 400 -242 416 -257 q 377 -208 384 -227 q 371 -170 371 -189 q 376 -132 371 -151 q 394 -93 381 -113 q 429 -49 407 -72 q 488 0 452 -26 l 493 125 q 454 76 477 101 q 398 31 430 52 q 329 -2 367 11 q 245 -16 290 -16 q 93 47 145 -16 q 41 224 41 109 q 69 415 41 328 q 150 567 97 503 q 280 666 203 630 q 454 701 357 701 q 548 694 507 701 q 619 677 589 687 l 737 703 l 661 321 q 653 274 657 299 q 645 213 649 250 q 635 125 640 177 q 623 0 629 74 q 573 -53 592 -31 q 543 -92 553 -75 q 529 -120 532 -109 q 525 -142 525 -132 q 534 -160 525 -153 q 567 -167 543 -167 q 591 -165 577 -167 q 615 -161 605 -163 l 615 -261 m 543 557 q 499 568 522 564 q 450 572 476 572 q 366 555 402 572 q 303 510 330 538 q 259 446 277 481 q 232 372 242 410 q 218 299 222 335 q 214 235 214 262 q 232 152 214 180 q 289 123 251 123 q 355 149 320 123 q 422 213 391 174 q 478 300 454 252 q 511 395 503 349 l 543 557 z "},"æ":{"ha":764,"x_min":-22,"x_max":782,"o":"m 290 704 q 391 684 351 704 q 450 633 431 665 q 521 684 481 664 q 614 704 561 704 q 695 690 663 704 q 746 653 727 676 q 774 600 766 629 q 782 538 782 570 q 760 443 782 485 q 696 370 737 400 q 599 325 656 340 q 473 309 543 309 l 435 309 q 427 233 427 267 q 452 139 427 172 q 524 106 477 106 q 591 114 557 106 q 667 139 625 122 l 667 20 q 626 6 648 13 q 580 -5 604 0 q 531 -13 556 -9 q 481 -16 506 -16 q 418 -8 445 -16 q 371 14 391 -1 q 339 48 352 28 q 319 93 327 68 q 288 50 307 70 q 247 16 270 31 q 199 -7 224 1 q 144 -16 173 -16 q 21 25 64 -16 q -22 150 -22 66 q -18 205 -22 176 q -2 264 -14 235 q 30 320 9 294 q 81 368 50 347 q 155 400 112 388 q 257 412 199 412 l 328 412 l 338 463 q 341 487 340 475 q 343 510 343 499 q 326 564 343 543 q 264 585 309 585 q 191 572 233 585 q 104 538 149 559 l 104 661 q 195 692 146 680 q 290 704 244 704 m 244 309 q 186 296 210 309 q 148 263 162 283 q 127 217 133 243 q 121 165 121 191 q 131 121 119 137 q 168 106 143 106 q 208 118 188 106 q 247 152 229 130 q 278 204 264 174 q 298 269 292 234 l 307 309 l 244 309 m 589 585 q 513 540 548 585 q 457 412 479 495 l 488 412 q 558 420 529 412 q 605 443 587 429 q 632 478 623 458 q 640 525 640 499 q 589 585 640 585 z "},"ǽ":{"ha":764,"x_min":-22,"x_max":793,"o":"m 290 704 q 391 684 351 704 q 450 633 431 665 q 521 684 481 664 q 614 704 561 704 q 695 690 663 704 q 746 653 727 676 q 774 600 766 629 q 782 538 782 570 q 760 443 782 485 q 696 370 737 400 q 599 325 656 340 q 473 309 543 309 l 435 309 q 427 233 427 267 q 452 139 427 172 q 524 106 477 106 q 591 114 557 106 q 667 139 625 122 l 667 20 q 626 6 648 13 q 580 -5 604 0 q 531 -13 556 -9 q 481 -16 506 -16 q 418 -8 445 -16 q 371 14 391 -1 q 339 48 352 28 q 319 93 327 68 q 288 50 307 70 q 247 16 270 31 q 199 -7 224 1 q 144 -16 173 -16 q 21 25 64 -16 q -22 150 -22 66 q -18 205 -22 176 q -2 264 -14 235 q 30 320 9 294 q 81 368 50 347 q 155 400 112 388 q 257 412 199 412 l 328 412 l 338 463 q 341 487 340 475 q 343 510 343 499 q 326 564 343 543 q 264 585 309 585 q 191 572 233 585 q 104 538 149 559 l 104 661 q 195 692 146 680 q 290 704 244 704 m 244 309 q 186 296 210 309 q 148 263 162 283 q 127 217 133 243 q 121 165 121 191 q 131 121 119 137 q 168 106 143 106 q 208 118 188 106 q 247 152 229 130 q 278 204 264 174 q 298 269 292 234 l 307 309 l 244 309 m 589 585 q 513 540 548 585 q 457 412 479 495 l 488 412 q 558 420 529 412 q 605 443 587 429 q 632 478 623 458 q 640 525 640 499 q 589 585 640 585 m 550 781 l 385 781 l 570 958 l 793 958 l 550 781 m 0 689 z "},"ć":{"ha":764,"x_min":28,"x_max":821,"o":"m 602 31 q 546 12 575 20 q 489 -1 517 4 q 434 -9 460 -7 q 386 -12 408 -12 q 158 55 236 -12 q 81 253 81 122 q 93 361 81 307 q 128 466 104 416 q 187 558 151 515 q 271 632 223 601 q 379 682 319 664 q 511 700 439 700 q 625 691 574 700 q 713 671 676 682 l 682 515 q 597 546 644 534 q 505 558 549 558 q 421 544 458 558 q 358 507 385 530 q 312 454 330 484 q 281 393 293 425 q 265 329 270 361 q 260 272 260 298 q 300 168 260 203 q 415 132 341 132 q 510 143 463 132 q 602 172 557 155 l 602 31 m 578 781 l 412 781 l 597 958 l 821 958 l 578 781 m 28 689 z "},"ĉ":{"ha":764,"x_min":28,"x_max":726,"o":"m 602 31 q 546 12 575 20 q 489 -1 517 4 q 434 -9 460 -7 q 386 -12 408 -12 q 158 55 236 -12 q 81 253 81 122 q 93 361 81 307 q 128 466 104 416 q 187 558 151 515 q 271 632 223 601 q 379 682 319 664 q 511 700 439 700 q 625 691 574 700 q 713 671 676 682 l 682 515 q 597 546 644 534 q 505 558 549 558 q 421 544 458 558 q 358 507 385 530 q 312 454 330 484 q 281 393 293 425 q 265 329 270 361 q 260 272 260 298 q 300 168 260 203 q 415 132 341 132 q 510 143 463 132 q 602 172 557 155 l 602 31 m 596 958 l 726 781 l 586 781 l 519 864 l 420 781 l 268 781 l 471 958 l 596 958 m 28 689 z "},"č":{"ha":764,"x_min":28,"x_max":761,"o":"m 602 31 q 546 12 575 20 q 489 -1 517 4 q 434 -9 460 -7 q 386 -12 408 -12 q 158 55 236 -12 q 81 253 81 122 q 93 361 81 307 q 128 466 104 416 q 187 558 151 515 q 271 632 223 601 q 379 682 319 664 q 511 700 439 700 q 625 691 574 700 q 713 671 676 682 l 682 515 q 597 546 644 534 q 505 558 549 558 q 421 544 458 558 q 358 507 385 530 q 312 454 330 484 q 281 393 293 425 q 265 329 270 361 q 260 272 260 298 q 300 168 260 203 q 415 132 341 132 q 510 143 463 132 q 602 172 557 155 l 602 31 m 433 781 l 303 958 l 443 958 l 510 875 l 610 958 l 761 958 l 558 781 l 433 781 m 28 689 z "},"ċ":{"ha":764,"x_min":28,"x_max":713,"o":"m 602 31 q 546 12 575 20 q 489 -1 517 4 q 434 -9 460 -7 q 386 -12 408 -12 q 158 55 236 -12 q 81 253 81 122 q 93 361 81 307 q 128 466 104 416 q 187 558 151 515 q 271 632 223 601 q 379 682 319 664 q 511 700 439 700 q 625 691 574 700 q 713 671 676 682 l 682 515 q 597 546 644 534 q 505 558 549 558 q 421 544 458 558 q 358 507 385 530 q 312 454 330 484 q 281 393 293 425 q 265 329 270 361 q 260 272 260 298 q 300 168 260 203 q 415 132 341 132 q 510 143 463 132 q 602 172 557 155 l 602 31 m 623 884 q 613 840 623 860 q 589 805 604 820 q 553 782 574 790 q 510 774 533 774 q 470 782 488 774 q 438 804 451 790 q 417 835 425 817 q 410 872 410 852 q 418 916 410 896 q 443 951 427 937 q 478 974 458 966 q 519 982 498 982 q 560 974 541 982 q 593 952 579 966 q 615 921 607 939 q 623 884 623 903 m 28 689 z "},"ç":{"ha":764,"x_min":81,"x_max":713,"o":"m 602 31 q 510 3 557 13 q 421 -10 463 -7 l 319 -200 l 197 -200 l 272 0 q 129 86 177 22 q 81 253 81 150 q 93 361 81 307 q 128 466 104 416 q 187 558 151 515 q 271 632 223 601 q 379 682 319 664 q 511 700 439 700 q 625 691 574 700 q 713 671 676 682 l 682 515 q 597 546 644 534 q 505 558 549 558 q 421 544 458 558 q 358 507 385 530 q 312 454 330 484 q 281 393 293 425 q 265 329 270 361 q 260 272 260 298 q 300 168 260 203 q 415 132 341 132 q 510 143 463 132 q 602 172 557 155 l 602 31 z "},"ď":{"ha":764,"x_min":7,"x_max":1000,"o":"m 420 701 q 484 698 456 701 q 535 690 512 694 l 589 958 l 754 958 l 627 321 q 618 274 623 299 q 610 213 614 250 q 600 125 606 177 q 588 0 595 74 l 453 0 l 458 125 q 419 76 443 101 q 364 31 395 52 q 294 -2 332 11 q 211 -16 256 -16 q 59 47 111 -16 q 7 224 7 109 q 35 415 7 328 q 115 567 62 503 q 245 666 168 630 q 420 701 322 701 m 179 235 q 198 152 179 180 q 254 123 216 123 q 321 149 286 123 q 388 213 356 174 q 444 300 420 252 q 477 395 468 349 l 509 557 q 469 567 494 562 q 416 572 445 572 q 331 555 368 572 q 269 510 295 538 q 225 446 242 481 q 197 372 208 410 q 183 299 187 335 q 179 235 179 262 m 880 781 l 747 781 l 839 1010 l 1000 1010 l 880 781 m 14 689 z "},"ð":{"ha":764,"x_min":39,"x_max":747,"o":"m 607 802 q 683 619 659 703 q 707 454 707 534 q 700 359 707 411 q 675 256 692 308 q 628 154 658 203 q 554 67 599 105 q 446 7 509 30 q 301 -16 384 -16 q 103 48 168 -16 q 39 229 39 113 q 46 318 39 268 q 72 421 54 368 q 119 524 90 473 q 195 613 149 574 q 302 677 240 653 q 447 701 365 701 l 465 701 q 450 734 458 718 q 432 766 441 750 l 229 725 l 229 847 l 366 875 l 309 958 l 513 958 l 543 911 l 747 953 l 747 831 l 607 802 m 530 435 q 514 561 530 496 q 477 568 497 566 q 439 571 458 571 q 364 555 397 571 q 306 514 331 540 q 263 455 281 488 q 234 386 245 422 q 217 316 222 351 q 212 252 212 281 q 241 156 212 186 q 330 126 271 126 q 416 153 379 126 q 479 222 454 179 q 517 321 505 266 q 530 435 530 377 z "},"đ":{"ha":764,"x_min":41,"x_max":863,"o":"m 454 701 q 519 698 491 701 q 570 690 547 694 l 585 765 l 399 765 l 424 886 l 608 886 l 624 958 l 789 958 l 774 886 l 863 886 l 838 765 l 750 765 l 661 321 q 653 274 657 299 q 645 213 649 250 q 635 125 640 177 q 623 0 629 74 l 488 0 l 493 125 q 454 76 477 101 q 398 31 430 52 q 329 -2 367 11 q 245 -16 290 -16 q 93 47 145 -16 q 41 224 41 109 q 69 415 41 328 q 150 567 97 503 q 280 666 203 630 q 454 701 357 701 m 214 235 q 232 152 214 180 q 289 123 251 123 q 355 149 320 123 q 422 213 391 174 q 478 300 454 252 q 511 395 503 349 l 543 557 q 504 567 528 562 q 450 572 479 572 q 366 555 402 572 q 303 510 330 538 q 259 446 277 481 q 232 372 242 410 q 218 299 222 335 q 214 235 214 262 z "},"è":{"ha":764,"x_min":0,"x_max":708,"o":"m 225 288 q 223 269 224 279 q 222 245 222 258 q 261 150 222 184 q 376 117 300 117 q 486 124 427 117 q 597 147 544 132 l 597 18 q 475 -6 541 3 q 345 -16 410 -16 q 225 1 278 -16 q 136 49 172 17 q 79 129 99 81 q 60 241 60 177 q 89 419 60 335 q 170 567 117 503 q 296 667 222 630 q 461 704 370 704 q 566 690 520 704 q 643 652 612 677 q 691 594 675 628 q 708 518 708 559 q 687 424 708 466 q 619 351 666 381 q 497 304 572 321 q 315 288 422 288 l 225 288 m 323 406 q 438 414 395 406 q 506 435 481 422 q 538 466 530 448 q 546 503 546 484 q 518 559 546 538 q 444 581 490 581 q 376 567 407 581 q 320 529 345 553 q 279 473 296 505 q 252 406 262 441 l 323 406 m 379 958 l 550 781 l 385 781 l 155 958 l 379 958 m 0 689 z "},"é":{"ha":764,"x_min":0,"x_max":793,"o":"m 225 288 q 223 269 224 279 q 222 245 222 258 q 261 150 222 184 q 376 117 300 117 q 486 124 427 117 q 597 147 544 132 l 597 18 q 475 -6 541 3 q 345 -16 410 -16 q 225 1 278 -16 q 136 49 172 17 q 79 129 99 81 q 60 241 60 177 q 89 419 60 335 q 170 567 117 503 q 296 667 222 630 q 461 704 370 704 q 566 690 520 704 q 643 652 612 677 q 691 594 675 628 q 708 518 708 559 q 687 424 708 466 q 619 351 666 381 q 497 304 572 321 q 315 288 422 288 l 225 288 m 323 406 q 438 414 395 406 q 506 435 481 422 q 538 466 530 448 q 546 503 546 484 q 518 559 546 538 q 444 581 490 581 q 376 567 407 581 q 320 529 345 553 q 279 473 296 505 q 252 406 262 441 l 323 406 m 550 781 l 385 781 l 570 958 l 793 958 l 550 781 m 0 689 z "},"ê":{"ha":764,"x_min":0,"x_max":708,"o":"m 225 288 q 223 269 224 279 q 222 245 222 258 q 261 150 222 184 q 376 117 300 117 q 486 124 427 117 q 597 147 544 132 l 597 18 q 475 -6 541 3 q 345 -16 410 -16 q 225 1 278 -16 q 136 49 172 17 q 79 129 99 81 q 60 241 60 177 q 89 419 60 335 q 170 567 117 503 q 296 667 222 630 q 461 704 370 704 q 566 690 520 704 q 643 652 612 677 q 691 594 675 628 q 708 518 708 559 q 687 424 708 466 q 619 351 666 381 q 497 304 572 321 q 315 288 422 288 l 225 288 m 323 406 q 438 414 395 406 q 506 435 481 422 q 538 466 530 448 q 546 503 546 484 q 518 559 546 538 q 444 581 490 581 q 376 567 407 581 q 320 529 345 553 q 279 473 296 505 q 252 406 262 441 l 323 406 m 568 958 l 699 781 l 558 781 l 492 864 l 392 781 l 240 781 l 443 958 l 568 958 m 0 689 z "},"ě":{"ha":764,"x_min":0,"x_max":733,"o":"m 225 288 q 223 269 224 279 q 222 245 222 258 q 261 150 222 184 q 376 117 300 117 q 486 124 427 117 q 597 147 544 132 l 597 18 q 475 -6 541 3 q 345 -16 410 -16 q 225 1 278 -16 q 136 49 172 17 q 79 129 99 81 q 60 241 60 177 q 89 419 60 335 q 170 567 117 503 q 296 667 222 630 q 461 704 370 704 q 566 690 520 704 q 643 652 612 677 q 691 594 675 628 q 708 518 708 559 q 687 424 708 466 q 619 351 666 381 q 497 304 572 321 q 315 288 422 288 l 225 288 m 323 406 q 438 414 395 406 q 506 435 481 422 q 538 466 530 448 q 546 503 546 484 q 518 559 546 538 q 444 581 490 581 q 376 567 407 581 q 320 529 345 553 q 279 473 296 505 q 252 406 262 441 l 323 406 m 406 781 l 275 958 l 415 958 l 482 875 l 582 958 l 733 958 l 530 781 l 406 781 m 0 689 z "},"ë":{"ha":764,"x_min":0,"x_max":722,"o":"m 225 288 q 223 269 224 279 q 222 245 222 258 q 261 150 222 184 q 376 117 300 117 q 486 124 427 117 q 597 147 544 132 l 597 18 q 475 -6 541 3 q 345 -16 410 -16 q 225 1 278 -16 q 136 49 172 17 q 79 129 99 81 q 60 241 60 177 q 89 419 60 335 q 170 567 117 503 q 296 667 222 630 q 461 704 370 704 q 566 690 520 704 q 643 652 612 677 q 691 594 675 628 q 708 518 708 559 q 687 424 708 466 q 619 351 666 381 q 497 304 572 321 q 315 288 422 288 l 225 288 m 323 406 q 438 414 395 406 q 506 435 481 422 q 538 466 530 448 q 546 503 546 484 q 518 559 546 538 q 444 581 490 581 q 376 567 407 581 q 320 529 345 553 q 279 473 296 505 q 252 406 262 441 l 323 406 m 439 882 q 431 843 439 861 q 410 811 423 825 q 378 791 396 798 q 342 783 361 783 q 306 790 322 783 q 278 810 290 798 q 260 838 267 822 q 253 871 253 854 q 261 910 253 892 q 282 942 269 928 q 313 962 296 955 q 350 970 330 970 q 386 962 369 970 q 414 943 402 955 q 432 915 425 930 q 439 882 439 899 m 722 882 q 714 843 722 861 q 693 811 706 825 q 662 791 680 798 q 625 783 644 783 q 589 790 606 783 q 562 810 573 798 q 543 838 550 822 q 536 871 536 854 q 544 910 536 892 q 566 942 552 928 q 596 962 579 955 q 633 970 614 970 q 669 962 652 970 q 697 943 686 955 q 715 915 709 930 q 722 882 722 899 m 0 689 z "},"ē":{"ha":764,"x_min":0,"x_max":708,"o":"m 225 288 q 223 269 224 279 q 222 245 222 258 q 261 150 222 184 q 376 117 300 117 q 486 124 427 117 q 597 147 544 132 l 597 18 q 475 -6 541 3 q 345 -16 410 -16 q 225 1 278 -16 q 136 49 172 17 q 79 129 99 81 q 60 241 60 177 q 89 419 60 335 q 170 567 117 503 q 296 667 222 630 q 461 704 370 704 q 566 690 520 704 q 643 652 612 677 q 691 594 675 628 q 708 518 708 559 q 687 424 708 466 q 619 351 666 381 q 497 304 572 321 q 315 288 422 288 l 225 288 m 323 406 q 438 414 395 406 q 506 435 481 422 q 538 466 530 448 q 546 503 546 484 q 518 559 546 538 q 444 581 490 581 q 376 567 407 581 q 320 529 345 553 q 279 473 296 505 q 252 406 262 441 l 323 406 m 288 817 l 311 935 l 689 935 l 665 817 l 288 817 m 0 689 z "},"ĕ":{"ha":764,"x_min":0,"x_max":708,"o":"m 225 288 q 223 269 224 279 q 222 245 222 258 q 261 150 222 184 q 376 117 300 117 q 486 124 427 117 q 597 147 544 132 l 597 18 q 475 -6 541 3 q 345 -16 410 -16 q 225 1 278 -16 q 136 49 172 17 q 79 129 99 81 q 60 241 60 177 q 89 419 60 335 q 170 567 117 503 q 296 667 222 630 q 461 704 370 704 q 566 690 520 704 q 643 652 612 677 q 691 594 675 628 q 708 518 708 559 q 687 424 708 466 q 619 351 666 381 q 497 304 572 321 q 315 288 422 288 l 225 288 m 323 406 q 438 414 395 406 q 506 435 481 422 q 538 466 530 448 q 546 503 546 484 q 518 559 546 538 q 444 581 490 581 q 376 567 407 581 q 320 529 345 553 q 279 473 296 505 q 252 406 262 441 l 323 406 m 700 958 q 675 885 694 920 q 627 826 656 851 q 559 786 597 800 q 473 771 520 771 q 393 786 427 771 q 339 827 359 801 q 311 886 318 852 q 310 958 304 920 l 432 958 q 431 930 429 943 q 441 907 434 917 q 460 891 448 897 q 489 885 473 885 q 544 904 519 885 q 576 958 569 922 l 700 958 m 0 689 z "},"ė":{"ha":764,"x_min":0,"x_max":708,"o":"m 225 288 q 223 269 224 279 q 222 245 222 258 q 261 150 222 184 q 376 117 300 117 q 486 124 427 117 q 597 147 544 132 l 597 18 q 475 -6 541 3 q 345 -16 410 -16 q 225 1 278 -16 q 136 49 172 17 q 79 129 99 81 q 60 241 60 177 q 89 419 60 335 q 170 567 117 503 q 296 667 222 630 q 461 704 370 704 q 566 690 520 704 q 643 652 612 677 q 691 594 675 628 q 708 518 708 559 q 687 424 708 466 q 619 351 666 381 q 497 304 572 321 q 315 288 422 288 l 225 288 m 323 406 q 438 414 395 406 q 506 435 481 422 q 538 466 530 448 q 546 503 546 484 q 518 559 546 538 q 444 581 490 581 q 376 567 407 581 q 320 529 345 553 q 279 473 296 505 q 252 406 262 441 l 323 406 m 595 884 q 586 840 595 860 q 561 805 576 820 q 526 782 546 790 q 482 774 505 774 q 442 782 460 774 q 410 804 423 790 q 389 835 397 817 q 382 872 382 852 q 391 916 382 896 q 415 951 399 937 q 450 974 430 966 q 492 982 470 982 q 532 974 513 982 q 565 952 551 966 q 587 921 579 939 q 595 884 595 903 m 0 689 z "},"ę":{"ha":764,"x_min":60,"x_max":708,"o":"m 505 -261 q 454 -271 482 -267 q 406 -275 427 -275 q 334 -266 362 -275 q 290 -242 307 -257 q 268 -208 274 -227 q 261 -170 261 -189 q 265 -135 261 -153 q 280 -98 269 -117 q 309 -59 291 -79 q 356 -16 328 -39 l 345 -16 q 225 1 278 -16 q 136 49 172 17 q 79 129 99 81 q 60 241 60 177 q 89 419 60 335 q 170 567 117 503 q 296 667 222 630 q 461 704 370 704 q 566 690 520 704 q 643 652 612 677 q 691 594 675 628 q 708 518 708 559 q 687 424 708 466 q 619 351 666 381 q 497 304 572 321 q 315 288 422 288 l 225 288 q 223 269 224 279 q 222 245 222 258 q 261 150 222 184 q 376 117 300 117 q 486 124 427 117 q 597 147 544 132 l 597 18 q 556 8 578 13 q 513 0 535 3 q 463 -53 482 -31 q 433 -92 444 -75 q 419 -120 422 -109 q 415 -142 415 -132 q 424 -160 415 -153 q 457 -167 433 -167 q 481 -165 467 -167 q 505 -161 495 -163 l 505 -261 m 323 406 q 438 414 395 406 q 506 435 481 422 q 538 466 530 448 q 546 503 546 484 q 518 559 546 538 q 444 581 490 581 q 376 567 407 581 q 320 529 345 553 q 279 473 296 505 q 252 406 262 441 l 323 406 z "},"ﬁ":{"ha":764,"x_min":-35,"x_max":761,"o":"m 734 814 q 697 825 718 820 q 654 833 677 829 q 608 838 631 836 q 564 840 585 840 q 492 832 525 840 q 432 806 458 824 q 387 759 406 788 q 359 688 368 730 l 346 619 l 718 619 l 595 0 l 432 0 l 529 490 l 319 490 l 222 0 q 185 -139 208 -72 q 129 -269 163 -206 l -35 -269 q -5 -205 -19 -239 q 22 -136 9 -172 q 44 -66 34 -101 q 60 0 54 -32 l 157 490 l 50 490 l 77 619 l 183 619 l 199 699 q 245 825 214 773 q 325 909 277 877 q 436 957 373 942 q 576 971 499 971 q 625 969 600 971 q 675 964 650 968 q 721 957 699 961 q 761 947 743 952 l 734 814 m 0 689 z "},"ﬂ":{"ha":764,"x_min":-35,"x_max":783,"o":"m 222 0 q 185 -139 208 -72 q 129 -269 163 -206 l -35 -269 q -5 -205 -19 -239 q 22 -136 9 -172 q 44 -66 34 -101 q 60 0 54 -32 l 157 490 l 50 490 l 77 619 l 183 619 l 199 699 q 245 825 214 773 q 323 909 277 877 q 429 957 369 942 q 561 971 488 971 q 674 965 616 971 q 783 947 732 960 l 595 0 l 432 0 l 599 836 q 574 839 590 838 q 545 840 559 840 q 419 801 464 840 q 359 685 375 762 l 346 619 l 469 619 l 443 490 l 319 490 l 222 0 m 0 689 z "},"ĝ":{"ha":764,"x_min":0,"x_max":737,"o":"m 596 -5 q 557 -126 583 -74 q 490 -213 531 -178 q 390 -267 448 -249 q 254 -285 332 -285 q 134 -272 197 -285 q 20 -233 71 -260 l 84 -113 q 168 -145 127 -134 q 257 -155 208 -155 q 374 -120 332 -155 q 432 -14 415 -84 q 451 47 439 17 q 473 110 462 78 q 430 57 455 81 q 375 18 405 34 q 313 -7 346 1 q 245 -16 279 -16 q 93 47 145 -16 q 41 224 41 109 q 69 415 41 328 q 150 567 97 503 q 280 666 203 630 q 454 701 357 701 q 548 694 507 701 q 619 677 589 687 l 737 703 l 596 -5 m 543 557 q 499 568 522 564 q 450 572 476 572 q 366 555 402 572 q 303 510 330 538 q 259 446 277 481 q 232 372 242 410 q 218 299 222 335 q 214 235 214 262 q 232 152 214 180 q 289 123 251 123 q 355 149 320 123 q 422 213 391 174 q 478 300 454 252 q 511 395 503 349 l 543 557 m 568 958 l 699 781 l 558 781 l 492 864 l 392 781 l 240 781 l 443 958 l 568 958 m 0 689 z "},"ğ":{"ha":764,"x_min":0,"x_max":737,"o":"m 596 -5 q 557 -126 583 -74 q 490 -213 531 -178 q 390 -267 448 -249 q 254 -285 332 -285 q 134 -272 197 -285 q 20 -233 71 -260 l 84 -113 q 168 -145 127 -134 q 257 -155 208 -155 q 374 -120 332 -155 q 432 -14 415 -84 q 451 47 439 17 q 473 110 462 78 q 430 57 455 81 q 375 18 405 34 q 313 -7 346 1 q 245 -16 279 -16 q 93 47 145 -16 q 41 224 41 109 q 69 415 41 328 q 150 567 97 503 q 280 666 203 630 q 454 701 357 701 q 548 694 507 701 q 619 677 589 687 l 737 703 l 596 -5 m 543 557 q 499 568 522 564 q 450 572 476 572 q 366 555 402 572 q 303 510 330 538 q 259 446 277 481 q 232 372 242 410 q 218 299 222 335 q 214 235 214 262 q 232 152 214 180 q 289 123 251 123 q 355 149 320 123 q 422 213 391 174 q 478 300 454 252 q 511 395 503 349 l 543 557 m 700 958 q 675 885 694 920 q 627 826 656 851 q 559 786 597 800 q 473 771 520 771 q 393 786 427 771 q 339 827 359 801 q 311 886 318 852 q 310 958 304 920 l 432 958 q 431 930 429 943 q 441 907 434 917 q 460 891 448 897 q 489 885 473 885 q 544 904 519 885 q 576 958 569 922 l 700 958 m 0 689 z "},"ġ":{"ha":764,"x_min":0,"x_max":737,"o":"m 596 -5 q 557 -126 583 -74 q 490 -213 531 -178 q 390 -267 448 -249 q 254 -285 332 -285 q 134 -272 197 -285 q 20 -233 71 -260 l 84 -113 q 168 -145 127 -134 q 257 -155 208 -155 q 374 -120 332 -155 q 432 -14 415 -84 q 451 47 439 17 q 473 110 462 78 q 430 57 455 81 q 375 18 405 34 q 313 -7 346 1 q 245 -16 279 -16 q 93 47 145 -16 q 41 224 41 109 q 69 415 41 328 q 150 567 97 503 q 280 666 203 630 q 454 701 357 701 q 548 694 507 701 q 619 677 589 687 l 737 703 l 596 -5 m 543 557 q 499 568 522 564 q 450 572 476 572 q 366 555 402 572 q 303 510 330 538 q 259 446 277 481 q 232 372 242 410 q 218 299 222 335 q 214 235 214 262 q 232 152 214 180 q 289 123 251 123 q 355 149 320 123 q 422 213 391 174 q 478 300 454 252 q 511 395 503 349 l 543 557 m 595 884 q 586 840 595 860 q 561 805 576 820 q 526 782 546 790 q 482 774 505 774 q 442 782 460 774 q 410 804 423 790 q 389 835 397 817 q 382 872 382 852 q 391 916 382 896 q 415 951 399 937 q 450 974 430 966 q 492 982 470 982 q 532 974 513 982 q 565 952 551 966 q 587 921 579 939 q 595 884 595 903 m 0 689 z "},"ģ":{"ha":764,"x_min":0,"x_max":737,"o":"m 596 -5 q 557 -126 583 -74 q 490 -213 531 -178 q 390 -267 448 -249 q 254 -285 332 -285 q 134 -272 197 -285 q 20 -233 71 -260 l 84 -113 q 168 -145 127 -134 q 257 -155 208 -155 q 374 -120 332 -155 q 432 -14 415 -84 q 451 47 439 17 q 473 110 462 78 q 430 57 455 81 q 375 18 405 34 q 313 -7 346 1 q 245 -16 279 -16 q 93 47 145 -16 q 41 224 41 109 q 69 415 41 328 q 150 567 97 503 q 280 666 203 630 q 454 701 357 701 q 548 694 507 701 q 619 677 589 687 l 737 703 l 596 -5 m 543 557 q 499 568 522 564 q 450 572 476 572 q 366 555 402 572 q 303 510 330 538 q 259 446 277 481 q 232 372 242 410 q 218 299 222 335 q 214 235 214 262 q 232 152 214 180 q 289 123 251 123 q 355 149 320 123 q 422 213 391 174 q 478 300 454 252 q 511 395 503 349 l 543 557 m 395 794 l 504 994 l 635 994 l 549 794 l 395 794 m 0 689 z "},"ĥ":{"ha":764,"x_min":0,"x_max":741,"o":"m 436 0 l 526 449 q 523 535 537 505 q 475 566 509 566 q 429 554 453 566 q 382 523 406 543 q 338 476 359 503 q 298 419 316 449 q 268 357 281 389 q 249 294 254 325 l 191 0 l 25 0 l 216 958 l 382 958 l 335 722 l 286 579 q 330 631 304 608 q 385 671 355 654 q 449 695 415 687 q 518 704 483 704 q 611 686 573 704 q 671 634 650 668 q 699 553 693 601 q 692 446 704 505 l 602 0 l 436 0 m 741 1028 l 599 1028 l 528 1092 l 432 1028 l 279 1028 l 471 1181 l 610 1181 l 741 1028 m 0 934 z "},"ħ":{"ha":764,"x_min":0,"x_max":696,"o":"m 525 673 q 613 657 580 673 q 665 614 647 640 q 690 561 684 589 q 696 511 696 532 q 693 466 696 486 q 686 425 690 446 q 677 383 682 404 q 671 350 673 363 l 602 0 l 436 0 l 505 343 q 512 372 508 355 q 518 405 515 388 q 524 436 522 421 q 526 466 526 452 q 524 492 526 479 q 515 514 522 505 q 497 529 508 524 q 468 534 486 534 q 405 512 436 534 q 344 452 374 490 q 291 366 315 414 q 256 264 267 317 l 203 0 l 37 0 l 189 758 l 87 758 l 113 882 l 214 882 l 229 958 l 395 958 l 379 882 l 559 882 l 534 758 l 354 758 l 342 692 l 302 549 q 354 605 329 581 q 405 643 378 628 q 463 666 432 659 q 525 673 493 673 m 0 704 z "},"ì":{"ha":764,"x_min":14,"x_max":654,"o":"m 444 231 q 445 140 432 166 q 496 114 458 114 q 566 128 528 114 q 654 165 605 142 l 654 39 q 560 0 610 15 q 457 -16 509 -16 q 296 44 341 -16 q 277 236 250 104 l 321 458 q 320 549 334 523 q 269 575 307 575 q 199 561 238 575 q 111 524 160 547 l 111 650 q 205 689 155 674 q 309 704 256 704 q 469 644 424 704 q 489 453 515 584 l 444 231 m 393 958 l 564 781 l 398 781 l 169 958 l 393 958 m 14 689 z "},"í":{"ha":764,"x_min":14,"x_max":806,"o":"m 444 231 q 445 140 432 166 q 496 114 458 114 q 566 128 528 114 q 654 165 605 142 l 654 39 q 560 0 610 15 q 457 -16 509 -16 q 296 44 341 -16 q 277 236 250 104 l 321 458 q 320 549 334 523 q 269 575 307 575 q 199 561 238 575 q 111 524 160 547 l 111 650 q 205 689 155 674 q 309 704 256 704 q 469 644 424 704 q 489 453 515 584 l 444 231 m 564 781 l 398 781 l 583 958 l 806 958 l 564 781 m 14 689 z "},"î":{"ha":764,"x_min":0,"x_max":699,"o":"m 444 231 q 445 140 432 166 q 496 114 458 114 q 566 128 528 114 q 654 165 605 142 l 654 39 q 560 0 610 15 q 457 -16 509 -16 q 296 44 341 -16 q 277 236 250 104 l 321 458 q 320 549 334 523 q 269 575 307 575 q 199 561 238 575 q 111 524 160 547 l 111 650 q 205 689 155 674 q 309 704 256 704 q 469 644 424 704 q 489 453 515 584 l 444 231 m 568 958 l 699 781 l 558 781 l 492 864 l 392 781 l 240 781 l 443 958 l 568 958 m 0 689 z "},"ĩ":{"ha":764,"x_min":14,"x_max":760,"o":"m 444 231 q 445 140 432 166 q 496 114 458 114 q 566 128 528 114 q 654 165 605 142 l 654 39 q 560 0 610 15 q 457 -16 509 -16 q 296 44 341 -16 q 277 236 250 104 l 321 458 q 320 549 334 523 q 269 575 307 575 q 199 561 238 575 q 111 524 160 547 l 111 650 q 205 689 155 674 q 309 704 256 704 q 469 644 424 704 q 489 453 515 584 l 444 231 m 760 885 q 689 804 730 830 q 593 778 648 778 q 527 789 554 778 q 479 815 500 801 q 440 841 458 829 q 399 852 421 852 q 353 837 374 852 q 311 791 332 821 l 241 865 q 408 972 299 972 q 473 960 447 972 q 521 935 500 949 q 561 909 542 921 q 601 897 579 897 q 647 913 626 897 q 690 958 669 929 l 760 885 m 14 689 z "},"ï":{"ha":764,"x_min":14,"x_max":736,"o":"m 444 231 q 445 140 432 166 q 496 114 458 114 q 566 128 528 114 q 654 165 605 142 l 654 39 q 560 0 610 15 q 457 -16 509 -16 q 296 44 341 -16 q 277 236 250 104 l 321 458 q 320 549 334 523 q 269 575 307 575 q 199 561 238 575 q 111 524 160 547 l 111 650 q 205 689 155 674 q 309 704 256 704 q 469 644 424 704 q 489 453 515 584 l 444 231 m 452 882 q 445 843 452 861 q 423 811 437 825 q 392 791 410 798 q 355 783 374 783 q 319 790 336 783 q 292 810 303 798 q 273 838 280 822 q 267 871 267 854 q 274 910 267 892 q 296 942 282 928 q 327 962 309 955 q 363 970 344 970 q 399 962 382 970 q 427 943 416 955 q 446 915 439 930 q 452 882 452 899 m 736 882 q 728 843 736 861 q 706 811 720 825 q 675 791 693 798 q 639 783 658 783 q 603 790 619 783 q 575 810 587 798 q 557 838 564 822 q 550 871 550 854 q 558 910 550 892 q 579 942 566 928 q 610 962 593 955 q 647 970 627 970 q 683 962 666 970 q 711 943 699 955 q 729 915 722 930 q 736 882 736 899 m 14 689 z "},"ī":{"ha":764,"x_min":14,"x_max":703,"o":"m 444 231 q 445 140 432 166 q 496 114 458 114 q 566 128 528 114 q 654 165 605 142 l 654 39 q 560 0 610 15 q 457 -16 509 -16 q 296 44 341 -16 q 277 236 250 104 l 321 458 q 320 549 334 523 q 269 575 307 575 q 199 561 238 575 q 111 524 160 547 l 111 650 q 205 689 155 674 q 309 704 256 704 q 469 644 424 704 q 489 453 515 584 l 444 231 m 301 817 l 325 935 l 703 935 l 679 817 l 301 817 m 14 689 z "},"ĭ":{"ha":764,"x_min":14,"x_max":713,"o":"m 444 231 q 445 140 432 166 q 496 114 458 114 q 566 128 528 114 q 654 165 605 142 l 654 39 q 560 0 610 15 q 457 -16 509 -16 q 296 44 341 -16 q 277 236 250 104 l 321 458 q 320 549 334 523 q 269 575 307 575 q 199 561 238 575 q 111 524 160 547 l 111 650 q 205 689 155 674 q 309 704 256 704 q 469 644 424 704 q 489 453 515 584 l 444 231 m 713 958 q 689 885 707 920 q 641 826 670 851 q 572 786 611 800 q 487 771 534 771 q 407 786 441 771 q 352 827 373 801 q 325 886 332 852 q 323 958 317 920 l 446 958 q 445 930 442 943 q 455 907 448 917 q 474 891 462 897 q 503 885 486 885 q 558 904 533 885 q 590 958 583 922 l 713 958 m 14 689 z "},"į":{"ha":764,"x_min":111,"x_max":654,"o":"m 553 -261 q 502 -271 530 -267 q 453 -275 474 -275 q 382 -266 410 -275 q 338 -242 354 -257 q 315 -208 321 -227 q 309 -170 309 -189 q 313 -135 309 -153 q 328 -97 317 -117 q 358 -57 339 -78 q 408 -12 378 -36 q 286 59 319 -1 q 277 236 253 119 l 321 458 q 320 549 334 523 q 269 575 307 575 q 199 561 238 575 q 111 524 160 547 l 111 650 q 205 689 155 674 q 309 704 256 704 q 469 644 424 704 q 489 453 515 584 l 444 231 q 445 140 432 166 q 496 114 458 114 q 566 128 528 114 q 654 165 605 142 l 654 39 q 608 17 632 26 q 559 -1 585 7 q 510 -53 528 -31 q 480 -92 491 -75 q 466 -120 470 -109 q 463 -142 463 -132 q 471 -160 463 -153 q 504 -167 480 -167 q 529 -165 515 -167 q 553 -161 543 -163 l 553 -261 m 581 884 q 571 838 581 859 q 546 802 562 817 q 509 778 530 787 q 465 770 488 770 q 422 778 441 770 q 388 801 402 787 q 366 833 374 814 q 358 872 358 852 q 368 917 358 897 q 393 953 377 938 q 431 977 410 968 q 475 986 452 986 q 518 978 499 986 q 552 955 538 969 q 573 922 566 941 q 581 884 581 904 z "},"ı":{"ha":764,"x_min":111,"x_max":654,"o":"m 444 231 q 445 140 432 166 q 496 114 458 114 q 566 128 528 114 q 654 165 605 142 l 654 39 q 560 0 610 15 q 457 -16 509 -16 q 296 44 341 -16 q 277 236 250 104 l 321 458 q 320 549 334 523 q 269 575 307 575 q 199 561 238 575 q 111 524 160 547 l 111 650 q 205 689 155 674 q 309 704 256 704 q 469 644 424 704 q 489 453 515 584 l 444 231 z "},"ĳ":{"ha":764,"x_min":25,"x_max":804,"o":"m 599 -12 q 554 -140 583 -88 q 486 -224 526 -193 q 394 -271 446 -256 q 282 -285 343 -285 q 181 -271 227 -285 q 102 -235 134 -258 l 172 -118 q 219 -144 191 -134 q 282 -155 248 -155 q 382 -118 345 -155 q 436 0 419 -81 l 574 689 l 739 689 l 599 -12 m 328 689 l 191 0 l 25 0 l 163 689 l 328 689 m 393 884 q 384 839 393 859 q 359 803 375 818 q 323 780 344 788 q 279 771 302 771 q 236 779 255 771 q 202 801 216 787 q 181 833 189 815 q 174 872 174 852 q 183 917 174 897 q 209 953 193 938 q 245 976 224 968 q 289 985 266 985 q 332 977 313 985 q 365 955 351 968 q 386 922 378 941 q 393 884 393 904 m 804 884 q 795 839 804 859 q 770 803 786 818 q 734 780 755 788 q 690 771 713 771 q 647 779 667 771 q 613 801 627 787 q 592 833 600 815 q 585 872 585 852 q 594 917 585 897 q 620 953 604 938 q 656 976 635 968 q 700 985 677 985 q 743 977 724 985 q 776 955 762 968 q 797 922 789 941 q 804 884 804 904 z "},"ȷ":{"ha":764,"x_min":-69,"x_max":646,"o":"m 163 648 q 294 689 229 675 q 432 704 360 704 q 600 644 555 704 q 619 453 646 583 l 533 18 q 483 -123 517 -65 q 400 -217 448 -180 q 292 -269 353 -253 q 163 -285 232 -285 q -69 -200 16 -285 l 32 -86 q 59 -112 44 -100 q 92 -133 74 -123 q 133 -147 111 -142 q 180 -153 155 -153 q 302 -109 256 -153 q 364 18 347 -66 l 456 476 q 451 550 465 526 q 392 575 437 575 q 342 571 368 575 q 289 561 317 568 q 230 543 260 553 q 163 519 199 532 l 163 648 z "},"ĵ":{"ha":764,"x_min":-69,"x_max":699,"o":"m 163 648 q 294 689 229 675 q 432 704 360 704 q 600 644 555 704 q 619 453 646 583 l 533 18 q 483 -123 517 -65 q 400 -217 448 -180 q 292 -269 353 -253 q 163 -285 232 -285 q -69 -200 16 -285 l 32 -86 q 59 -112 44 -100 q 92 -133 74 -123 q 133 -147 111 -142 q 180 -153 155 -153 q 302 -109 256 -153 q 364 18 347 -66 l 456 476 q 451 550 465 526 q 392 575 437 575 q 342 571 368 575 q 289 561 317 568 q 230 543 260 553 q 163 519 199 532 l 163 648 m 568 958 l 699 781 l 558 781 l 492 864 l 392 781 l 240 781 l 443 958 l 568 958 m 0 689 z "},"ķ":{"ha":764,"x_min":25,"x_max":724,"o":"m 471 0 l 275 347 q 408 372 355 357 q 495 406 462 387 q 543 449 528 425 q 557 501 557 473 q 535 557 557 541 q 476 574 514 574 q 408 550 444 574 q 340 490 372 526 q 286 408 309 453 q 254 322 262 363 l 191 0 l 25 0 l 216 958 l 382 958 l 335 722 l 286 579 q 329 631 304 608 q 384 671 354 654 q 447 695 413 687 q 515 704 480 704 q 599 692 561 704 q 665 657 637 680 q 708 602 693 635 q 724 525 724 568 q 707 433 724 474 q 660 361 690 392 q 588 308 630 330 q 493 273 545 286 l 671 0 l 471 0 m 376 -78 l 277 -278 l 143 -278 l 220 -78 l 376 -78 z "},"ĸ":{"ha":764,"x_min":33,"x_max":790,"o":"m 463 0 l 264 351 l 195 0 l 33 0 l 170 689 l 332 689 l 275 404 l 569 689 l 790 689 l 433 366 l 661 0 l 463 0 z "},"ĺ":{"ha":764,"x_min":0,"x_max":807,"o":"m 317 211 q 324 138 307 162 q 386 114 341 114 q 492 129 435 114 q 623 172 548 144 l 623 43 q 486 -1 554 14 q 346 -16 418 -16 q 175 46 222 -16 q 154 237 128 107 l 298 958 l 465 958 l 317 211 m 590 1028 l 425 1028 l 583 1181 l 807 1181 l 590 1028 m 0 934 z "},"ľ":{"ha":764,"x_min":-138,"x_max":848,"o":"m 317 211 q 324 138 307 162 q 386 114 341 114 q 492 129 435 114 q 623 172 548 144 l 623 43 q 486 -1 554 14 q 346 -16 418 -16 q 175 46 222 -16 q 154 237 128 107 l 298 958 l 465 958 l 317 211 m 729 781 l 595 781 l 688 1010 l 848 1010 l 729 781 m -138 689 z "},"ļ":{"ha":764,"x_min":128,"x_max":623,"o":"m 317 211 q 324 138 307 162 q 386 114 341 114 q 492 129 435 114 q 623 172 548 144 l 623 43 q 486 -1 554 14 q 346 -16 418 -16 q 175 46 222 -16 q 154 237 128 107 l 298 958 l 465 958 l 317 211 m 404 -78 l 304 -278 l 171 -278 l 248 -78 l 404 -78 z "},"ł":{"ha":764,"x_min":33,"x_max":623,"o":"m 33 461 l 215 545 l 298 958 l 465 958 l 400 628 l 615 726 l 615 581 l 368 468 l 317 211 q 324 138 307 162 q 386 114 341 114 q 492 129 435 114 q 623 172 548 144 l 623 43 q 486 -1 554 14 q 346 -16 418 -16 q 175 46 222 -16 q 154 237 128 107 l 183 383 l 33 315 l 33 461 z "},"ŀ":{"ha":764,"x_min":74,"x_max":772,"o":"m 262 211 q 270 138 253 162 q 332 114 287 114 q 437 129 381 114 q 568 172 494 144 l 568 43 q 432 -1 500 14 q 292 -16 363 -16 q 121 46 168 -16 q 100 237 74 107 l 244 958 l 411 958 l 262 211 m 645 555 q 696 545 673 555 q 736 517 720 534 q 763 477 753 500 q 772 429 772 454 q 761 374 772 399 q 731 330 750 349 q 687 301 712 311 q 633 290 662 290 q 584 300 606 290 q 544 328 561 311 q 518 368 528 345 q 509 415 509 391 q 520 471 509 446 q 550 515 531 496 q 593 545 568 534 q 645 555 618 555 z "},"ń":{"ha":764,"x_min":0,"x_max":793,"o":"m 436 0 l 526 449 q 523 535 537 505 q 475 566 509 566 q 431 554 454 566 q 386 523 408 543 q 341 476 363 503 q 302 419 320 449 q 272 357 285 389 q 253 294 259 325 l 195 0 l 29 0 l 103 368 q 111 414 107 389 q 119 476 115 439 q 129 564 123 512 q 142 689 134 615 l 277 689 l 271 564 q 310 612 286 587 q 366 657 334 637 q 436 691 397 677 q 518 704 474 704 q 611 686 573 704 q 671 634 650 668 q 699 553 693 601 q 692 446 704 505 l 602 0 l 436 0 m 550 781 l 385 781 l 570 958 l 793 958 l 550 781 m 0 689 z "},"ň":{"ha":764,"x_min":0,"x_max":733,"o":"m 436 0 l 526 449 q 523 535 537 505 q 475 566 509 566 q 431 554 454 566 q 386 523 408 543 q 341 476 363 503 q 302 419 320 449 q 272 357 285 389 q 253 294 259 325 l 195 0 l 29 0 l 103 368 q 111 414 107 389 q 119 476 115 439 q 129 564 123 512 q 142 689 134 615 l 277 689 l 271 564 q 310 612 286 587 q 366 657 334 637 q 436 691 397 677 q 518 704 474 704 q 611 686 573 704 q 671 634 650 668 q 699 553 693 601 q 692 446 704 505 l 602 0 l 436 0 m 406 781 l 275 958 l 415 958 l 482 875 l 582 958 l 733 958 l 530 781 l 406 781 m 0 689 z "},"ñ":{"ha":764,"x_min":0,"x_max":746,"o":"m 436 0 l 526 449 q 523 535 537 505 q 475 566 509 566 q 431 554 454 566 q 386 523 408 543 q 341 476 363 503 q 302 419 320 449 q 272 357 285 389 q 253 294 259 325 l 195 0 l 29 0 l 103 368 q 111 414 107 389 q 119 476 115 439 q 129 564 123 512 q 142 689 134 615 l 277 689 l 271 564 q 310 612 286 587 q 366 657 334 637 q 436 691 397 677 q 518 704 474 704 q 611 686 573 704 q 671 634 650 668 q 699 553 693 601 q 692 446 704 505 l 602 0 l 436 0 m 746 885 q 675 804 716 830 q 579 778 635 778 q 514 789 541 778 q 466 815 487 801 q 426 841 445 829 q 386 852 408 852 q 339 837 361 852 q 297 791 318 821 l 228 865 q 395 972 286 972 q 460 960 433 972 q 507 935 486 949 q 547 909 528 921 q 587 897 566 897 q 634 913 612 897 q 676 958 655 929 l 746 885 m 0 689 z "},"ņ":{"ha":764,"x_min":29,"x_max":704,"o":"m 436 0 l 526 449 q 523 535 537 505 q 475 566 509 566 q 431 554 454 566 q 386 523 408 543 q 341 476 363 503 q 302 419 320 449 q 272 357 285 389 q 253 294 259 325 l 195 0 l 29 0 l 103 368 q 111 414 107 389 q 119 476 115 439 q 129 564 123 512 q 142 689 134 615 l 277 689 l 271 564 q 310 612 286 587 q 366 657 334 637 q 436 691 397 677 q 518 704 474 704 q 611 686 573 704 q 671 634 650 668 q 699 553 693 601 q 692 446 704 505 l 602 0 l 436 0 m 376 -78 l 277 -278 l 143 -278 l 220 -78 l 376 -78 z "},"ŉ":{"ha":764,"x_min":0,"x_max":718,"o":"m 450 0 l 540 449 q 537 535 551 505 q 488 566 523 566 q 445 554 468 566 q 399 523 422 543 q 355 476 376 503 q 316 419 334 449 q 286 357 298 389 q 267 294 273 325 l 208 0 l 43 0 l 117 368 q 124 414 121 389 q 133 476 128 439 q 142 564 137 512 q 155 689 148 615 l 290 689 l 284 564 q 324 612 300 587 q 379 657 348 637 q 449 691 411 677 q 532 704 488 704 q 625 686 587 704 q 685 634 663 668 q 712 553 707 601 q 705 446 718 505 l 615 0 l 450 0 m 82 808 q 139 814 116 808 q 176 831 162 821 q 197 853 191 841 q 203 879 203 866 q 198 902 203 893 q 188 921 193 911 q 177 941 182 930 q 172 970 172 952 q 178 1002 172 985 q 195 1031 184 1018 q 224 1054 207 1045 q 265 1063 241 1063 q 309 1053 292 1063 q 337 1029 327 1044 q 352 996 348 1014 q 357 962 357 979 q 352 918 357 943 q 336 866 348 892 q 305 814 325 840 q 254 768 285 789 q 181 736 224 748 q 82 724 139 724 l 82 808 m 0 689 z "},"ŋ":{"ha":764,"x_min":29,"x_max":704,"o":"m 604 12 q 556 -126 587 -70 q 479 -218 526 -183 q 370 -269 433 -254 q 227 -285 307 -285 l 256 -146 q 378 -106 334 -146 q 440 21 422 -66 l 526 449 q 523 535 537 505 q 475 566 509 566 q 431 554 454 566 q 386 523 408 543 q 341 476 363 503 q 302 419 320 449 q 272 357 285 389 q 253 294 259 325 l 195 0 l 29 0 l 103 368 q 111 414 107 389 q 119 476 115 439 q 129 564 123 512 q 142 689 134 615 l 277 689 l 271 564 q 310 612 286 587 q 366 657 334 637 q 436 691 397 677 q 518 704 474 704 q 611 686 573 704 q 671 634 650 668 q 699 553 693 601 q 692 446 704 505 l 604 12 z "},"ò":{"ha":764,"x_min":0,"x_max":726,"o":"m 317 -16 q 201 0 252 -16 q 113 48 149 16 q 57 130 77 81 q 37 245 37 179 q 50 360 37 304 q 86 468 62 417 q 145 563 111 519 q 226 637 180 606 q 327 686 272 669 q 447 704 382 704 q 563 688 511 704 q 651 640 614 672 q 707 558 687 608 q 726 443 726 509 q 714 328 726 385 q 677 220 701 271 q 618 126 654 170 q 538 51 583 83 q 437 2 492 20 q 317 -16 381 -16 m 553 427 q 520 527 553 494 q 425 561 487 561 q 359 547 389 561 q 305 510 329 533 q 263 456 281 487 q 234 393 245 426 q 217 326 222 359 q 211 262 211 292 q 244 161 211 195 q 339 127 277 127 q 406 141 376 127 q 459 179 435 155 q 500 232 483 202 q 530 296 518 262 q 547 363 541 329 q 553 427 553 397 m 379 958 l 550 781 l 385 781 l 155 958 l 379 958 m 0 689 z "},"ó":{"ha":764,"x_min":0,"x_max":793,"o":"m 317 -16 q 201 0 252 -16 q 113 48 149 16 q 57 130 77 81 q 37 245 37 179 q 50 360 37 304 q 86 468 62 417 q 145 563 111 519 q 226 637 180 606 q 327 686 272 669 q 447 704 382 704 q 563 688 511 704 q 651 640 614 672 q 707 558 687 608 q 726 443 726 509 q 714 328 726 385 q 677 220 701 271 q 618 126 654 170 q 538 51 583 83 q 437 2 492 20 q 317 -16 381 -16 m 553 427 q 520 527 553 494 q 425 561 487 561 q 359 547 389 561 q 305 510 329 533 q 263 456 281 487 q 234 393 245 426 q 217 326 222 359 q 211 262 211 292 q 244 161 211 195 q 339 127 277 127 q 406 141 376 127 q 459 179 435 155 q 500 232 483 202 q 530 296 518 262 q 547 363 541 329 q 553 427 553 397 m 550 781 l 385 781 l 570 958 l 793 958 l 550 781 m 0 689 z "},"ô":{"ha":764,"x_min":0,"x_max":726,"o":"m 317 -16 q 201 0 252 -16 q 113 48 149 16 q 57 130 77 81 q 37 245 37 179 q 50 360 37 304 q 86 468 62 417 q 145 563 111 519 q 226 637 180 606 q 327 686 272 669 q 447 704 382 704 q 563 688 511 704 q 651 640 614 672 q 707 558 687 608 q 726 443 726 509 q 714 328 726 385 q 677 220 701 271 q 618 126 654 170 q 538 51 583 83 q 437 2 492 20 q 317 -16 381 -16 m 553 427 q 520 527 553 494 q 425 561 487 561 q 359 547 389 561 q 305 510 329 533 q 263 456 281 487 q 234 393 245 426 q 217 326 222 359 q 211 262 211 292 q 244 161 211 195 q 339 127 277 127 q 406 141 376 127 q 459 179 435 155 q 500 232 483 202 q 530 296 518 262 q 547 363 541 329 q 553 427 553 397 m 568 958 l 699 781 l 558 781 l 492 864 l 392 781 l 240 781 l 443 958 l 568 958 m 0 689 z "},"õ":{"ha":764,"x_min":0,"x_max":746,"o":"m 317 -16 q 201 0 252 -16 q 113 48 149 16 q 57 130 77 81 q 37 245 37 179 q 50 360 37 304 q 86 468 62 417 q 145 563 111 519 q 226 637 180 606 q 327 686 272 669 q 447 704 382 704 q 563 688 511 704 q 651 640 614 672 q 707 558 687 608 q 726 443 726 509 q 714 328 726 385 q 677 220 701 271 q 618 126 654 170 q 538 51 583 83 q 437 2 492 20 q 317 -16 381 -16 m 553 427 q 520 527 553 494 q 425 561 487 561 q 359 547 389 561 q 305 510 329 533 q 263 456 281 487 q 234 393 245 426 q 217 326 222 359 q 211 262 211 292 q 244 161 211 195 q 339 127 277 127 q 406 141 376 127 q 459 179 435 155 q 500 232 483 202 q 530 296 518 262 q 547 363 541 329 q 553 427 553 397 m 746 885 q 675 804 716 830 q 579 778 635 778 q 514 789 541 778 q 466 815 487 801 q 426 841 445 829 q 386 852 408 852 q 339 837 361 852 q 297 791 318 821 l 228 865 q 395 972 286 972 q 460 960 433 972 q 507 935 486 949 q 547 909 528 921 q 587 897 566 897 q 634 913 612 897 q 676 958 655 929 l 746 885 m 0 689 z "},"ö":{"ha":764,"x_min":0,"x_max":726,"o":"m 317 -16 q 201 0 252 -16 q 113 48 149 16 q 57 130 77 81 q 37 245 37 179 q 50 360 37 304 q 86 468 62 417 q 145 563 111 519 q 226 637 180 606 q 327 686 272 669 q 447 704 382 704 q 563 688 511 704 q 651 640 614 672 q 707 558 687 608 q 726 443 726 509 q 714 328 726 385 q 677 220 701 271 q 618 126 654 170 q 538 51 583 83 q 437 2 492 20 q 317 -16 381 -16 m 553 427 q 520 527 553 494 q 425 561 487 561 q 359 547 389 561 q 305 510 329 533 q 263 456 281 487 q 234 393 245 426 q 217 326 222 359 q 211 262 211 292 q 244 161 211 195 q 339 127 277 127 q 406 141 376 127 q 459 179 435 155 q 500 232 483 202 q 530 296 518 262 q 547 363 541 329 q 553 427 553 397 m 439 882 q 431 843 439 861 q 410 811 423 825 q 378 791 396 798 q 342 783 361 783 q 306 790 322 783 q 278 810 290 798 q 260 838 267 822 q 253 871 253 854 q 261 910 253 892 q 282 942 269 928 q 313 962 296 955 q 350 970 330 970 q 386 962 369 970 q 414 943 402 955 q 432 915 425 930 q 439 882 439 899 m 722 882 q 714 843 722 861 q 693 811 706 825 q 662 791 680 798 q 625 783 644 783 q 589 790 606 783 q 562 810 573 798 q 543 838 550 822 q 536 871 536 854 q 544 910 536 892 q 566 942 552 928 q 596 962 579 955 q 633 970 614 970 q 669 962 652 970 q 697 943 686 955 q 715 915 709 930 q 722 882 722 899 m 0 689 z "},"ō":{"ha":764,"x_min":0,"x_max":726,"o":"m 317 -16 q 201 0 252 -16 q 113 48 149 16 q 57 130 77 81 q 37 245 37 179 q 50 360 37 304 q 86 468 62 417 q 145 563 111 519 q 226 637 180 606 q 327 686 272 669 q 447 704 382 704 q 563 688 511 704 q 651 640 614 672 q 707 558 687 608 q 726 443 726 509 q 714 328 726 385 q 677 220 701 271 q 618 126 654 170 q 538 51 583 83 q 437 2 492 20 q 317 -16 381 -16 m 553 427 q 520 527 553 494 q 425 561 487 561 q 359 547 389 561 q 305 510 329 533 q 263 456 281 487 q 234 393 245 426 q 217 326 222 359 q 211 262 211 292 q 244 161 211 195 q 339 127 277 127 q 406 141 376 127 q 459 179 435 155 q 500 232 483 202 q 530 296 518 262 q 547 363 541 329 q 553 427 553 397 m 288 817 l 311 935 l 689 935 l 665 817 l 288 817 m 0 689 z "},"ŏ":{"ha":764,"x_min":0,"x_max":726,"o":"m 317 -16 q 201 0 252 -16 q 113 48 149 16 q 57 130 77 81 q 37 245 37 179 q 50 360 37 304 q 86 468 62 417 q 145 563 111 519 q 226 637 180 606 q 327 686 272 669 q 447 704 382 704 q 563 688 511 704 q 651 640 614 672 q 707 558 687 608 q 726 443 726 509 q 714 328 726 385 q 677 220 701 271 q 618 126 654 170 q 538 51 583 83 q 437 2 492 20 q 317 -16 381 -16 m 553 427 q 520 527 553 494 q 425 561 487 561 q 359 547 389 561 q 305 510 329 533 q 263 456 281 487 q 234 393 245 426 q 217 326 222 359 q 211 262 211 292 q 244 161 211 195 q 339 127 277 127 q 406 141 376 127 q 459 179 435 155 q 500 232 483 202 q 530 296 518 262 q 547 363 541 329 q 553 427 553 397 m 700 958 q 675 885 694 920 q 627 826 656 851 q 559 786 597 800 q 473 771 520 771 q 393 786 427 771 q 339 827 359 801 q 311 886 318 852 q 310 958 304 920 l 432 958 q 431 930 429 943 q 441 907 434 917 q 460 891 448 897 q 489 885 473 885 q 544 904 519 885 q 576 958 569 922 l 700 958 m 0 689 z "},"ő":{"ha":764,"x_min":0,"x_max":900,"o":"m 317 -16 q 201 0 252 -16 q 113 48 149 16 q 57 130 77 81 q 37 245 37 179 q 50 360 37 304 q 86 468 62 417 q 145 563 111 519 q 226 637 180 606 q 327 686 272 669 q 447 704 382 704 q 563 688 511 704 q 651 640 614 672 q 707 558 687 608 q 726 443 726 509 q 714 328 726 385 q 677 220 701 271 q 618 126 654 170 q 538 51 583 83 q 437 2 492 20 q 317 -16 381 -16 m 553 427 q 520 527 553 494 q 425 561 487 561 q 359 547 389 561 q 305 510 329 533 q 263 456 281 487 q 234 393 245 426 q 217 326 222 359 q 211 262 211 292 q 244 161 211 195 q 339 127 277 127 q 406 141 376 127 q 459 179 435 155 q 500 232 483 202 q 530 296 518 262 q 547 363 541 329 q 553 427 553 397 m 407 781 l 260 781 l 403 958 l 591 958 l 407 781 m 677 781 l 528 781 l 694 958 l 900 958 l 677 781 m 0 689 z "},"ø":{"ha":764,"x_min":37,"x_max":726,"o":"m 321 -16 q 287 -14 303 -16 q 256 -9 271 -12 l 182 -146 l 43 -146 l 139 31 q 64 115 91 62 q 37 245 37 168 q 50 360 37 304 q 85 468 62 417 q 143 563 109 519 q 223 637 178 606 q 323 686 268 669 q 443 704 378 704 q 505 700 475 704 l 579 835 l 718 835 l 623 660 q 699 574 671 628 q 726 443 726 521 q 714 328 726 385 q 679 220 702 271 q 621 126 655 170 q 541 51 586 83 q 440 2 496 20 q 321 -16 385 -16 m 200 260 q 204 212 200 234 q 218 174 209 191 l 433 569 l 421 569 q 351 554 382 569 q 296 516 320 540 q 253 460 271 492 q 223 394 235 429 q 206 325 212 360 q 200 260 200 290 m 559 428 q 542 513 559 481 l 326 119 l 339 119 q 408 134 377 119 q 464 172 439 148 q 506 228 488 196 q 536 293 524 259 q 554 362 548 328 q 559 428 559 397 z "},"ǿ":{"ha":764,"x_min":-40,"x_max":767,"o":"m 321 -16 q 287 -14 303 -16 q 256 -9 271 -12 l 182 -146 l 43 -146 l 139 31 q 64 115 91 62 q 37 245 37 168 q 50 360 37 304 q 85 468 62 417 q 143 563 109 519 q 223 637 178 606 q 323 686 268 669 q 443 704 378 704 q 505 700 475 704 l 579 835 l 718 835 l 623 660 q 699 574 671 628 q 726 443 726 521 q 714 328 726 385 q 679 220 702 271 q 621 126 655 170 q 541 51 586 83 q 440 2 496 20 q 321 -16 385 -16 m 200 260 q 204 212 200 234 q 218 174 209 191 l 433 569 l 421 569 q 351 554 382 569 q 296 516 320 540 q 253 460 271 492 q 223 394 235 429 q 206 325 212 360 q 200 260 200 290 m 559 428 q 542 513 559 481 l 326 119 l 339 119 q 408 134 377 119 q 464 172 439 148 q 506 228 488 196 q 536 293 524 259 q 554 362 548 328 q 559 428 559 397 m 550 871 l 385 871 l 543 1023 l 767 1023 l 550 871 m -40 777 z "},"œ":{"ha":764,"x_min":0,"x_max":782,"o":"m 340 91 q 308 49 327 69 q 265 15 288 29 q 217 -7 242 1 q 167 -16 192 -16 q 41 32 83 -16 q 0 183 0 80 q 5 261 0 219 q 20 351 10 302 q 61 498 36 433 q 120 609 85 564 q 199 680 155 655 q 300 704 243 704 q 387 679 353 704 q 432 599 420 653 q 511 676 465 649 q 615 704 557 704 q 683 692 652 704 q 735 659 713 681 q 770 604 758 636 q 782 529 782 571 q 768 450 782 491 q 720 375 753 409 q 630 318 686 340 q 490 296 574 296 l 443 296 q 438 266 439 282 q 437 232 437 249 q 460 136 437 170 q 532 101 484 101 q 601 112 566 101 q 668 135 635 122 l 668 18 q 589 -6 629 3 q 507 -16 549 -16 q 445 -9 473 -16 q 394 11 416 -2 q 358 45 372 24 q 340 91 345 65 m 314 346 q 330 434 324 396 q 335 500 335 471 q 321 566 335 545 q 282 587 308 587 q 244 573 262 587 q 210 530 227 558 q 179 455 194 501 q 151 345 164 410 q 131 187 131 243 q 144 122 131 142 q 184 101 157 101 q 221 115 203 101 q 255 158 239 128 q 286 233 271 187 q 314 346 301 279 m 501 401 q 607 431 566 401 q 647 518 647 460 q 643 550 647 537 q 630 572 638 563 q 612 584 622 581 q 591 587 602 587 q 550 573 569 587 q 516 535 532 559 q 486 477 500 511 q 463 401 473 444 l 501 401 z "},"þ":{"ha":764,"x_min":-29,"x_max":718,"o":"m 718 465 q 690 273 718 361 q 610 122 663 186 q 480 23 557 59 q 306 -12 404 -12 q 244 -11 273 -12 q 189 -5 215 -9 l 187 -14 l 136 -269 l -29 -269 l 31 29 l 216 958 l 382 958 l 335 722 l 286 579 q 330 631 304 608 q 385 671 355 654 q 447 695 414 687 q 514 704 480 704 q 666 642 614 704 q 718 465 718 579 m 546 454 q 527 537 546 509 q 471 566 509 566 q 427 554 450 566 q 381 523 404 543 q 337 476 359 503 q 298 419 316 449 q 267 357 280 389 q 249 294 254 325 l 216 132 q 261 121 238 125 q 310 117 284 117 q 394 134 358 117 q 457 179 431 151 q 500 243 483 208 q 528 317 517 279 q 542 390 538 354 q 546 454 546 426 z "},"ŕ":{"ha":764,"x_min":0,"x_max":793,"o":"m 553 421 q 563 490 562 463 q 556 535 564 518 q 533 558 549 551 q 496 566 518 566 q 429 539 463 566 q 364 468 395 512 q 309 368 333 425 q 272 252 284 311 l 222 0 l 53 0 l 126 368 q 134 414 130 389 q 143 476 138 439 q 153 564 147 512 q 165 689 158 615 l 300 689 l 293 554 q 331 608 308 581 q 385 656 355 635 q 454 691 416 677 q 538 704 492 704 q 638 685 597 704 q 703 630 680 666 q 731 542 726 594 q 720 421 735 489 l 553 421 m 550 781 l 385 781 l 570 958 l 793 958 l 550 781 m 0 689 z "},"ř":{"ha":764,"x_min":0,"x_max":735,"o":"m 553 421 q 563 490 562 463 q 556 535 564 518 q 533 558 549 551 q 496 566 518 566 q 429 539 463 566 q 364 468 395 512 q 309 368 333 425 q 272 252 284 311 l 222 0 l 53 0 l 126 368 q 134 414 130 389 q 143 476 138 439 q 153 564 147 512 q 165 689 158 615 l 300 689 l 293 554 q 331 608 308 581 q 385 656 355 635 q 454 691 416 677 q 538 704 492 704 q 638 685 597 704 q 703 630 680 666 q 731 542 726 594 q 720 421 735 489 l 553 421 m 406 781 l 275 958 l 415 958 l 482 875 l 582 958 l 733 958 l 530 781 l 406 781 m 0 689 z "},"ŗ":{"ha":764,"x_min":53,"x_max":735,"o":"m 553 421 q 563 490 562 463 q 556 535 564 518 q 533 558 549 551 q 496 566 518 566 q 429 539 463 566 q 364 468 395 512 q 309 368 333 425 q 272 252 284 311 l 222 0 l 53 0 l 126 368 q 134 414 130 389 q 143 476 138 439 q 153 564 147 512 q 165 689 158 615 l 300 689 l 293 554 q 331 608 308 581 q 385 656 355 635 q 454 691 416 677 q 538 704 492 704 q 638 685 597 704 q 703 630 680 666 q 731 542 726 594 q 720 421 735 489 l 553 421 m 376 -78 l 277 -278 l 143 -278 l 220 -78 l 376 -78 z "},"ś":{"ha":764,"x_min":0,"x_max":793,"o":"m 53 160 q 185 123 122 136 q 302 111 248 111 q 418 136 382 111 q 454 200 454 161 q 449 225 454 214 q 429 246 444 236 q 390 267 415 256 q 326 289 366 277 q 184 368 231 318 q 136 493 136 417 q 158 575 136 536 q 221 642 180 613 q 325 687 263 671 q 467 704 387 704 q 583 698 534 704 q 667 685 631 692 l 667 550 q 551 576 601 570 q 460 582 500 582 q 389 575 418 582 q 344 555 361 568 q 320 528 327 542 q 313 501 313 514 q 319 473 313 486 q 340 450 325 461 q 382 429 356 439 q 449 406 409 418 q 587 331 541 376 q 633 218 633 286 q 608 114 633 158 q 537 41 582 71 q 432 -2 492 12 q 302 -16 372 -16 q 163 -8 224 -16 q 53 11 102 -1 l 53 160 m 550 781 l 385 781 l 570 958 l 793 958 l 550 781 m 0 689 z "},"ŝ":{"ha":764,"x_min":0,"x_max":699,"o":"m 53 160 q 185 123 122 136 q 302 111 248 111 q 418 136 382 111 q 454 200 454 161 q 449 225 454 214 q 429 246 444 236 q 390 267 415 256 q 326 289 366 277 q 184 368 231 318 q 136 493 136 417 q 158 575 136 536 q 221 642 180 613 q 325 687 263 671 q 467 704 387 704 q 583 698 534 704 q 667 685 631 692 l 667 550 q 551 576 601 570 q 460 582 500 582 q 389 575 418 582 q 344 555 361 568 q 320 528 327 542 q 313 501 313 514 q 319 473 313 486 q 340 450 325 461 q 382 429 356 439 q 449 406 409 418 q 587 331 541 376 q 633 218 633 286 q 608 114 633 158 q 537 41 582 71 q 432 -2 492 12 q 302 -16 372 -16 q 163 -8 224 -16 q 53 11 102 -1 l 53 160 m 568 958 l 699 781 l 558 781 l 492 864 l 392 781 l 240 781 l 443 958 l 568 958 m 0 689 z "},"š":{"ha":764,"x_min":0,"x_max":733,"o":"m 53 160 q 185 123 122 136 q 302 111 248 111 q 418 136 382 111 q 454 200 454 161 q 449 225 454 214 q 429 246 444 236 q 390 267 415 256 q 326 289 366 277 q 184 368 231 318 q 136 493 136 417 q 158 575 136 536 q 221 642 180 613 q 325 687 263 671 q 467 704 387 704 q 583 698 534 704 q 667 685 631 692 l 667 550 q 551 576 601 570 q 460 582 500 582 q 389 575 418 582 q 344 555 361 568 q 320 528 327 542 q 313 501 313 514 q 319 473 313 486 q 340 450 325 461 q 382 429 356 439 q 449 406 409 418 q 587 331 541 376 q 633 218 633 286 q 608 114 633 158 q 537 41 582 71 q 432 -2 492 12 q 302 -16 372 -16 q 163 -8 224 -16 q 53 11 102 -1 l 53 160 m 406 781 l 275 958 l 415 958 l 482 875 l 582 958 l 733 958 l 530 781 l 406 781 m 0 689 z "},"ş":{"ha":764,"x_min":53,"x_max":667,"o":"m 53 160 q 185 123 122 136 q 302 111 248 111 q 418 136 382 111 q 454 200 454 161 q 449 225 454 214 q 429 246 444 236 q 390 267 415 256 q 326 289 366 277 q 184 368 231 318 q 136 493 136 417 q 158 575 136 536 q 221 642 180 613 q 325 687 263 671 q 467 704 387 704 q 583 698 534 704 q 667 685 631 692 l 667 550 q 551 574 601 567 q 460 581 500 581 q 389 574 418 581 q 344 554 361 567 q 320 528 327 542 q 313 501 313 514 q 319 473 313 486 q 340 450 325 461 q 382 429 356 439 q 449 406 409 418 q 587 331 541 376 q 633 218 633 286 q 615 130 633 168 q 565 63 597 91 q 489 17 533 35 q 392 -9 444 -1 l 289 -200 l 167 -200 l 236 -14 q 136 -5 181 -12 q 53 11 91 1 l 53 160 z "},"ș":{"ha":764,"x_min":53,"x_max":667,"o":"m 53 160 q 185 123 122 136 q 302 111 248 111 q 418 136 382 111 q 454 200 454 161 q 449 225 454 214 q 429 246 444 236 q 390 267 415 256 q 326 289 366 277 q 184 368 231 318 q 136 493 136 417 q 158 575 136 536 q 221 642 180 613 q 325 687 263 671 q 467 704 387 704 q 583 698 534 704 q 667 685 631 692 l 667 550 q 551 576 601 570 q 460 582 500 582 q 389 575 418 582 q 344 555 361 568 q 320 528 327 542 q 313 501 313 514 q 319 473 313 486 q 340 450 325 461 q 382 429 356 439 q 449 406 409 418 q 587 331 541 376 q 633 218 633 286 q 608 114 633 158 q 537 41 582 71 q 432 -2 492 12 q 302 -16 372 -16 q 163 -8 224 -16 q 53 11 102 -1 l 53 160 m 376 -78 l 277 -278 l 143 -278 l 220 -78 l 376 -78 z "},"ß":{"ha":764,"x_min":-69,"x_max":743,"o":"m 696 215 q 677 128 696 169 q 621 56 658 87 q 528 7 583 25 q 399 -11 472 -11 q 363 -10 381 -11 q 329 -8 345 -9 q 297 -5 312 -7 q 272 0 283 -3 l 298 135 q 351 123 322 127 q 410 118 380 118 q 494 143 465 118 q 524 208 524 168 q 512 248 524 230 q 484 284 501 267 q 447 320 467 302 q 410 360 427 338 q 382 409 393 382 q 371 472 371 437 q 386 552 371 519 q 425 609 401 585 q 474 651 448 633 q 524 688 501 669 q 563 729 547 707 q 578 783 578 751 q 571 812 578 800 q 552 830 564 823 q 525 841 541 838 q 490 844 509 844 q 386 808 427 844 q 329 697 345 772 l 191 0 q 153 -137 176 -72 q 96 -269 130 -202 l -69 -269 q -39 -205 -54 -239 q -13 -136 -25 -172 q 9 -66 -1 -101 q 25 0 19 -32 l 164 699 q 210 822 178 770 q 286 907 241 873 q 387 956 331 940 q 505 971 442 971 q 607 959 562 971 q 681 923 651 946 q 727 868 711 901 q 743 794 743 835 q 728 710 743 745 q 691 651 713 676 q 642 608 668 626 q 593 572 616 589 q 555 536 570 555 q 541 492 541 517 q 552 449 541 469 q 581 412 564 430 q 618 374 598 393 q 655 331 638 354 q 684 280 673 308 q 696 215 696 252 z "},"ſ":{"ha":764,"x_min":14,"x_max":812,"o":"m 721 777 q 664 823 698 806 q 587 840 630 840 q 473 793 517 840 q 412 663 429 747 l 280 0 q 239 -137 265 -72 q 179 -269 213 -202 l 14 -269 q 44 -205 29 -239 q 71 -136 58 -172 q 93 -66 83 -101 q 109 0 102 -32 l 241 671 q 283 794 255 739 q 356 890 312 850 q 458 952 399 930 q 593 974 517 974 q 664 966 630 974 q 726 945 698 958 q 776 916 754 932 q 812 882 798 899 l 721 777 z "},"ť":{"ha":764,"x_min":-106,"x_max":880,"o":"m 608 9 q 515 -9 562 -2 q 428 -16 469 -16 q 312 -1 360 -16 q 235 47 263 14 q 199 132 206 79 q 207 258 192 184 l 268 560 l 83 560 l 109 689 l 293 689 l 329 865 l 507 909 l 463 689 l 730 689 l 705 560 l 437 560 l 376 257 q 370 196 370 222 q 380 154 370 170 q 410 129 390 138 q 461 119 429 119 q 536 126 499 119 q 608 141 574 133 l 608 9 m 761 781 l 627 781 l 720 1010 l 880 1010 l 761 781 m -106 689 z "},"ț":{"ha":764,"x_min":83,"x_max":730,"o":"m 608 9 q 515 -9 562 -2 q 428 -16 469 -16 q 312 -1 360 -16 q 235 47 263 14 q 199 132 206 79 q 207 258 192 184 l 268 560 l 83 560 l 109 689 l 293 689 l 329 865 l 507 909 l 463 689 l 730 689 l 705 560 l 437 560 l 376 257 q 370 196 370 222 q 380 154 370 170 q 410 129 390 138 q 461 119 429 119 q 536 126 499 119 q 608 141 574 133 l 608 9 m 376 -78 l 277 -278 l 143 -278 l 220 -78 l 376 -78 z "},"ŧ":{"ha":764,"x_min":0,"x_max":730,"o":"m 608 9 q 515 -9 562 -2 q 428 -16 469 -16 q 312 -1 360 -16 q 235 47 263 14 q 199 132 206 79 q 207 258 192 184 l 214 293 l 57 293 l 82 422 l 239 422 l 268 560 l 83 560 l 109 689 l 293 689 l 329 865 l 507 909 l 463 689 l 730 689 l 705 562 l 705 560 l 437 560 l 408 422 l 635 422 l 610 293 l 383 293 l 376 257 q 370 194 370 222 q 380 149 370 165 q 410 125 390 133 q 461 117 429 117 q 536 122 499 117 q 608 136 574 128 l 608 9 m 0 689 z "},"ù":{"ha":764,"x_min":0,"x_max":734,"o":"m 328 689 l 237 240 q 241 154 227 184 q 289 123 254 123 q 355 149 320 123 q 422 213 391 174 q 478 300 454 252 q 511 395 503 349 l 570 689 l 734 689 l 661 321 q 653 274 657 299 q 645 213 649 250 q 635 125 640 177 q 623 0 629 74 l 488 0 l 493 125 q 454 76 477 101 q 398 31 430 52 q 329 -2 367 11 q 245 -16 290 -16 q 152 3 191 -16 q 92 55 114 21 q 65 136 70 88 q 72 243 60 184 l 163 689 l 328 689 m 379 958 l 550 781 l 385 781 l 155 958 l 379 958 m 0 689 z "},"ú":{"ha":764,"x_min":0,"x_max":793,"o":"m 328 689 l 237 240 q 241 154 227 184 q 289 123 254 123 q 355 149 320 123 q 422 213 391 174 q 478 300 454 252 q 511 395 503 349 l 570 689 l 734 689 l 661 321 q 653 274 657 299 q 645 213 649 250 q 635 125 640 177 q 623 0 629 74 l 488 0 l 493 125 q 454 76 477 101 q 398 31 430 52 q 329 -2 367 11 q 245 -16 290 -16 q 152 3 191 -16 q 92 55 114 21 q 65 136 70 88 q 72 243 60 184 l 163 689 l 328 689 m 550 781 l 385 781 l 570 958 l 793 958 l 550 781 m 0 689 z "},"û":{"ha":764,"x_min":0,"x_max":734,"o":"m 328 689 l 237 240 q 241 154 227 184 q 289 123 254 123 q 355 149 320 123 q 422 213 391 174 q 478 300 454 252 q 511 395 503 349 l 570 689 l 734 689 l 661 321 q 653 274 657 299 q 645 213 649 250 q 635 125 640 177 q 623 0 629 74 l 488 0 l 493 125 q 454 76 477 101 q 398 31 430 52 q 329 -2 367 11 q 245 -16 290 -16 q 152 3 191 -16 q 92 55 114 21 q 65 136 70 88 q 72 243 60 184 l 163 689 l 328 689 m 568 958 l 699 781 l 558 781 l 492 864 l 392 781 l 240 781 l 443 958 l 568 958 m 0 689 z "},"ũ":{"ha":764,"x_min":0,"x_max":746,"o":"m 328 689 l 237 240 q 241 154 227 184 q 289 123 254 123 q 355 149 320 123 q 422 213 391 174 q 478 300 454 252 q 511 395 503 349 l 570 689 l 734 689 l 661 321 q 653 274 657 299 q 645 213 649 250 q 635 125 640 177 q 623 0 629 74 l 488 0 l 493 125 q 454 76 477 101 q 398 31 430 52 q 329 -2 367 11 q 245 -16 290 -16 q 152 3 191 -16 q 92 55 114 21 q 65 136 70 88 q 72 243 60 184 l 163 689 l 328 689 m 746 885 q 675 804 716 830 q 579 778 635 778 q 514 789 541 778 q 466 815 487 801 q 426 841 445 829 q 386 852 408 852 q 339 837 361 852 q 297 791 318 821 l 228 865 q 395 972 286 972 q 460 960 433 972 q 507 935 486 949 q 547 909 528 921 q 587 897 566 897 q 634 913 612 897 q 676 958 655 929 l 746 885 m 0 689 z "},"ü":{"ha":764,"x_min":0,"x_max":734,"o":"m 328 689 l 237 240 q 241 154 227 184 q 289 123 254 123 q 355 149 320 123 q 422 213 391 174 q 478 300 454 252 q 511 395 503 349 l 570 689 l 734 689 l 661 321 q 653 274 657 299 q 645 213 649 250 q 635 125 640 177 q 623 0 629 74 l 488 0 l 493 125 q 454 76 477 101 q 398 31 430 52 q 329 -2 367 11 q 245 -16 290 -16 q 152 3 191 -16 q 92 55 114 21 q 65 136 70 88 q 72 243 60 184 l 163 689 l 328 689 m 439 882 q 431 843 439 861 q 410 811 423 825 q 378 791 396 798 q 342 783 361 783 q 306 790 322 783 q 278 810 290 798 q 260 838 267 822 q 253 871 253 854 q 261 910 253 892 q 282 942 269 928 q 313 962 296 955 q 350 970 330 970 q 386 962 369 970 q 414 943 402 955 q 432 915 425 930 q 439 882 439 899 m 722 882 q 714 843 722 861 q 693 811 706 825 q 662 791 680 798 q 625 783 644 783 q 589 790 606 783 q 562 810 573 798 q 543 838 550 822 q 536 871 536 854 q 544 910 536 892 q 566 942 552 928 q 596 962 579 955 q 633 970 614 970 q 669 962 652 970 q 697 943 686 955 q 715 915 709 930 q 722 882 722 899 m 0 689 z "},"ū":{"ha":764,"x_min":0,"x_max":734,"o":"m 328 689 l 237 240 q 241 154 227 184 q 289 123 254 123 q 355 149 320 123 q 422 213 391 174 q 478 300 454 252 q 511 395 503 349 l 570 689 l 734 689 l 661 321 q 653 274 657 299 q 645 213 649 250 q 635 125 640 177 q 623 0 629 74 l 488 0 l 493 125 q 454 76 477 101 q 398 31 430 52 q 329 -2 367 11 q 245 -16 290 -16 q 152 3 191 -16 q 92 55 114 21 q 65 136 70 88 q 72 243 60 184 l 163 689 l 328 689 m 288 817 l 311 935 l 689 935 l 665 817 l 288 817 m 0 689 z "},"ŭ":{"ha":764,"x_min":0,"x_max":734,"o":"m 328 689 l 237 240 q 241 154 227 184 q 289 123 254 123 q 355 149 320 123 q 422 213 391 174 q 478 300 454 252 q 511 395 503 349 l 570 689 l 734 689 l 661 321 q 653 274 657 299 q 645 213 649 250 q 635 125 640 177 q 623 0 629 74 l 488 0 l 493 125 q 454 76 477 101 q 398 31 430 52 q 329 -2 367 11 q 245 -16 290 -16 q 152 3 191 -16 q 92 55 114 21 q 65 136 70 88 q 72 243 60 184 l 163 689 l 328 689 m 700 958 q 675 885 694 920 q 627 826 656 851 q 559 786 597 800 q 473 771 520 771 q 393 786 427 771 q 339 827 359 801 q 311 886 318 852 q 310 958 304 920 l 432 958 q 431 930 429 943 q 441 907 434 917 q 460 891 448 897 q 489 885 473 885 q 544 904 519 885 q 576 958 569 922 l 700 958 m 0 689 z "},"ů":{"ha":764,"x_min":0,"x_max":734,"o":"m 328 689 l 237 240 q 241 154 227 184 q 289 123 254 123 q 355 149 320 123 q 422 213 391 174 q 478 300 454 252 q 511 395 503 349 l 570 689 l 734 689 l 661 321 q 653 274 657 299 q 645 213 649 250 q 635 125 640 177 q 623 0 629 74 l 488 0 l 493 125 q 454 76 477 101 q 398 31 430 52 q 329 -2 367 11 q 245 -16 290 -16 q 152 3 191 -16 q 92 55 114 21 q 65 136 70 88 q 72 243 60 184 l 163 689 l 328 689 m 653 908 q 639 841 653 871 q 602 789 625 811 q 549 755 579 768 q 485 743 518 743 q 423 755 452 743 q 373 786 394 766 q 340 832 352 806 q 328 889 328 859 q 342 957 328 926 q 380 1008 356 987 q 434 1041 404 1029 q 498 1053 465 1053 q 561 1041 532 1053 q 610 1010 589 1030 q 642 965 630 991 q 653 908 653 939 m 554 898 q 539 943 556 925 q 494 962 522 962 q 448 943 467 962 q 427 898 429 925 q 431 873 426 884 q 444 852 435 861 q 464 839 452 844 q 489 834 475 834 q 534 852 516 834 q 554 898 553 871 m 0 689 z "},"ű":{"ha":764,"x_min":0,"x_max":900,"o":"m 328 689 l 237 240 q 241 154 227 184 q 289 123 254 123 q 355 149 320 123 q 422 213 391 174 q 478 300 454 252 q 511 395 503 349 l 570 689 l 734 689 l 661 321 q 653 274 657 299 q 645 213 649 250 q 635 125 640 177 q 623 0 629 74 l 488 0 l 493 125 q 454 76 477 101 q 398 31 430 52 q 329 -2 367 11 q 245 -16 290 -16 q 152 3 191 -16 q 92 55 114 21 q 65 136 70 88 q 72 243 60 184 l 163 689 l 328 689 m 407 781 l 260 781 l 403 958 l 591 958 l 407 781 m 677 781 l 528 781 l 694 958 l 900 958 l 677 781 m 0 689 z "},"ų":{"ha":764,"x_min":60,"x_max":734,"o":"m 615 -261 q 564 -271 592 -267 q 515 -275 536 -275 q 444 -266 472 -275 q 400 -242 416 -257 q 377 -208 384 -227 q 371 -170 371 -189 q 376 -132 371 -151 q 394 -93 381 -113 q 429 -49 407 -72 q 488 0 452 -26 l 493 125 q 454 76 477 101 q 398 31 430 52 q 329 -2 367 11 q 245 -16 290 -16 q 152 3 191 -16 q 92 55 114 21 q 65 136 70 88 q 72 243 60 184 l 163 689 l 328 689 l 237 240 q 241 154 227 184 q 289 123 254 123 q 355 149 320 123 q 422 213 391 174 q 478 300 454 252 q 511 395 503 349 l 570 689 l 734 689 l 661 321 q 653 274 657 299 q 645 213 649 250 q 635 125 640 177 q 623 0 629 74 q 573 -53 592 -31 q 543 -92 553 -75 q 529 -120 532 -109 q 525 -142 525 -132 q 534 -160 525 -153 q 567 -167 543 -167 q 591 -165 577 -167 q 615 -161 605 -163 l 615 -261 z "},"ẁ":{"ha":764,"x_min":0,"x_max":794,"o":"m 794 689 q 769 498 788 596 q 719 309 751 401 q 643 138 688 218 q 539 0 598 58 l 408 0 l 378 218 l 371 294 l 334 216 l 220 0 l 33 0 l 74 689 l 228 689 l 200 300 l 191 193 l 237 289 l 349 498 l 475 498 l 507 290 l 519 192 q 572 300 550 240 q 608 427 593 361 q 630 559 622 492 q 640 689 637 627 l 794 689 m 379 958 l 550 781 l 385 781 l 155 958 l 379 958 m 0 689 z "},"ẃ":{"ha":764,"x_min":0,"x_max":794,"o":"m 794 689 q 769 498 788 596 q 719 309 751 401 q 643 138 688 218 q 539 0 598 58 l 408 0 l 378 218 l 371 294 l 334 216 l 220 0 l 33 0 l 74 689 l 228 689 l 200 300 l 191 193 l 237 289 l 349 498 l 475 498 l 507 290 l 519 192 q 572 300 550 240 q 608 427 593 361 q 630 559 622 492 q 640 689 637 627 l 794 689 m 550 781 l 385 781 l 570 958 l 793 958 l 550 781 m 0 689 z "},"ŵ":{"ha":764,"x_min":0,"x_max":794,"o":"m 794 689 q 769 498 788 596 q 719 309 751 401 q 643 138 688 218 q 539 0 598 58 l 408 0 l 378 218 l 371 294 l 334 216 l 220 0 l 33 0 l 74 689 l 228 689 l 200 300 l 191 193 l 237 289 l 349 498 l 475 498 l 507 290 l 519 192 q 572 300 550 240 q 608 427 593 361 q 630 559 622 492 q 640 689 637 627 l 794 689 m 568 958 l 699 781 l 558 781 l 492 864 l 392 781 l 240 781 l 443 958 l 568 958 m 0 689 z "},"ẅ":{"ha":764,"x_min":0,"x_max":794,"o":"m 794 689 q 769 498 788 596 q 719 309 751 401 q 643 138 688 218 q 539 0 598 58 l 408 0 l 378 218 l 371 294 l 334 216 l 220 0 l 33 0 l 74 689 l 228 689 l 200 300 l 191 193 l 237 289 l 349 498 l 475 498 l 507 290 l 519 192 q 572 300 550 240 q 608 427 593 361 q 630 559 622 492 q 640 689 637 627 l 794 689 m 439 882 q 431 843 439 861 q 410 811 423 825 q 378 791 396 798 q 342 783 361 783 q 306 790 322 783 q 278 810 290 798 q 260 838 267 822 q 253 871 253 854 q 261 910 253 892 q 282 942 269 928 q 313 962 296 955 q 350 970 330 970 q 386 962 369 970 q 414 943 402 955 q 432 915 425 930 q 439 882 439 899 m 722 882 q 714 843 722 861 q 693 811 706 825 q 662 791 680 798 q 625 783 644 783 q 589 790 606 783 q 562 810 573 798 q 543 838 550 822 q 536 871 536 854 q 544 910 536 892 q 566 942 552 928 q 596 962 579 955 q 633 970 614 970 q 669 962 652 970 q 697 943 686 955 q 715 915 709 930 q 722 882 722 899 m 0 689 z "},"ỳ":{"ha":764,"x_min":-78,"x_max":749,"o":"m 749 689 q 735 603 743 645 q 714 518 727 561 q 683 431 701 475 q 637 336 664 386 q 576 230 611 286 q 496 109 541 174 q 388 -37 437 25 q 295 -142 338 -98 q 214 -213 252 -185 q 140 -257 176 -241 q 70 -279 104 -273 q 0 -285 35 -285 q -44 -283 -25 -285 q -78 -279 -63 -281 l -78 -139 q -37 -144 -58 -142 q 5 -146 -16 -146 q 58 -139 34 -146 q 107 -115 82 -132 q 159 -70 132 -98 q 220 0 186 -42 l 83 689 l 256 689 l 353 157 q 425 268 393 217 q 479 363 456 319 q 519 448 503 408 q 546 527 535 488 q 563 606 556 566 q 572 689 569 646 l 749 689 m 379 958 l 550 781 l 385 781 l 155 958 l 379 958 m 0 689 z "},"ý":{"ha":764,"x_min":-78,"x_max":793,"o":"m 749 689 q 735 603 743 645 q 714 518 727 561 q 683 431 701 475 q 637 336 664 386 q 576 230 611 286 q 496 109 541 174 q 388 -37 437 25 q 295 -142 338 -98 q 214 -213 252 -185 q 140 -257 176 -241 q 70 -279 104 -273 q 0 -285 35 -285 q -44 -283 -25 -285 q -78 -279 -63 -281 l -78 -139 q -37 -144 -58 -142 q 5 -146 -16 -146 q 58 -139 34 -146 q 107 -115 82 -132 q 159 -70 132 -98 q 220 0 186 -42 l 83 689 l 256 689 l 353 157 q 425 268 393 217 q 479 363 456 319 q 519 448 503 408 q 546 527 535 488 q 563 606 556 566 q 572 689 569 646 l 749 689 m 550 781 l 385 781 l 570 958 l 793 958 l 550 781 m 0 689 z "},"ŷ":{"ha":764,"x_min":-78,"x_max":749,"o":"m 749 689 q 735 603 743 645 q 714 518 727 561 q 683 431 701 475 q 637 336 664 386 q 576 230 611 286 q 496 109 541 174 q 388 -37 437 25 q 295 -142 338 -98 q 214 -213 252 -185 q 140 -257 176 -241 q 70 -279 104 -273 q 0 -285 35 -285 q -44 -283 -25 -285 q -78 -279 -63 -281 l -78 -139 q -37 -144 -58 -142 q 5 -146 -16 -146 q 58 -139 34 -146 q 107 -115 82 -132 q 159 -70 132 -98 q 220 0 186 -42 l 83 689 l 256 689 l 353 157 q 425 268 393 217 q 479 363 456 319 q 519 448 503 408 q 546 527 535 488 q 563 606 556 566 q 572 689 569 646 l 749 689 m 568 958 l 699 781 l 558 781 l 492 864 l 392 781 l 240 781 l 443 958 l 568 958 m 0 689 z "},"ÿ":{"ha":764,"x_min":-78,"x_max":749,"o":"m 749 689 q 735 603 743 645 q 714 518 727 561 q 683 431 701 475 q 637 336 664 386 q 576 230 611 286 q 496 109 541 174 q 388 -37 437 25 q 295 -142 338 -98 q 214 -213 252 -185 q 140 -257 176 -241 q 70 -279 104 -273 q 0 -285 35 -285 q -44 -283 -25 -285 q -78 -279 -63 -281 l -78 -139 q -37 -144 -58 -142 q 5 -146 -16 -146 q 58 -139 34 -146 q 107 -115 82 -132 q 159 -70 132 -98 q 220 0 186 -42 l 83 689 l 256 689 l 353 157 q 425 268 393 217 q 479 363 456 319 q 519 448 503 408 q 546 527 535 488 q 563 606 556 566 q 572 689 569 646 l 749 689 m 439 882 q 431 843 439 861 q 410 811 423 825 q 378 791 396 798 q 342 783 361 783 q 306 790 322 783 q 278 810 290 798 q 260 838 267 822 q 253 871 253 854 q 261 910 253 892 q 282 942 269 928 q 313 962 296 955 q 350 970 330 970 q 386 962 369 970 q 414 943 402 955 q 432 915 425 930 q 439 882 439 899 m 722 882 q 714 843 722 861 q 693 811 706 825 q 662 791 680 798 q 625 783 644 783 q 589 790 606 783 q 562 810 573 798 q 543 838 550 822 q 536 871 536 854 q 544 910 536 892 q 566 942 552 928 q 596 962 579 955 q 633 970 614 970 q 669 962 652 970 q 697 943 686 955 q 715 915 709 930 q 722 882 722 899 m 0 689 z "},"ź":{"ha":764,"x_min":0,"x_max":793,"o":"m 32 0 l 56 117 l 472 547 l 150 547 l 178 689 l 725 689 l 701 571 l 294 146 l 623 146 l 593 0 l 32 0 m 550 781 l 385 781 l 570 958 l 793 958 l 550 781 m 0 689 z "},"ž":{"ha":764,"x_min":0,"x_max":733,"o":"m 32 0 l 56 117 l 472 547 l 150 547 l 178 689 l 725 689 l 701 571 l 294 146 l 623 146 l 593 0 l 32 0 m 406 781 l 275 958 l 415 958 l 482 875 l 582 958 l 733 958 l 530 781 l 406 781 m 0 689 z "},"ż":{"ha":764,"x_min":0,"x_max":725,"o":"m 32 0 l 56 117 l 472 547 l 150 547 l 178 689 l 725 689 l 701 571 l 294 146 l 623 146 l 593 0 l 32 0 m 595 884 q 586 840 595 860 q 561 805 576 820 q 526 782 546 790 q 482 774 505 774 q 442 782 460 774 q 410 804 423 790 q 389 835 397 817 q 382 872 382 852 q 391 916 382 896 q 415 951 399 937 q 450 974 430 966 q 492 982 470 982 q 532 974 513 982 q 565 952 551 966 q 587 921 579 939 q 595 884 595 903 m 0 689 z "},"&":{"ha":764,"x_min":-7,"x_max":730,"o":"m 730 463 q 681 303 713 376 q 607 171 650 230 l 714 0 l 528 0 l 492 57 q 382 3 441 21 q 258 -16 323 -16 q 138 1 189 -16 q 56 48 88 18 q 8 117 24 77 q -7 203 -7 157 q 12 303 -7 258 q 60 384 30 348 q 131 450 91 420 q 215 505 171 479 l 208 518 q 172 597 184 557 q 160 673 160 638 q 182 786 160 734 q 243 874 204 837 q 336 932 282 911 q 452 953 389 953 q 552 937 511 953 q 621 894 594 920 q 661 835 648 868 q 673 768 673 802 q 651 669 673 712 q 593 593 629 627 q 512 531 557 559 q 418 478 466 503 l 526 301 q 556 376 543 336 q 578 463 570 416 l 730 463 m 161 218 q 189 145 161 173 q 273 118 216 118 q 424 170 355 118 l 281 400 q 233 363 254 382 q 195 321 211 344 q 170 274 179 299 q 161 218 161 248 m 514 751 q 495 806 514 787 q 437 825 475 825 q 392 816 414 825 q 354 790 370 807 q 327 748 337 772 q 317 693 317 724 q 324 646 317 674 q 354 581 331 618 q 416 617 387 599 q 467 656 446 636 q 502 700 489 677 q 514 751 514 724 z "},"`":{"ha":764,"x_min":0,"x_max":550,"o":"m 379 958 l 550 781 l 385 781 l 155 958 l 379 958 m 0 689 z "},"´":{"ha":764,"x_min":0,"x_max":793,"o":"m 550 781 l 385 781 l 570 958 l 793 958 l 550 781 m 0 689 z "},"ˆ":{"ha":764,"x_min":0,"x_max":699,"o":"m 568 958 l 699 781 l 558 781 l 492 864 l 392 781 l 240 781 l 443 958 l 568 958 m 0 689 z "},"ˇ":{"ha":764,"x_min":0,"x_max":733,"o":"m 406 781 l 275 958 l 415 958 l 482 875 l 582 958 l 733 958 l 530 781 l 406 781 m 0 689 z "},"̕":{"ha":764,"x_min":0,"x_max":986,"o":"m 867 781 l 733 781 l 825 1010 l 986 1010 l 867 781 m 0 689 z "},"˜":{"ha":764,"x_min":0,"x_max":746,"o":"m 746 885 q 675 804 716 830 q 579 778 635 778 q 514 789 541 778 q 466 815 487 801 q 426 841 445 829 q 386 852 408 852 q 339 837 361 852 q 297 791 318 821 l 228 865 q 395 972 286 972 q 460 960 433 972 q 507 935 486 949 q 547 909 528 921 q 587 897 566 897 q 634 913 612 897 q 676 958 655 929 l 746 885 m 0 689 z "},"¨":{"ha":764,"x_min":0,"x_max":722,"o":"m 439 882 q 431 843 439 861 q 410 811 423 825 q 378 791 396 798 q 342 783 361 783 q 306 790 322 783 q 278 810 290 798 q 260 838 267 822 q 253 871 253 854 q 261 910 253 892 q 282 942 269 928 q 313 962 296 955 q 350 970 330 970 q 386 962 369 970 q 414 943 402 955 q 432 915 425 930 q 439 882 439 899 m 722 882 q 714 843 722 861 q 693 811 706 825 q 662 791 680 798 q 625 783 644 783 q 589 790 606 783 q 562 810 573 798 q 543 838 550 822 q 536 871 536 854 q 544 910 536 892 q 566 942 552 928 q 596 962 579 955 q 633 970 614 970 q 669 962 652 970 q 697 943 686 955 q 715 915 709 930 q 722 882 722 899 m 0 689 z "},"¯":{"ha":764,"x_min":0,"x_max":689,"o":"m 288 817 l 311 935 l 689 935 l 665 817 l 288 817 m 0 689 z "},"˘":{"ha":764,"x_min":0,"x_max":700,"o":"m 700 958 q 675 885 694 920 q 627 826 656 851 q 559 786 597 800 q 473 771 520 771 q 393 786 427 771 q 339 827 359 801 q 311 886 318 852 q 310 958 304 920 l 432 958 q 431 930 429 943 q 441 907 434 917 q 460 891 448 897 q 489 885 473 885 q 544 904 519 885 q 576 958 569 922 l 700 958 m 0 689 z "},"˚":{"ha":764,"x_min":0,"x_max":653,"o":"m 653 908 q 639 841 653 871 q 602 789 625 811 q 549 755 579 768 q 485 743 518 743 q 423 755 452 743 q 373 786 394 766 q 340 832 352 806 q 328 889 328 859 q 342 957 328 926 q 380 1008 356 987 q 434 1041 404 1029 q 498 1053 465 1053 q 561 1041 532 1053 q 610 1010 589 1030 q 642 965 630 991 q 653 908 653 939 m 554 898 q 539 943 556 925 q 494 962 522 962 q 448 943 467 962 q 427 898 429 925 q 431 873 426 884 q 444 852 435 861 q 464 839 452 844 q 489 834 475 834 q 534 852 516 834 q 554 898 553 871 m 0 689 z "},"˝":{"ha":764,"x_min":0,"x_max":900,"o":"m 407 781 l 260 781 l 403 958 l 591 958 l 407 781 m 677 781 l 528 781 l 694 958 l 900 958 l 677 781 m 0 689 z "},"˙":{"ha":764,"x_min":0,"x_max":595,"o":"m 595 884 q 586 840 595 860 q 561 805 576 820 q 526 782 546 790 q 482 774 505 774 q 442 782 460 774 q 410 804 423 790 q 389 835 397 817 q 382 872 382 852 q 391 916 382 896 q 415 951 399 937 q 450 974 430 966 q 492 982 470 982 q 532 974 513 982 q 565 952 551 966 q 587 921 579 939 q 595 884 595 903 m 0 689 z "},"¸":{"ha":764,"x_min":178,"x_max":408,"o":"m 300 -200 l 178 -200 l 253 0 l 408 0 l 300 -200 z "},"˛":{"ha":764,"x_min":345,"x_max":596,"o":"m 589 -261 q 538 -271 566 -267 q 489 -275 510 -275 q 418 -266 446 -275 q 374 -242 390 -257 q 351 -208 357 -227 q 345 -170 345 -189 q 350 -132 345 -151 q 368 -93 355 -113 q 403 -49 380 -72 q 460 0 425 -26 l 596 0 q 546 -53 566 -31 q 516 -92 527 -75 q 502 -120 506 -109 q 498 -142 498 -132 q 508 -160 498 -153 q 541 -167 517 -167 q 565 -165 551 -167 q 589 -161 578 -163 l 589 -261 z "},"̦":{"ha":764,"x_min":143,"x_max":376,"o":"m 376 -78 l 277 -278 l 143 -278 l 220 -78 l 376 -78 z "},"̒":{"ha":764,"x_min":0,"x_max":635,"o":"m 395 794 l 504 994 l 635 994 l 549 794 l 395 794 m 0 689 z "},",":{"ha":764,"x_min":37,"x_max":460,"o":"m 37 -131 q 131 -121 90 -132 q 202 -93 173 -111 q 248 -52 232 -75 q 264 -5 264 -29 q 256 26 264 12 q 240 54 249 40 q 224 86 231 68 q 216 127 216 103 q 225 177 216 154 q 250 216 234 199 q 289 243 266 233 q 339 253 311 253 q 392 242 369 253 q 430 213 414 232 q 452 168 445 194 q 460 111 460 142 q 426 -33 460 31 q 335 -143 393 -98 q 200 -214 277 -189 q 37 -239 123 -239 l 37 -131 z "},";":{"ha":764,"x_min":46,"x_max":550,"o":"m 433 696 q 480 686 458 696 q 517 661 502 677 q 541 624 532 645 q 550 579 550 602 q 540 528 550 551 q 512 488 530 505 q 472 461 495 471 q 424 452 449 452 q 376 461 398 452 q 339 487 355 471 q 315 524 323 503 q 306 568 306 545 q 316 619 306 595 q 344 660 327 642 q 385 686 361 677 q 433 696 408 696 m 46 -131 q 140 -121 98 -132 q 211 -93 182 -111 q 256 -52 240 -75 q 272 -5 272 -29 q 264 26 272 12 q 249 54 257 40 q 233 86 240 68 q 225 127 225 103 q 234 177 225 154 q 259 216 243 199 q 297 243 275 233 q 347 253 319 253 q 400 242 378 253 q 438 213 422 232 q 460 168 453 194 q 468 111 468 142 q 434 -33 468 31 q 343 -143 401 -98 q 209 -214 286 -189 q 46 -239 132 -239 l 46 -131 z "},":":{"ha":764,"x_min":211,"x_max":550,"o":"m 339 229 q 386 220 364 229 q 422 194 408 210 q 446 157 437 178 q 455 113 455 136 q 445 61 455 85 q 418 21 435 38 q 378 -6 401 3 q 329 -16 355 -16 q 282 -6 303 -16 q 244 19 260 3 q 220 57 229 35 q 211 102 211 78 q 221 152 211 129 q 250 193 232 176 q 290 220 267 210 q 339 229 313 229 m 433 696 q 480 686 458 696 q 517 661 502 677 q 541 624 532 645 q 550 579 550 602 q 540 528 550 551 q 512 488 530 505 q 472 461 495 471 q 424 452 449 452 q 376 461 398 452 q 339 487 355 471 q 315 524 323 503 q 306 568 306 545 q 316 619 306 595 q 344 660 327 642 q 385 686 361 677 q 433 696 408 696 z "},".":{"ha":764,"x_min":201,"x_max":465,"o":"m 338 250 q 389 240 366 250 q 429 212 412 229 q 456 172 446 195 q 465 123 465 149 q 454 68 465 94 q 424 24 443 43 q 380 -5 405 5 q 326 -16 355 -16 q 276 -5 299 -16 q 237 23 254 5 q 211 63 220 40 q 201 110 201 85 q 213 166 201 140 q 242 210 224 191 q 286 240 261 229 q 338 250 311 250 z "},"…":{"ha":764,"x_min":-29,"x_max":693,"o":"m 168 92 q 159 49 168 68 q 136 15 151 29 q 103 -7 122 1 q 65 -16 85 -16 q 27 -8 44 -16 q -3 13 9 -1 q -22 44 -16 26 q -29 83 -29 62 q -21 124 -29 105 q 2 157 -12 143 q 34 179 16 171 q 72 187 52 187 q 111 179 93 187 q 141 158 128 172 q 161 128 154 145 q 168 92 168 111 m 431 92 q 422 49 431 68 q 399 15 413 29 q 366 -7 385 1 q 328 -16 347 -16 q 289 -8 307 -16 q 259 13 272 -1 q 240 44 247 26 q 233 83 233 62 q 242 124 233 105 q 264 157 250 143 q 297 179 279 171 q 335 187 315 187 q 373 179 355 187 q 404 158 391 172 q 424 128 416 145 q 431 92 431 111 m 693 92 q 684 49 693 68 q 661 15 675 29 q 628 -7 647 1 q 590 -16 610 -16 q 552 -8 569 -16 q 522 13 534 -1 q 503 44 509 26 q 496 83 496 62 q 504 124 496 105 q 527 157 513 143 q 559 179 541 171 q 597 187 578 187 q 636 179 618 187 q 666 158 653 172 q 686 128 679 145 q 693 92 693 111 z "},"-":{"ha":764,"x_min":160,"x_max":612,"o":"m 160 296 l 191 443 l 612 443 l 582 296 l 160 296 z "},"!":{"ha":764,"x_min":221,"x_max":600,"o":"m 437 275 l 296 275 l 408 958 l 600 958 l 437 275 m 443 98 q 433 53 443 73 q 406 17 422 32 q 368 -7 389 1 q 323 -16 347 -16 q 282 -7 300 -16 q 250 15 263 1 q 229 48 236 29 q 221 87 221 66 q 231 133 221 113 q 257 169 241 154 q 295 193 273 184 q 339 201 316 201 q 381 193 362 201 q 414 171 400 185 q 435 138 427 157 q 443 98 443 119 z "},"¡":{"ha":764,"x_min":163,"x_max":543,"o":"m 323 414 l 465 414 l 354 -269 l 163 -269 l 323 414 m 543 602 q 533 555 543 576 q 506 519 523 534 q 468 496 490 505 q 424 488 447 488 q 382 496 401 488 q 349 518 363 504 q 328 550 336 532 q 321 590 321 569 q 331 636 321 615 q 357 672 340 657 q 394 695 373 687 q 439 704 416 704 q 481 696 462 704 q 514 674 500 688 q 535 641 528 660 q 543 602 543 623 z "},"?":{"ha":764,"x_min":170,"x_max":718,"o":"m 718 694 q 700 590 718 641 q 644 499 682 539 q 551 432 607 458 q 419 403 494 406 l 386 275 l 244 275 l 283 530 l 375 530 q 453 544 422 530 q 503 578 484 557 q 529 625 521 599 q 536 676 536 650 q 527 721 536 699 q 493 763 517 744 q 430 793 469 781 q 330 804 390 804 l 281 804 l 313 958 l 347 958 q 527 934 455 958 q 641 871 598 909 q 701 787 683 833 q 718 694 718 740 m 392 98 q 382 53 392 73 q 355 17 372 32 q 317 -7 338 1 q 272 -16 295 -16 q 230 -7 249 -16 q 198 15 212 1 q 177 48 184 29 q 170 87 170 66 q 179 133 170 113 q 205 169 189 154 q 243 193 222 184 q 288 201 264 201 q 330 193 311 201 q 362 171 349 185 q 384 138 376 157 q 392 98 392 119 z "},"¿":{"ha":764,"x_min":43,"x_max":591,"o":"m 43 -5 q 61 99 43 48 q 117 190 79 150 q 210 257 154 231 q 342 286 267 283 l 375 414 l 517 414 l 478 158 l 386 158 q 308 145 339 158 q 259 111 277 132 q 233 64 240 90 q 225 12 225 38 q 235 -33 225 -10 q 269 -74 245 -56 q 332 -104 292 -92 q 431 -115 371 -115 l 481 -115 l 449 -269 l 414 -269 q 234 -245 306 -269 q 120 -183 163 -221 q 60 -98 78 -144 q 43 -5 43 -51 m 370 590 q 380 636 370 615 q 407 672 390 657 q 445 695 423 687 q 489 704 466 704 q 531 696 512 704 q 563 674 549 688 q 584 641 576 660 q 591 602 591 623 q 582 555 591 576 q 555 519 572 534 q 518 496 539 505 q 473 488 496 488 q 431 496 450 488 q 398 518 412 504 q 377 550 385 532 q 370 590 370 569 z "},"‽":{"ha":764,"x_min":132,"x_max":731,"o":"m 352 275 l 210 275 l 300 804 q 256 804 279 804 l 216 804 l 245 953 l 292 953 q 325 952 309 953 l 347 1087 l 539 1087 l 505 940 q 589 916 547 935 q 666 864 631 897 q 715 777 700 830 q 720 665 731 724 q 682 562 708 607 q 616 482 655 516 q 519 425 576 448 q 381 397 461 401 l 352 275 m 544 651 q 541 718 551 687 q 511 766 531 749 q 470 789 491 783 l 409 524 q 449 535 427 526 q 492 561 471 544 q 526 602 513 578 q 544 651 538 625 m 355 98 q 345 53 355 73 q 318 17 334 32 q 279 -7 301 1 q 235 -16 258 -16 q 193 -7 212 -16 q 161 15 174 1 q 140 48 147 29 q 132 87 132 66 q 142 133 132 113 q 168 169 152 154 q 206 193 184 184 q 250 201 227 201 q 292 193 273 201 q 325 171 311 185 q 347 138 339 157 q 355 98 355 119 z "},"‘":{"ha":764,"x_min":314,"x_max":736,"o":"m 736 863 q 642 853 684 863 q 571 825 600 842 q 526 784 542 807 q 510 737 510 761 q 517 706 510 720 q 533 677 525 692 q 549 646 542 663 q 557 604 557 629 q 548 555 557 578 q 523 516 539 532 q 485 489 507 499 q 435 479 463 479 q 382 490 404 479 q 344 519 359 500 q 321 564 329 538 q 314 621 314 590 q 348 765 314 701 q 438 876 381 830 q 572 946 496 922 q 736 971 649 971 l 736 863 z "},"’":{"ha":764,"x_min":179,"x_max":602,"o":"m 179 587 q 273 597 231 586 q 344 625 315 608 q 390 666 374 643 q 406 713 406 689 q 398 744 406 730 q 382 772 391 758 q 366 804 373 787 q 358 846 358 821 q 367 895 358 872 q 392 935 376 918 q 430 961 408 951 q 481 971 453 971 q 533 960 511 971 q 571 931 556 949 q 594 886 587 912 q 602 829 602 860 q 568 685 602 749 q 477 575 534 621 q 342 504 419 529 q 179 479 265 479 l 179 587 z "},"“":{"ha":764,"x_min":125,"x_max":840,"o":"m 840 867 q 768 861 800 867 q 712 842 735 854 q 676 810 689 829 q 664 770 664 792 q 669 742 664 754 q 681 719 675 730 q 693 693 688 707 q 699 659 699 679 q 690 616 699 636 q 668 582 682 597 q 633 558 653 567 q 589 550 613 550 q 543 559 563 550 q 510 585 524 568 q 489 625 496 602 q 482 676 482 648 q 509 798 482 743 q 583 890 536 852 q 696 950 631 929 q 840 971 762 971 l 840 867 m 485 867 q 412 861 445 867 q 357 842 380 854 q 321 810 334 829 q 309 770 309 792 q 314 742 309 754 q 326 719 319 730 q 338 693 332 707 q 343 659 343 679 q 335 616 343 636 q 312 582 327 597 q 277 558 298 567 q 233 550 257 550 q 188 559 208 550 q 154 585 168 568 q 132 625 140 602 q 125 676 125 648 q 152 798 125 743 q 227 890 179 852 q 341 950 275 929 q 485 971 407 971 l 485 867 z "},"”":{"ha":764,"x_min":87,"x_max":803,"o":"m 87 654 q 160 660 127 653 q 216 680 193 667 q 251 711 239 692 q 264 751 264 729 q 258 779 264 767 q 247 802 253 790 q 235 828 240 814 q 229 863 229 842 q 237 905 229 885 q 260 939 245 924 q 295 963 275 954 q 339 971 315 971 q 384 962 364 971 q 418 936 404 953 q 438 896 431 919 q 446 844 446 873 q 419 724 446 778 q 345 631 392 669 q 231 571 297 592 q 87 550 165 550 l 87 654 m 443 654 q 515 660 483 653 q 571 680 548 667 q 607 711 594 692 q 619 751 619 729 q 614 779 619 767 q 602 802 608 790 q 590 828 595 814 q 585 863 585 842 q 593 905 585 885 q 615 939 601 924 q 650 963 630 954 q 694 971 671 971 q 740 962 720 971 q 774 936 760 953 q 795 896 788 919 q 803 844 803 873 q 776 724 803 778 q 701 631 749 669 q 587 571 653 592 q 443 550 521 550 l 443 654 z "},"‚":{"ha":764,"x_min":37,"x_max":460,"o":"m 37 -131 q 131 -121 90 -132 q 202 -93 173 -111 q 248 -52 232 -75 q 264 -5 264 -29 q 256 26 264 12 q 240 54 249 40 q 224 86 231 68 q 216 127 216 103 q 225 177 216 154 q 250 216 234 199 q 289 243 266 233 q 339 253 311 253 q 392 242 369 253 q 430 213 414 232 q 452 168 445 194 q 460 111 460 142 q 426 -33 460 31 q 335 -143 393 -98 q 200 -214 277 -189 q 37 -239 123 -239 l 37 -131 z "},"„":{"ha":764,"x_min":-64,"x_max":652,"o":"m -64 -104 q 9 -99 -24 -106 q 64 -79 41 -92 q 100 -47 87 -66 q 113 -7 113 -29 q 107 20 113 9 q 95 44 102 32 q 83 70 89 56 q 78 104 78 84 q 86 146 78 127 q 109 181 94 166 q 143 204 123 195 q 187 212 163 212 q 233 203 213 212 q 267 177 253 194 q 287 138 280 161 q 294 86 294 115 q 268 -35 294 20 q 193 -127 241 -89 q 80 -187 146 -166 q -64 -208 14 -208 l -64 -104 m 292 -104 q 364 -99 332 -106 q 420 -79 397 -92 q 455 -47 443 -66 q 468 -7 468 -29 q 463 20 468 9 q 451 44 457 32 q 439 70 444 56 q 433 104 433 84 q 441 146 433 127 q 464 181 450 166 q 499 204 479 195 q 543 212 519 212 q 589 203 568 212 q 623 177 609 194 q 644 138 637 161 q 652 86 652 115 q 625 -35 652 20 q 550 -127 597 -89 q 436 -187 502 -166 q 292 -208 370 -208 l 292 -104 z "},"‹":{"ha":764,"x_min":182,"x_max":602,"o":"m 351 363 l 506 123 l 385 51 l 182 376 l 501 688 l 602 603 l 351 363 z "},"›":{"ha":764,"x_min":171,"x_max":591,"o":"m 422 376 l 267 615 l 388 688 l 591 362 l 272 50 l 171 136 l 422 376 z "},"«":{"ha":764,"x_min":82,"x_max":722,"o":"m 241 361 l 345 144 l 210 87 l 82 375 l 315 648 l 432 581 l 241 361 m 532 361 l 637 151 l 507 94 l 372 375 l 610 642 l 722 574 l 532 361 z "},"»":{"ha":764,"x_min":50,"x_max":690,"o":"m 530 378 l 428 595 l 562 652 l 690 364 l 457 90 l 340 158 l 530 378 m 240 378 l 135 587 l 265 644 l 400 364 l 163 97 l 50 165 l 240 378 z "},"/":{"ha":764,"x_min":-56,"x_max":810,"o":"m 114 -146 l -56 -146 l 640 958 l 810 958 l 114 -146 z "},"|":{"ha":764,"x_min":179,"x_max":611,"o":"m 179 -278 l 458 1111 l 611 1111 l 332 -278 l 179 -278 z "},"–":{"ha":764,"x_min":79,"x_max":692,"o":"m 79 297 l 109 441 l 692 441 l 663 297 l 79 297 z "},"—":{"ha":764,"x_min":-14,"x_max":785,"o":"m -14 297 l 16 441 l 785 441 l 755 297 l -14 297 z "},"―":{"ha":764,"x_min":-14,"x_max":785,"o":"m -14 297 l 16 441 l 785 441 l 755 297 l -14 297 z "},"•":{"ha":764,"x_min":142,"x_max":633,"o":"m 397 623 q 491 604 448 623 q 566 552 534 585 q 615 478 597 520 q 633 389 633 435 q 612 286 633 333 q 555 204 591 239 q 473 150 519 170 q 375 131 426 131 q 281 150 324 131 q 207 201 238 169 q 159 275 176 233 q 142 364 142 317 q 162 467 142 420 q 218 549 183 515 q 300 603 254 584 q 397 623 347 623 z "},"·":{"ha":764,"x_min":258,"x_max":522,"o":"m 395 514 q 446 504 422 514 q 486 476 469 493 q 513 435 503 458 q 522 387 522 412 q 511 332 522 357 q 481 289 500 307 q 437 259 462 270 q 383 249 412 249 q 333 259 356 249 q 294 287 311 269 q 268 327 277 304 q 258 374 258 349 q 270 430 258 404 q 299 474 281 455 q 343 504 318 493 q 395 514 368 514 z "},"(":{"ha":764,"x_min":172,"x_max":726,"o":"m 393 -285 q 230 -48 288 -176 q 172 221 172 79 q 196 410 172 310 q 276 612 220 509 q 422 817 332 715 q 644 1011 512 918 l 726 909 q 534 729 610 821 q 415 550 458 637 q 354 380 371 462 q 336 231 336 299 q 349 115 336 172 q 383 3 361 58 q 437 -100 406 -51 q 505 -192 468 -150 l 393 -285 z "},")":{"ha":764,"x_min":46,"x_max":600,"o":"m 379 1011 q 543 774 485 902 q 600 505 600 647 q 576 317 600 416 q 496 114 552 217 q 350 -90 441 12 q 127 -285 260 -192 l 46 -183 q 238 -3 163 -94 q 357 177 313 89 q 419 346 401 264 q 436 496 436 427 q 424 612 436 554 q 389 723 411 669 q 335 827 366 777 q 267 918 304 876 l 379 1011 z "},"[":{"ha":764,"x_min":83,"x_max":692,"o":"m 83 -269 l 335 989 l 692 989 l 667 860 l 463 860 l 261 -140 l 465 -140 l 440 -269 l 83 -269 z "},"]":{"ha":764,"x_min":56,"x_max":663,"o":"m 56 -269 l 81 -140 l 283 -140 l 485 860 l 282 860 l 307 989 l 663 989 l 411 -269 l 56 -269 z "},"{":{"ha":764,"x_min":97,"x_max":745,"o":"m 436 -269 q 240 -198 296 -269 q 214 20 184 -127 l 249 192 q 238 293 263 262 q 140 325 213 325 l 97 325 l 123 453 l 167 453 q 278 488 241 453 q 329 595 315 524 l 354 714 q 394 836 368 784 q 461 921 420 887 q 558 972 502 955 q 688 989 614 989 l 745 989 l 720 861 l 676 861 q 616 852 644 861 q 565 825 588 844 q 526 775 543 806 q 501 703 510 745 l 478 585 q 452 498 468 534 q 415 438 437 462 q 363 401 393 414 q 296 383 334 389 q 391 326 366 375 q 396 176 416 277 l 361 4 q 357 -68 352 -40 q 377 -113 361 -96 q 417 -135 392 -129 q 475 -142 442 -142 l 518 -142 l 493 -269 l 436 -269 z "},"}":{"ha":764,"x_min":24,"x_max":682,"o":"m 332 989 q 528 918 473 989 q 554 700 583 847 l 530 586 q 542 485 517 516 q 639 453 566 453 l 682 453 l 656 325 l 612 325 q 548 316 576 325 q 502 290 521 307 q 470 245 482 272 q 450 183 457 218 l 414 5 q 374 -116 399 -64 q 307 -202 348 -168 q 211 -253 267 -236 q 81 -269 155 -269 l 24 -269 l 49 -142 l 92 -142 q 152 -133 124 -142 q 202 -105 180 -124 q 241 -56 225 -86 q 267 17 258 -26 l 301 193 q 327 280 311 244 q 366 339 343 315 q 417 375 388 362 q 485 393 447 388 q 388 451 412 401 q 383 602 363 501 l 407 715 q 411 787 416 759 q 391 832 407 816 q 351 855 376 848 q 293 861 326 861 l 250 861 l 275 989 l 332 989 z "},"*":{"ha":764,"x_min":154,"x_max":736,"o":"m 515 372 l 374 372 l 395 582 l 222 460 l 155 578 l 350 665 l 154 753 l 224 871 l 395 749 l 375 958 l 517 958 l 497 749 l 668 871 l 734 753 l 550 665 l 736 578 l 667 460 l 497 582 l 515 372 z "},"†":{"ha":764,"x_min":171,"x_max":743,"o":"m 525 652 l 428 172 l 264 172 l 361 652 l 171 652 l 196 778 l 386 778 l 422 958 l 586 958 l 550 778 l 743 778 l 718 652 l 525 652 z "},"‡":{"ha":764,"x_min":78,"x_max":743,"o":"m 457 315 l 650 315 l 625 189 l 432 189 l 395 0 l 231 0 l 268 189 l 78 189 l 103 315 l 293 315 l 361 652 l 171 652 l 196 778 l 386 778 l 422 958 l 586 958 l 550 778 l 743 778 l 718 652 l 525 652 l 457 315 z "},"§":{"ha":764,"x_min":-22,"x_max":768,"o":"m 550 145 q 559 118 555 134 q 564 83 564 102 q 543 -10 564 34 q 479 -87 522 -54 q 375 -140 437 -121 q 228 -160 312 -160 q 91 -153 153 -160 q -22 -132 29 -146 l 7 6 q 59 -10 31 -3 q 118 -23 87 -18 q 179 -31 148 -28 q 239 -34 210 -34 q 313 -25 284 -34 q 357 -2 341 -16 q 380 28 374 12 q 386 62 386 45 q 371 99 385 81 q 336 134 357 117 q 287 168 314 151 q 231 204 260 184 q 176 245 203 223 q 127 294 149 267 q 94 353 106 321 q 81 425 81 385 q 94 499 81 463 q 130 567 107 536 q 184 625 153 599 q 250 670 215 651 q 238 703 243 687 q 233 739 233 720 q 239 787 233 761 q 260 838 245 812 q 300 888 275 864 q 360 931 324 912 q 446 960 397 949 q 561 971 496 971 q 678 964 626 971 q 768 949 730 957 l 742 821 q 694 832 720 827 q 644 840 669 837 q 595 844 619 842 q 551 845 571 845 q 480 837 508 845 q 437 815 453 828 q 415 786 421 802 q 410 758 410 771 q 433 711 410 732 q 490 666 456 689 q 563 617 524 643 q 636 559 602 591 q 692 485 669 526 q 714 389 714 444 q 702 317 714 352 q 669 252 690 283 q 617 194 648 221 q 550 145 587 168 m 460 252 q 517 311 496 281 q 538 374 538 340 q 518 427 536 404 q 472 473 500 451 q 410 517 444 495 q 343 565 376 539 q 280 507 301 535 q 260 442 260 478 q 279 390 260 413 q 327 345 298 366 q 391 301 356 323 q 460 252 427 279 z "},"¶":{"ha":764,"x_min":75,"x_max":831,"o":"m 664 131 q 623 9 650 63 q 552 -82 595 -45 q 449 -140 509 -120 q 311 -160 389 -160 q 177 -138 235 -160 q 75 -75 120 -116 l 161 39 q 232 -9 193 9 q 325 -28 270 -28 q 387 -18 358 -28 q 439 13 416 -8 q 478 65 462 33 q 504 143 495 98 l 642 829 l 553 829 l 456 345 q 299 362 365 345 q 190 412 233 380 q 126 490 147 445 q 106 591 106 536 q 113 664 106 624 q 138 744 120 703 q 189 823 157 785 q 270 892 220 862 q 390 940 320 922 q 554 958 460 958 l 831 958 l 664 131 z "},"Α":{"ha":764,"x_min":-66,"x_max":692,"o":"m 515 0 l 501 175 l 192 175 l 107 0 l -66 0 l 374 886 l 607 886 l 692 0 l 515 0 m 458 724 l 258 311 l 490 311 l 458 724 z "},"Β":{"ha":764,"x_min":18,"x_max":745,"o":"m 18 0 l 196 886 l 473 886 q 600 873 549 886 q 684 836 652 859 q 730 780 716 812 q 745 711 745 748 q 731 629 745 668 q 695 557 718 589 q 640 500 671 524 q 570 464 608 476 q 624 444 600 458 q 665 409 648 430 q 690 362 682 388 q 699 309 699 336 q 693 250 699 283 q 672 183 688 217 q 628 116 656 149 q 555 57 600 83 q 446 16 510 31 q 293 0 381 0 l 18 0 m 566 672 q 561 702 566 687 q 542 728 556 717 q 504 747 528 740 q 439 754 479 754 l 334 754 l 288 519 l 380 519 q 461 533 427 519 q 519 568 496 546 q 554 617 543 589 q 566 672 566 644 m 318 136 q 411 151 373 136 q 473 188 449 165 q 507 239 496 210 q 518 297 518 268 q 511 333 518 316 q 488 363 505 350 q 443 384 471 376 q 370 392 414 392 l 261 392 l 210 136 l 318 136 z "},"Γ":{"ha":764,"x_min":64,"x_max":786,"o":"m 757 745 l 379 745 l 231 0 l 64 0 l 241 886 l 786 886 l 757 745 z "},"Δ":{"ha":764,"x_min":-31,"x_max":684,"o":"m -31 0 l -3 143 l 380 886 l 602 886 l 684 143 l 656 0 l -31 0 m 469 538 l 456 713 l 370 528 l 180 147 l 505 147 l 469 538 z "},"Ε":{"ha":764,"x_min":56,"x_max":766,"o":"m 56 0 l 233 886 l 766 886 l 737 745 l 374 745 l 329 525 l 676 525 l 650 387 l 302 387 l 253 141 l 616 141 l 589 0 l 56 0 z "},"Ζ":{"ha":764,"x_min":1,"x_max":796,"o":"m 1 0 l 26 127 l 546 735 l 161 735 l 192 886 l 796 886 l 768 753 l 248 151 l 654 151 l 624 0 l 1 0 z "},"Η":{"ha":764,"x_min":-4,"x_max":808,"o":"m 464 0 l 541 386 l 239 386 l 163 0 l -4 0 l 174 886 l 340 886 l 268 530 l 570 530 l 642 886 l 808 886 l 631 0 l 464 0 z "},"Θ":{"ha":764,"x_min":25,"x_max":775,"o":"m 288 525 l 543 525 l 517 387 l 261 387 l 288 525 m 315 -16 q 192 4 246 -16 q 101 62 138 24 q 44 155 64 100 q 25 283 25 211 q 37 423 25 351 q 72 564 48 495 q 134 694 96 633 q 222 801 171 755 q 339 874 273 847 q 485 901 404 901 q 608 882 554 901 q 699 825 662 863 q 756 731 736 787 q 775 603 775 675 q 764 463 775 535 q 728 322 752 391 q 667 192 704 253 q 578 85 629 131 q 461 12 527 39 q 315 -16 396 -16 m 339 134 q 418 153 382 134 q 483 205 454 172 q 534 281 512 237 q 570 375 555 325 q 593 480 585 426 q 600 589 600 535 q 567 712 600 673 q 461 752 533 752 q 382 733 418 752 q 317 682 347 714 q 267 605 288 649 q 230 511 245 561 q 208 406 215 460 q 200 297 200 351 q 233 173 200 213 q 339 134 267 134 z "},"Ι":{"ha":764,"x_min":32,"x_max":771,"o":"m 182 749 l 210 886 l 771 886 l 743 749 l 547 749 l 425 137 l 619 137 l 593 0 l 32 0 l 58 137 l 255 137 l 378 749 l 182 749 z "},"Κ":{"ha":764,"x_min":17,"x_max":839,"o":"m 454 0 l 273 429 l 187 0 l 17 0 l 195 886 l 366 886 l 286 490 l 627 886 l 839 886 l 444 457 l 664 0 l 454 0 z "},"Λ":{"ha":764,"x_min":-66,"x_max":692,"o":"m 380 886 l 602 886 l 692 0 l 511 0 l 471 533 l 457 708 l 370 524 l 119 0 l -66 0 l 380 886 z "},"Μ":{"ha":764,"x_min":-39,"x_max":798,"o":"m 517 0 l 600 501 l 635 701 l 564 566 l 406 264 l 301 264 l 272 566 l 262 701 l 220 505 l 103 0 l -39 0 l 182 886 l 363 886 l 389 635 l 399 493 l 463 627 l 597 886 l 798 886 l 664 0 l 517 0 z "},"Ν":{"ha":764,"x_min":-1,"x_max":810,"o":"m 436 0 l 304 529 l 278 643 l 204 275 l 150 0 l -1 0 l 176 886 l 372 886 l 507 354 l 529 250 l 607 642 l 657 886 l 810 886 l 632 0 l 436 0 z "},"Ξ":{"ha":764,"x_min":29,"x_max":766,"o":"m 183 740 l 214 886 l 766 886 l 736 740 l 183 740 m 150 385 l 179 528 l 657 528 l 628 385 l 150 385 m 29 0 l 58 146 l 625 146 l 596 0 l 29 0 z "},"Ο":{"ha":764,"x_min":28,"x_max":772,"o":"m 315 -16 q 102 61 176 -16 q 28 283 28 138 q 39 423 28 351 q 75 564 51 495 q 135 694 98 633 q 222 801 172 755 q 339 874 273 847 q 485 901 404 901 q 698 825 624 901 q 772 603 772 749 q 761 463 772 535 q 726 322 749 391 q 665 192 702 253 q 578 85 629 131 q 461 12 527 39 q 315 -16 396 -16 m 339 134 q 417 153 382 134 q 482 205 453 172 q 532 281 511 237 q 569 375 554 325 q 590 480 583 426 q 597 589 597 535 q 565 712 597 673 q 461 751 533 751 q 383 733 418 751 q 318 682 347 714 q 268 605 290 649 q 232 511 246 561 q 210 406 217 460 q 203 297 203 351 q 235 174 203 213 q 339 134 267 134 z "},"Π":{"ha":764,"x_min":-5,"x_max":808,"o":"m 463 0 l 612 742 l 311 742 l 162 0 l -5 0 l 173 886 l 808 886 l 630 0 l 463 0 z "},"Ρ":{"ha":764,"x_min":22,"x_max":762,"o":"m 762 661 q 736 520 762 588 q 659 399 711 452 q 527 316 606 347 q 339 285 447 285 l 245 285 l 189 0 l 22 0 l 200 886 l 452 886 q 597 868 538 886 q 693 818 656 849 q 746 745 730 786 q 762 661 762 705 m 585 635 q 579 677 585 657 q 555 713 572 698 q 509 739 538 729 q 431 748 479 748 l 338 748 l 273 423 l 362 423 q 454 440 413 423 q 525 485 496 456 q 569 553 553 514 q 585 635 585 591 z "},"Σ":{"ha":764,"x_min":0,"x_max":795,"o":"m 252 153 l 654 153 l 624 0 l 0 0 l 29 149 l 364 467 l 165 757 l 191 886 l 795 886 l 766 737 l 380 737 l 576 461 l 252 153 z "},"Τ":{"ha":764,"x_min":134,"x_max":819,"o":"m 547 747 l 399 0 l 228 0 l 376 747 l 134 747 l 163 886 l 819 886 l 790 747 l 547 747 z "},"Υ":{"ha":764,"x_min":115,"x_max":864,"o":"m 457 314 l 395 0 l 226 0 l 289 313 l 115 886 l 290 886 l 367 612 l 400 478 l 489 616 l 676 886 l 864 886 l 457 314 z "},"Φ":{"ha":764,"x_min":0,"x_max":775,"o":"m 775 582 q 764 452 775 517 q 732 328 753 388 q 679 216 711 269 q 605 122 647 163 q 510 54 563 81 q 395 18 457 27 l 379 -57 l 221 -57 l 236 18 q 77 110 130 37 q 25 301 25 182 q 32 392 25 338 q 54 504 38 445 q 98 622 71 563 q 169 732 126 682 q 270 818 211 782 q 407 867 328 854 l 422 943 l 581 943 l 566 867 q 723 776 671 849 q 775 582 775 703 m 612 581 q 595 675 612 638 q 536 725 577 711 l 422 160 q 486 203 458 174 q 535 270 514 232 q 571 352 556 309 q 594 438 585 395 q 608 517 604 480 q 612 581 612 555 m 379 725 q 314 680 342 709 q 265 612 286 650 q 229 532 243 574 q 204 448 214 490 q 191 371 195 407 q 187 310 187 335 q 206 210 187 248 q 265 160 225 172 l 379 725 m 0 886 z "},"Χ":{"ha":764,"x_min":-64,"x_max":839,"o":"m 485 0 l 379 326 l 146 0 l -64 0 l 282 454 l 131 886 l 318 886 l 416 578 l 635 886 l 839 886 l 514 454 l 689 0 l 485 0 z "},"Ψ":{"ha":764,"x_min":56,"x_max":845,"o":"m 391 0 l 235 0 l 286 254 q 170 288 216 263 q 96 352 123 313 q 62 443 69 391 q 68 558 56 495 l 134 886 l 292 886 l 227 558 q 235 440 211 483 q 313 387 259 398 l 412 886 l 568 886 l 468 387 q 519 405 495 393 q 563 438 543 417 q 598 489 583 459 q 621 558 612 518 l 687 886 l 845 886 l 779 558 q 734 430 765 485 q 659 337 703 375 q 559 279 614 300 q 441 254 504 259 l 391 0 z "},"Ω":{"ha":764,"x_min":-46,"x_max":777,"o":"m 777 599 q 761 457 777 530 q 717 319 746 385 q 647 201 688 254 q 554 122 606 149 l 693 122 l 669 0 l 364 0 l 386 115 q 453 169 423 136 q 507 242 484 202 q 549 328 531 283 q 578 418 566 372 q 595 508 589 464 q 600 589 600 551 q 593 655 600 625 q 570 706 586 685 q 529 739 554 727 q 468 750 504 750 q 377 728 416 750 q 308 669 337 706 q 259 586 279 633 q 228 490 239 539 q 211 393 216 441 q 205 307 205 345 q 224 201 205 248 q 286 117 242 155 l 264 0 l -46 0 l -22 122 l 129 122 q 91 165 107 139 q 63 223 74 191 q 46 293 52 256 q 40 370 40 330 q 51 481 40 421 q 85 600 62 541 q 144 713 109 659 q 231 809 180 768 q 345 876 281 851 q 489 901 409 901 q 610 882 557 901 q 700 823 663 862 q 757 728 737 785 q 777 599 777 672 z "},"Ά":{"ha":764,"x_min":-66,"x_max":841,"o":"m 515 0 l 501 175 l 192 175 l 107 0 l -66 0 l 374 886 l 607 886 l 692 0 l 515 0 m 458 724 l 258 311 l 490 311 l 458 724 m 189 743 l 47 743 l 107 972 l 279 972 l 189 743 m 841 886 z "},"Έ":{"ha":764,"x_min":-22,"x_max":771,"o":"m 56 0 l 233 886 l 766 886 l 737 745 l 374 745 l 329 525 l 676 525 l 650 387 l 302 387 l 253 141 l 616 141 l 589 0 l 56 0 m 119 743 l -22 743 l 37 972 l 210 972 l 119 743 m 771 886 z "},"Ή":{"ha":764,"x_min":-64,"x_max":808,"o":"m 464 0 l 541 386 l 239 386 l 163 0 l -4 0 l 174 886 l 340 886 l 268 530 l 570 530 l 642 886 l 808 886 l 631 0 l 464 0 m 78 743 l -64 743 l -4 972 l 168 972 l 78 743 m 730 886 z "},"Ί":{"ha":764,"x_min":-50,"x_max":771,"o":"m 182 749 l 210 886 l 771 886 l 743 749 l 547 749 l 425 137 l 619 137 l 593 0 l 32 0 l 58 137 l 255 137 l 378 749 l 182 749 m 92 743 l -50 743 l 9 972 l 182 972 l 92 743 m 743 886 z "},"Ϊ":{"ha":764,"x_min":0,"x_max":771,"o":"m 182 749 l 210 886 l 771 886 l 743 749 l 547 749 l 425 137 l 619 137 l 593 0 l 32 0 l 58 137 l 255 137 l 378 749 l 182 749 m 467 1059 q 458 1019 467 1037 q 437 988 450 1001 q 406 967 423 975 q 370 960 388 960 q 333 967 350 960 q 305 986 317 974 q 287 1014 294 998 q 281 1047 281 1030 q 289 1086 281 1068 q 309 1118 296 1105 q 339 1139 322 1131 q 376 1146 357 1146 q 412 1139 395 1146 q 441 1120 429 1132 q 460 1092 453 1107 q 467 1059 467 1076 m 766 1059 q 758 1019 766 1037 q 736 988 750 1001 q 706 967 723 975 q 669 960 688 960 q 633 967 650 960 q 605 986 616 974 q 587 1014 593 998 q 581 1047 581 1030 q 588 1086 581 1068 q 609 1118 596 1105 q 640 1139 623 1131 q 676 1146 657 1146 q 712 1139 695 1146 q 741 1120 728 1132 q 760 1092 753 1107 q 766 1059 766 1076 m 0 886 z "},"Ό":{"ha":764,"x_min":-43,"x_max":772,"o":"m 315 -16 q 102 61 176 -16 q 28 283 28 138 q 39 423 28 351 q 75 564 51 495 q 135 694 98 633 q 222 801 172 755 q 339 874 273 847 q 485 901 404 901 q 698 825 624 901 q 772 603 772 749 q 761 463 772 535 q 726 322 749 391 q 665 192 702 253 q 578 85 629 131 q 461 12 527 39 q 315 -16 396 -16 m 339 134 q 417 153 382 134 q 482 205 453 172 q 532 281 511 237 q 569 375 554 325 q 590 480 583 426 q 597 589 597 535 q 565 712 597 673 q 461 751 533 751 q 383 733 418 751 q 318 682 347 714 q 268 605 290 649 q 232 511 246 561 q 210 406 217 460 q 203 297 203 351 q 235 174 203 213 q 339 134 267 134 m 99 743 l -43 743 l 17 972 l 189 972 l 99 743 m 751 886 z "},"Ύ":{"ha":764,"x_min":-96,"x_max":864,"o":"m 457 314 l 395 0 l 226 0 l 289 313 l 115 886 l 290 886 l 367 612 l 400 478 l 489 616 l 676 886 l 864 886 l 457 314 m 46 743 l -96 743 l -36 972 l 136 972 l 46 743 m 698 886 z "},"Ϋ":{"ha":764,"x_min":0,"x_max":864,"o":"m 457 314 l 395 0 l 226 0 l 289 313 l 115 886 l 290 886 l 367 612 l 400 478 l 489 616 l 676 886 l 864 886 l 457 314 m 467 1059 q 458 1019 467 1037 q 437 988 450 1001 q 406 967 423 975 q 370 960 388 960 q 333 967 350 960 q 305 986 317 974 q 287 1014 294 998 q 281 1047 281 1030 q 289 1086 281 1068 q 309 1118 296 1105 q 339 1139 322 1131 q 376 1146 357 1146 q 412 1139 395 1146 q 441 1120 429 1132 q 460 1092 453 1107 q 467 1059 467 1076 m 766 1059 q 758 1019 766 1037 q 736 988 750 1001 q 706 967 723 975 q 669 960 688 960 q 633 967 650 960 q 605 986 616 974 q 587 1014 593 998 q 581 1047 581 1030 q 588 1086 581 1068 q 609 1118 596 1105 q 640 1139 623 1131 q 676 1146 657 1146 q 712 1139 695 1146 q 741 1120 728 1132 q 760 1092 753 1107 q 766 1059 766 1076 m 0 886 z "},"Ώ":{"ha":764,"x_min":-46,"x_max":777,"o":"m 777 599 q 761 457 777 530 q 717 319 746 385 q 647 201 688 254 q 554 122 606 149 l 693 122 l 669 0 l 364 0 l 386 115 q 453 169 423 136 q 507 242 484 202 q 549 328 531 283 q 578 418 566 372 q 595 508 589 464 q 600 589 600 551 q 593 655 600 625 q 570 706 586 685 q 529 739 554 727 q 468 750 504 750 q 377 728 416 750 q 308 669 337 706 q 259 586 279 633 q 228 490 239 539 q 211 393 216 441 q 205 307 205 345 q 224 201 205 248 q 286 117 242 155 l 264 0 l -46 0 l -22 122 l 129 122 q 91 165 107 139 q 63 223 74 191 q 46 293 52 256 q 40 370 40 330 q 51 481 40 421 q 85 600 62 541 q 144 713 109 659 q 231 809 180 768 q 345 876 281 851 q 489 901 409 901 q 610 882 557 901 q 700 823 663 862 q 757 728 737 785 q 777 599 777 672 m 106 743 l -36 743 l 24 972 l 196 972 l 106 743 m 758 886 z "},"α":{"ha":764,"x_min":20,"x_max":807,"o":"m 501 96 q 393 15 454 45 q 260 -16 331 -16 q 158 0 203 -16 q 83 46 114 16 q 36 124 52 77 q 20 235 20 172 q 29 338 20 284 q 58 445 38 393 q 108 544 77 497 q 182 626 139 591 q 280 683 224 662 q 406 704 336 704 q 538 672 488 704 q 603 586 588 641 l 643 689 l 807 689 l 696 416 q 640 211 640 280 q 715 136 640 130 l 686 -3 q 653 -10 669 -8 q 623 -12 637 -12 q 538 16 571 -12 q 501 96 506 43 m 505 435 q 476 531 505 500 q 395 562 448 562 q 325 545 355 562 q 271 502 294 528 q 232 441 248 475 q 206 373 216 407 q 192 307 196 338 q 187 254 187 276 q 214 158 187 189 q 289 126 241 126 q 378 154 338 126 q 447 226 418 182 q 490 326 475 271 q 505 435 505 380 z "},"β":{"ha":764,"x_min":58,"x_max":734,"o":"m 711 400 q 704 327 711 370 q 678 237 696 283 q 630 146 660 191 q 556 65 600 100 q 451 7 511 29 q 311 -16 391 -16 q 204 2 251 -16 q 125 55 157 19 q 75 146 92 91 q 58 278 58 201 q 64 370 58 322 q 79 463 70 418 q 143 679 103 584 q 238 838 182 773 q 363 937 293 903 q 518 971 433 971 q 610 959 570 971 q 678 923 650 946 q 720 868 705 901 q 734 798 734 836 q 721 734 734 765 q 685 676 708 703 q 629 628 661 649 q 558 596 596 608 q 614 577 587 591 q 664 539 642 564 q 698 481 685 515 q 711 400 711 446 m 541 390 q 512 482 541 448 q 425 517 484 517 q 385 514 404 517 q 342 505 365 511 l 253 485 q 234 376 240 428 q 228 286 228 324 q 235 213 228 243 q 257 163 243 182 q 292 135 271 144 q 339 126 313 126 q 422 150 385 126 q 485 212 459 174 q 526 297 511 250 q 541 390 540 344 m 561 774 q 545 813 561 795 q 496 831 528 831 q 429 815 460 831 q 373 772 399 800 q 327 705 348 744 q 289 616 306 665 l 372 636 q 516 696 472 660 q 561 774 561 732 z "},"γ":{"ha":764,"x_min":69,"x_max":772,"o":"m 347 140 q 447 285 406 216 q 516 421 487 353 q 565 556 546 490 q 593 689 583 622 l 772 689 q 718 496 752 587 q 634 316 684 404 q 515 140 583 228 q 357 -42 448 52 q 344 -142 353 -81 q 321 -269 335 -203 l 156 -269 q 181 -133 172 -196 q 194 -18 191 -69 q 197 91 197 33 q 191 234 197 149 q 176 373 184 318 q 161 463 169 427 q 145 516 153 498 q 130 544 138 534 q 113 556 121 553 q 96 558 104 558 q 81 557 87 558 q 69 555 75 557 l 96 693 q 133 701 117 699 q 161 703 149 703 q 206 697 182 703 q 249 678 230 692 q 282 637 267 663 q 309 569 297 611 q 330 465 320 526 q 346 341 340 404 q 351 228 351 277 q 347 140 351 179 z "},"δ":{"ha":764,"x_min":39,"x_max":761,"o":"m 734 817 q 641 836 686 830 q 556 842 596 842 q 482 830 507 842 q 456 794 456 819 q 467 762 456 779 q 496 728 478 745 l 580 654 q 679 525 651 590 q 707 383 707 460 q 696 294 707 340 q 664 203 686 248 q 610 119 643 159 q 534 50 578 79 q 436 2 491 20 q 315 -16 382 -16 q 195 2 247 -16 q 109 54 144 20 q 56 137 74 88 q 39 249 39 186 q 58 379 39 315 q 113 500 77 444 q 202 600 149 556 q 321 667 254 644 q 292 719 302 689 q 281 777 281 748 q 299 849 281 814 q 354 911 317 884 q 445 955 390 939 q 576 971 500 971 q 681 964 633 971 q 761 949 728 958 l 734 817 m 533 372 q 519 456 533 417 q 469 529 505 496 l 425 566 q 330 521 370 553 q 263 447 290 489 q 224 359 237 406 q 211 269 211 312 q 243 163 211 198 q 332 127 275 127 q 416 150 378 127 q 479 207 454 172 q 519 285 505 241 q 533 372 533 329 z "},"ε":{"ha":764,"x_min":35,"x_max":734,"o":"m 708 553 q 662 563 688 558 q 606 572 635 568 q 546 578 576 576 q 486 581 515 581 q 396 573 431 581 q 340 554 361 566 q 312 526 320 542 q 304 492 304 510 q 313 461 304 475 q 338 436 321 448 q 384 419 356 425 q 450 413 411 413 l 607 413 l 584 295 l 428 295 q 321 287 362 295 q 256 265 279 279 q 224 233 233 251 q 215 195 215 215 q 224 159 215 175 q 253 133 233 144 q 305 116 273 122 q 382 110 336 110 q 501 117 439 110 q 631 139 563 123 l 631 11 q 496 -8 566 -1 q 357 -16 427 -16 q 115 32 195 -16 q 35 175 35 79 q 48 240 35 209 q 86 297 61 271 q 148 341 111 323 q 233 367 185 359 q 159 405 185 374 q 134 485 134 436 q 140 535 134 510 q 161 585 146 561 q 204 631 177 610 q 271 669 231 652 q 369 694 312 685 q 501 704 425 704 q 624 698 564 704 q 734 682 684 692 l 708 553 z "},"ζ":{"ha":764,"x_min":68,"x_max":800,"o":"m 600 -41 q 599 -65 600 -53 q 595 -92 598 -78 q 564 -173 586 -134 q 505 -249 541 -211 l 338 -249 q 370 -206 355 -227 q 398 -164 386 -185 q 417 -121 410 -143 q 424 -75 424 -99 q 419 -54 424 -63 q 404 -36 415 -44 q 374 -22 393 -28 q 328 -9 356 -16 q 216 22 264 3 q 135 70 168 41 q 85 138 102 98 q 68 232 68 178 q 93 362 68 292 q 173 509 118 433 q 317 666 229 586 q 534 825 406 746 l 215 825 l 241 958 l 800 958 l 775 836 q 582 705 664 766 q 441 590 499 644 q 345 490 382 537 q 286 403 308 444 q 257 326 264 362 q 249 258 249 290 q 257 214 249 233 q 284 180 266 195 q 331 155 302 166 q 401 135 360 144 q 492 105 454 123 q 554 66 530 88 q 589 18 578 45 q 600 -41 600 -9 z "},"η":{"ha":764,"x_min":29,"x_max":704,"o":"m 549 -269 l 383 -269 l 526 449 q 523 535 537 505 q 475 566 509 566 q 431 554 454 566 q 386 523 408 543 q 341 476 363 503 q 302 419 320 449 q 272 357 285 389 q 253 294 259 325 l 195 0 l 29 0 l 103 368 q 111 414 107 389 q 119 476 115 439 q 129 564 123 512 q 142 689 134 615 l 277 689 l 271 564 q 310 612 286 587 q 366 657 334 637 q 436 691 397 677 q 518 704 474 704 q 611 686 573 704 q 671 634 650 668 q 699 553 693 601 q 692 446 704 505 l 549 -269 z "},"θ":{"ha":764,"x_min":57,"x_max":832,"o":"m 832 689 l 806 560 l 738 560 q 682 321 718 427 q 593 140 646 214 q 469 25 540 65 q 306 -16 397 -16 q 201 1 248 -16 q 123 54 155 18 q 74 143 92 90 q 57 272 57 197 q 68 402 57 338 q 92 532 79 467 l 261 532 q 244 441 251 480 q 234 371 238 401 q 228 319 230 341 q 227 279 227 296 q 233 205 227 235 q 253 158 240 176 q 283 133 265 140 q 323 126 301 126 q 391 144 360 126 q 446 194 421 163 q 489 268 470 226 q 523 359 509 311 q 549 458 538 407 q 569 560 561 510 l 541 560 q 384 574 448 560 q 281 612 321 587 q 223 672 241 637 q 205 746 205 706 q 225 834 205 793 q 282 907 244 876 q 372 956 319 938 q 490 974 425 974 q 593 959 545 974 q 677 910 642 944 q 731 822 711 876 q 751 689 751 768 l 832 689 m 582 689 q 575 749 582 722 q 556 795 569 776 q 523 825 544 814 q 471 836 501 836 q 397 813 422 836 q 372 758 372 791 q 380 728 372 741 q 405 706 387 715 q 449 693 422 697 q 551 689 475 689 l 582 689 z "},"ι":{"ha":764,"x_min":111,"x_max":654,"o":"m 444 231 q 445 140 432 166 q 496 114 458 114 q 566 128 528 114 q 654 165 605 142 l 654 39 q 560 0 610 15 q 457 -16 509 -16 q 296 44 341 -16 q 277 236 250 104 l 321 458 q 320 549 334 523 q 269 575 307 575 q 199 561 238 575 q 111 524 160 547 l 111 650 q 205 690 155 675 q 309 705 256 705 q 469 644 424 705 q 489 453 515 584 l 444 231 z "},"κ":{"ha":764,"x_min":33,"x_max":790,"o":"m 463 0 l 264 351 l 195 0 l 33 0 l 170 689 l 332 689 l 275 404 l 569 689 l 790 689 l 433 366 l 661 0 l 463 0 z "},"λ":{"ha":764,"x_min":-57,"x_max":690,"o":"m 385 731 q 372 784 380 765 q 352 813 363 803 q 324 826 340 823 q 288 829 308 829 q 244 826 268 829 q 198 817 221 823 l 198 954 q 262 967 229 962 q 331 971 296 971 q 412 962 376 971 q 474 928 447 954 q 522 851 502 903 q 555 715 542 799 l 628 199 q 673 127 638 127 q 683 128 678 127 q 690 129 687 128 l 690 -1 q 671 -6 679 -5 q 654 -9 664 -8 q 636 -12 645 -11 q 618 -12 628 -12 q 562 -4 587 -12 q 521 18 538 3 q 490 63 504 33 q 465 165 475 93 l 435 400 l 422 503 l 366 400 l 132 0 l -57 0 l 387 720 l 385 731 z "}}}
